<?xml version="1.0" encoding="utf-8" standalone="no"?>
<!DOCTYPE svg PUBLIC "-//W3C//DTD SVG 1.1//EN"
  "http://www.w3.org/Graphics/SVG/1.1/DTD/svg11.dtd">
<svg xmlns:xlink="http://www.w3.org/1999/xlink" width="460.8pt" height="345.6pt" viewBox="0 0 460.8 345.6" xmlns="http://www.w3.org/2000/svg" version="1.1">
 <metadata>
  <rdf:RDF xmlns:dc="http://purl.org/dc/elements/1.1/" xmlns:cc="http://creativecommons.org/ns#" xmlns:rdf="http://www.w3.org/1999/02/22-rdf-syntax-ns#">
   <cc:Work>
    <dc:type rdf:resource="http://purl.org/dc/dcmitype/StillImage"/>
    <dc:date>2026-06-01T22:48:44.449936</dc:date>
    <dc:format>image/svg+xml</dc:format>
    <dc:creator>
     <cc:Agent>
      <dc:title>Matplotlib v3.10.9, https://matplotlib.org/</dc:title>
     </cc:Agent>
    </dc:creator>
   </cc:Work>
  </rdf:RDF>
 </metadata>
 <defs>
  <style type="text/css">*{stroke-linejoin: round; stroke-linecap: butt}</style>
 </defs>
 <g id="figure_1">
  <g id="patch_1">
   <path d="M 0 345.6 
L 460.8 345.6 
L 460.8 0 
L 0 0 
z
" style="fill: #ffffff"/>
  </g>
  <g id="axes_1">
   <g id="patch_2">
    <path d="M 54.02 303.64 
L 450 303.64 
L 450 26.88 
L 54.02 26.88 
z
" style="fill: #ffffff"/>
   </g>
   <g id="matplotlib.axis_1">
    <g id="xtick_1">
     <g id="line2d_1">
      <path d="M 68.382911 303.64 
L 68.382911 26.88 
" clip-path="url(#p5f9489e6fa)" style="fill: none; stroke: #b0b0b0; stroke-width: 0.8; stroke-linecap: square"/>
     </g>
     <g id="line2d_2">
      <defs>
       <path id="m23b94ea938" d="M 0 0 
L 0 3.5 
" style="stroke: #000000; stroke-width: 0.8"/>
      </defs>
      <g>
       <use xlink:href="#m23b94ea938" x="68.382911" y="303.64" style="stroke: #000000; stroke-width: 0.8"/>
      </g>
     </g>
     <g id="text_1">
      <!-- 0 -->
      <g transform="translate(65.201661 318.238437) scale(0.1 -0.1)">
       <defs>
        <path id="DejaVuSans-30" d="M 2034 4250 
Q 1547 4250 1301 3770 
Q 1056 3291 1056 2328 
Q 1056 1369 1301 889 
Q 1547 409 2034 409 
Q 2525 409 2770 889 
Q 3016 1369 3016 2328 
Q 3016 3291 2770 3770 
Q 2525 4250 2034 4250 
z
M 2034 4750 
Q 2819 4750 3233 4129 
Q 3647 3509 3647 2328 
Q 3647 1150 3233 529 
Q 2819 -91 2034 -91 
Q 1250 -91 836 529 
Q 422 1150 422 2328 
Q 422 3509 836 4129 
Q 1250 4750 2034 4750 
z
" transform="scale(0.015625)"/>
       </defs>
       <use xlink:href="#DejaVuSans-30"/>
      </g>
     </g>
    </g>
    <g id="xtick_2">
     <g id="line2d_3">
      <path d="M 141.106511 303.64 
L 141.106511 26.88 
" clip-path="url(#p5f9489e6fa)" style="fill: none; stroke: #b0b0b0; stroke-width: 0.8; stroke-linecap: square"/>
     </g>
     <g id="line2d_4">
      <g>
       <use xlink:href="#m23b94ea938" x="141.106511" y="303.64" style="stroke: #000000; stroke-width: 0.8"/>
      </g>
     </g>
     <g id="text_2">
      <!-- 2000 -->
      <g transform="translate(128.381511 318.238437) scale(0.1 -0.1)">
       <defs>
        <path id="DejaVuSans-32" d="M 1228 531 
L 3431 531 
L 3431 0 
L 469 0 
L 469 531 
Q 828 903 1448 1529 
Q 2069 2156 2228 2338 
Q 2531 2678 2651 2914 
Q 2772 3150 2772 3378 
Q 2772 3750 2511 3984 
Q 2250 4219 1831 4219 
Q 1534 4219 1204 4116 
Q 875 4013 500 3803 
L 500 4441 
Q 881 4594 1212 4672 
Q 1544 4750 1819 4750 
Q 2544 4750 2975 4387 
Q 3406 4025 3406 3419 
Q 3406 3131 3298 2873 
Q 3191 2616 2906 2266 
Q 2828 2175 2409 1742 
Q 1991 1309 1228 531 
z
" transform="scale(0.015625)"/>
       </defs>
       <use xlink:href="#DejaVuSans-32"/>
       <use xlink:href="#DejaVuSans-30" transform="translate(63.623047 0)"/>
       <use xlink:href="#DejaVuSans-30" transform="translate(127.246094 0)"/>
       <use xlink:href="#DejaVuSans-30" transform="translate(190.869141 0)"/>
      </g>
     </g>
    </g>
    <g id="xtick_3">
     <g id="line2d_5">
      <path d="M 213.83011 303.64 
L 213.83011 26.88 
" clip-path="url(#p5f9489e6fa)" style="fill: none; stroke: #b0b0b0; stroke-width: 0.8; stroke-linecap: square"/>
     </g>
     <g id="line2d_6">
      <g>
       <use xlink:href="#m23b94ea938" x="213.83011" y="303.64" style="stroke: #000000; stroke-width: 0.8"/>
      </g>
     </g>
     <g id="text_3">
      <!-- 4000 -->
      <g transform="translate(201.10511 318.238437) scale(0.1 -0.1)">
       <defs>
        <path id="DejaVuSans-34" d="M 2419 4116 
L 825 1625 
L 2419 1625 
L 2419 4116 
z
M 2253 4666 
L 3047 4666 
L 3047 1625 
L 3713 1625 
L 3713 1100 
L 3047 1100 
L 3047 0 
L 2419 0 
L 2419 1100 
L 313 1100 
L 313 1709 
L 2253 4666 
z
" transform="scale(0.015625)"/>
       </defs>
       <use xlink:href="#DejaVuSans-34"/>
       <use xlink:href="#DejaVuSans-30" transform="translate(63.623047 0)"/>
       <use xlink:href="#DejaVuSans-30" transform="translate(127.246094 0)"/>
       <use xlink:href="#DejaVuSans-30" transform="translate(190.869141 0)"/>
      </g>
     </g>
    </g>
    <g id="xtick_4">
     <g id="line2d_7">
      <path d="M 286.55371 303.64 
L 286.55371 26.88 
" clip-path="url(#p5f9489e6fa)" style="fill: none; stroke: #b0b0b0; stroke-width: 0.8; stroke-linecap: square"/>
     </g>
     <g id="line2d_8">
      <g>
       <use xlink:href="#m23b94ea938" x="286.55371" y="303.64" style="stroke: #000000; stroke-width: 0.8"/>
      </g>
     </g>
     <g id="text_4">
      <!-- 6000 -->
      <g transform="translate(273.82871 318.238437) scale(0.1 -0.1)">
       <defs>
        <path id="DejaVuSans-36" d="M 2113 2584 
Q 1688 2584 1439 2293 
Q 1191 2003 1191 1497 
Q 1191 994 1439 701 
Q 1688 409 2113 409 
Q 2538 409 2786 701 
Q 3034 994 3034 1497 
Q 3034 2003 2786 2293 
Q 2538 2584 2113 2584 
z
M 3366 4563 
L 3366 3988 
Q 3128 4100 2886 4159 
Q 2644 4219 2406 4219 
Q 1781 4219 1451 3797 
Q 1122 3375 1075 2522 
Q 1259 2794 1537 2939 
Q 1816 3084 2150 3084 
Q 2853 3084 3261 2657 
Q 3669 2231 3669 1497 
Q 3669 778 3244 343 
Q 2819 -91 2113 -91 
Q 1303 -91 875 529 
Q 447 1150 447 2328 
Q 447 3434 972 4092 
Q 1497 4750 2381 4750 
Q 2619 4750 2861 4703 
Q 3103 4656 3366 4563 
z
" transform="scale(0.015625)"/>
       </defs>
       <use xlink:href="#DejaVuSans-36"/>
       <use xlink:href="#DejaVuSans-30" transform="translate(63.623047 0)"/>
       <use xlink:href="#DejaVuSans-30" transform="translate(127.246094 0)"/>
       <use xlink:href="#DejaVuSans-30" transform="translate(190.869141 0)"/>
      </g>
     </g>
    </g>
    <g id="xtick_5">
     <g id="line2d_9">
      <path d="M 359.277309 303.64 
L 359.277309 26.88 
" clip-path="url(#p5f9489e6fa)" style="fill: none; stroke: #b0b0b0; stroke-width: 0.8; stroke-linecap: square"/>
     </g>
     <g id="line2d_10">
      <g>
       <use xlink:href="#m23b94ea938" x="359.277309" y="303.64" style="stroke: #000000; stroke-width: 0.8"/>
      </g>
     </g>
     <g id="text_5">
      <!-- 8000 -->
      <g transform="translate(346.552309 318.238437) scale(0.1 -0.1)">
       <defs>
        <path id="DejaVuSans-38" d="M 2034 2216 
Q 1584 2216 1326 1975 
Q 1069 1734 1069 1313 
Q 1069 891 1326 650 
Q 1584 409 2034 409 
Q 2484 409 2743 651 
Q 3003 894 3003 1313 
Q 3003 1734 2745 1975 
Q 2488 2216 2034 2216 
z
M 1403 2484 
Q 997 2584 770 2862 
Q 544 3141 544 3541 
Q 544 4100 942 4425 
Q 1341 4750 2034 4750 
Q 2731 4750 3128 4425 
Q 3525 4100 3525 3541 
Q 3525 3141 3298 2862 
Q 3072 2584 2669 2484 
Q 3125 2378 3379 2068 
Q 3634 1759 3634 1313 
Q 3634 634 3220 271 
Q 2806 -91 2034 -91 
Q 1263 -91 848 271 
Q 434 634 434 1313 
Q 434 1759 690 2068 
Q 947 2378 1403 2484 
z
M 1172 3481 
Q 1172 3119 1398 2916 
Q 1625 2713 2034 2713 
Q 2441 2713 2670 2916 
Q 2900 3119 2900 3481 
Q 2900 3844 2670 4047 
Q 2441 4250 2034 4250 
Q 1625 4250 1398 4047 
Q 1172 3844 1172 3481 
z
" transform="scale(0.015625)"/>
       </defs>
       <use xlink:href="#DejaVuSans-38"/>
       <use xlink:href="#DejaVuSans-30" transform="translate(63.623047 0)"/>
       <use xlink:href="#DejaVuSans-30" transform="translate(127.246094 0)"/>
       <use xlink:href="#DejaVuSans-30" transform="translate(190.869141 0)"/>
      </g>
     </g>
    </g>
    <g id="xtick_6">
     <g id="line2d_11">
      <path d="M 432.000909 303.64 
L 432.000909 26.88 
" clip-path="url(#p5f9489e6fa)" style="fill: none; stroke: #b0b0b0; stroke-width: 0.8; stroke-linecap: square"/>
     </g>
     <g id="line2d_12">
      <g>
       <use xlink:href="#m23b94ea938" x="432.000909" y="303.64" style="stroke: #000000; stroke-width: 0.8"/>
      </g>
     </g>
     <g id="text_6">
      <!-- 10000 -->
      <g transform="translate(416.094659 318.238437) scale(0.1 -0.1)">
       <defs>
        <path id="DejaVuSans-31" d="M 794 531 
L 1825 531 
L 1825 4091 
L 703 3866 
L 703 4441 
L 1819 4666 
L 2450 4666 
L 2450 531 
L 3481 531 
L 3481 0 
L 794 0 
L 794 531 
z
" transform="scale(0.015625)"/>
       </defs>
       <use xlink:href="#DejaVuSans-31"/>
       <use xlink:href="#DejaVuSans-30" transform="translate(63.623047 0)"/>
       <use xlink:href="#DejaVuSans-30" transform="translate(127.246094 0)"/>
       <use xlink:href="#DejaVuSans-30" transform="translate(190.869141 0)"/>
       <use xlink:href="#DejaVuSans-30" transform="translate(254.492188 0)"/>
      </g>
     </g>
    </g>
    <g id="text_7">
     <!-- Step -->
     <g transform="translate(240.624844 331.916562) scale(0.1 -0.1)">
      <defs>
       <path id="DejaVuSans-53" d="M 3425 4513 
L 3425 3897 
Q 3066 4069 2747 4153 
Q 2428 4238 2131 4238 
Q 1616 4238 1336 4038 
Q 1056 3838 1056 3469 
Q 1056 3159 1242 3001 
Q 1428 2844 1947 2747 
L 2328 2669 
Q 3034 2534 3370 2195 
Q 3706 1856 3706 1288 
Q 3706 609 3251 259 
Q 2797 -91 1919 -91 
Q 1588 -91 1214 -16 
Q 841 59 441 206 
L 441 856 
Q 825 641 1194 531 
Q 1563 422 1919 422 
Q 2459 422 2753 634 
Q 3047 847 3047 1241 
Q 3047 1584 2836 1778 
Q 2625 1972 2144 2069 
L 1759 2144 
Q 1053 2284 737 2584 
Q 422 2884 422 3419 
Q 422 4038 858 4394 
Q 1294 4750 2059 4750 
Q 2388 4750 2728 4690 
Q 3069 4631 3425 4513 
z
" transform="scale(0.015625)"/>
       <path id="DejaVuSans-74" d="M 1172 4494 
L 1172 3500 
L 2356 3500 
L 2356 3053 
L 1172 3053 
L 1172 1153 
Q 1172 725 1289 603 
Q 1406 481 1766 481 
L 2356 481 
L 2356 0 
L 1766 0 
Q 1100 0 847 248 
Q 594 497 594 1153 
L 594 3053 
L 172 3053 
L 172 3500 
L 594 3500 
L 594 4494 
L 1172 4494 
z
" transform="scale(0.015625)"/>
       <path id="DejaVuSans-65" d="M 3597 1894 
L 3597 1613 
L 953 1613 
Q 991 1019 1311 708 
Q 1631 397 2203 397 
Q 2534 397 2845 478 
Q 3156 559 3463 722 
L 3463 178 
Q 3153 47 2828 -22 
Q 2503 -91 2169 -91 
Q 1331 -91 842 396 
Q 353 884 353 1716 
Q 353 2575 817 3079 
Q 1281 3584 2069 3584 
Q 2775 3584 3186 3129 
Q 3597 2675 3597 1894 
z
M 3022 2063 
Q 3016 2534 2758 2815 
Q 2500 3097 2075 3097 
Q 1594 3097 1305 2825 
Q 1016 2553 972 2059 
L 3022 2063 
z
" transform="scale(0.015625)"/>
       <path id="DejaVuSans-70" d="M 1159 525 
L 1159 -1331 
L 581 -1331 
L 581 3500 
L 1159 3500 
L 1159 2969 
Q 1341 3281 1617 3432 
Q 1894 3584 2278 3584 
Q 2916 3584 3314 3078 
Q 3713 2572 3713 1747 
Q 3713 922 3314 415 
Q 2916 -91 2278 -91 
Q 1894 -91 1617 61 
Q 1341 213 1159 525 
z
M 3116 1747 
Q 3116 2381 2855 2742 
Q 2594 3103 2138 3103 
Q 1681 3103 1420 2742 
Q 1159 2381 1159 1747 
Q 1159 1113 1420 752 
Q 1681 391 2138 391 
Q 2594 391 2855 752 
Q 3116 1113 3116 1747 
z
" transform="scale(0.015625)"/>
      </defs>
      <use xlink:href="#DejaVuSans-53"/>
      <use xlink:href="#DejaVuSans-74" transform="translate(63.476562 0)"/>
      <use xlink:href="#DejaVuSans-65" transform="translate(102.685547 0)"/>
      <use xlink:href="#DejaVuSans-70" transform="translate(164.208984 0)"/>
     </g>
    </g>
   </g>
   <g id="matplotlib.axis_2">
    <g id="ytick_1">
     <g id="line2d_13">
      <path d="M 54.02 272.568963 
L 450 272.568963 
" clip-path="url(#p5f9489e6fa)" style="fill: none; stroke: #b0b0b0; stroke-width: 0.8; stroke-linecap: square"/>
     </g>
     <g id="line2d_14">
      <defs>
       <path id="m3545f00ca7" d="M 0 0 
L -3.5 0 
" style="stroke: #000000; stroke-width: 0.8"/>
      </defs>
      <g>
       <use xlink:href="#m3545f00ca7" x="54.02" y="272.568963" style="stroke: #000000; stroke-width: 0.8"/>
      </g>
     </g>
     <g id="text_8">
      <!-- 1.50 -->
      <g transform="translate(24.754375 276.368182) scale(0.1 -0.1)">
       <defs>
        <path id="DejaVuSans-2e" d="M 684 794 
L 1344 794 
L 1344 0 
L 684 0 
L 684 794 
z
" transform="scale(0.015625)"/>
        <path id="DejaVuSans-35" d="M 691 4666 
L 3169 4666 
L 3169 4134 
L 1269 4134 
L 1269 2991 
Q 1406 3038 1543 3061 
Q 1681 3084 1819 3084 
Q 2600 3084 3056 2656 
Q 3513 2228 3513 1497 
Q 3513 744 3044 326 
Q 2575 -91 1722 -91 
Q 1428 -91 1123 -41 
Q 819 9 494 109 
L 494 744 
Q 775 591 1075 516 
Q 1375 441 1709 441 
Q 2250 441 2565 725 
Q 2881 1009 2881 1497 
Q 2881 1984 2565 2268 
Q 2250 2553 1709 2553 
Q 1456 2553 1204 2497 
Q 953 2441 691 2322 
L 691 4666 
z
" transform="scale(0.015625)"/>
       </defs>
       <use xlink:href="#DejaVuSans-31"/>
       <use xlink:href="#DejaVuSans-2e" transform="translate(63.623047 0)"/>
       <use xlink:href="#DejaVuSans-35" transform="translate(95.410156 0)"/>
       <use xlink:href="#DejaVuSans-30" transform="translate(159.033203 0)"/>
      </g>
     </g>
    </g>
    <g id="ytick_2">
     <g id="line2d_15">
      <path d="M 54.02 238.659745 
L 450 238.659745 
" clip-path="url(#p5f9489e6fa)" style="fill: none; stroke: #b0b0b0; stroke-width: 0.8; stroke-linecap: square"/>
     </g>
     <g id="line2d_16">
      <g>
       <use xlink:href="#m3545f00ca7" x="54.02" y="238.659745" style="stroke: #000000; stroke-width: 0.8"/>
      </g>
     </g>
     <g id="text_9">
      <!-- 1.75 -->
      <g transform="translate(24.754375 242.458964) scale(0.1 -0.1)">
       <defs>
        <path id="DejaVuSans-37" d="M 525 4666 
L 3525 4666 
L 3525 4397 
L 1831 0 
L 1172 0 
L 2766 4134 
L 525 4134 
L 525 4666 
z
" transform="scale(0.015625)"/>
       </defs>
       <use xlink:href="#DejaVuSans-31"/>
       <use xlink:href="#DejaVuSans-2e" transform="translate(63.623047 0)"/>
       <use xlink:href="#DejaVuSans-37" transform="translate(95.410156 0)"/>
       <use xlink:href="#DejaVuSans-35" transform="translate(159.033203 0)"/>
      </g>
     </g>
    </g>
    <g id="ytick_3">
     <g id="line2d_17">
      <path d="M 54.02 204.750527 
L 450 204.750527 
" clip-path="url(#p5f9489e6fa)" style="fill: none; stroke: #b0b0b0; stroke-width: 0.8; stroke-linecap: square"/>
     </g>
     <g id="line2d_18">
      <g>
       <use xlink:href="#m3545f00ca7" x="54.02" y="204.750527" style="stroke: #000000; stroke-width: 0.8"/>
      </g>
     </g>
     <g id="text_10">
      <!-- 2.00 -->
      <g transform="translate(24.754375 208.549745) scale(0.1 -0.1)">
       <use xlink:href="#DejaVuSans-32"/>
       <use xlink:href="#DejaVuSans-2e" transform="translate(63.623047 0)"/>
       <use xlink:href="#DejaVuSans-30" transform="translate(95.410156 0)"/>
       <use xlink:href="#DejaVuSans-30" transform="translate(159.033203 0)"/>
      </g>
     </g>
    </g>
    <g id="ytick_4">
     <g id="line2d_19">
      <path d="M 54.02 170.841308 
L 450 170.841308 
" clip-path="url(#p5f9489e6fa)" style="fill: none; stroke: #b0b0b0; stroke-width: 0.8; stroke-linecap: square"/>
     </g>
     <g id="line2d_20">
      <g>
       <use xlink:href="#m3545f00ca7" x="54.02" y="170.841308" style="stroke: #000000; stroke-width: 0.8"/>
      </g>
     </g>
     <g id="text_11">
      <!-- 2.25 -->
      <g transform="translate(24.754375 174.640527) scale(0.1 -0.1)">
       <use xlink:href="#DejaVuSans-32"/>
       <use xlink:href="#DejaVuSans-2e" transform="translate(63.623047 0)"/>
       <use xlink:href="#DejaVuSans-32" transform="translate(95.410156 0)"/>
       <use xlink:href="#DejaVuSans-35" transform="translate(159.033203 0)"/>
      </g>
     </g>
    </g>
    <g id="ytick_5">
     <g id="line2d_21">
      <path d="M 54.02 136.93209 
L 450 136.93209 
" clip-path="url(#p5f9489e6fa)" style="fill: none; stroke: #b0b0b0; stroke-width: 0.8; stroke-linecap: square"/>
     </g>
     <g id="line2d_22">
      <g>
       <use xlink:href="#m3545f00ca7" x="54.02" y="136.93209" style="stroke: #000000; stroke-width: 0.8"/>
      </g>
     </g>
     <g id="text_12">
      <!-- 2.50 -->
      <g transform="translate(24.754375 140.731309) scale(0.1 -0.1)">
       <use xlink:href="#DejaVuSans-32"/>
       <use xlink:href="#DejaVuSans-2e" transform="translate(63.623047 0)"/>
       <use xlink:href="#DejaVuSans-35" transform="translate(95.410156 0)"/>
       <use xlink:href="#DejaVuSans-30" transform="translate(159.033203 0)"/>
      </g>
     </g>
    </g>
    <g id="ytick_6">
     <g id="line2d_23">
      <path d="M 54.02 103.022872 
L 450 103.022872 
" clip-path="url(#p5f9489e6fa)" style="fill: none; stroke: #b0b0b0; stroke-width: 0.8; stroke-linecap: square"/>
     </g>
     <g id="line2d_24">
      <g>
       <use xlink:href="#m3545f00ca7" x="54.02" y="103.022872" style="stroke: #000000; stroke-width: 0.8"/>
      </g>
     </g>
     <g id="text_13">
      <!-- 2.75 -->
      <g transform="translate(24.754375 106.82209) scale(0.1 -0.1)">
       <use xlink:href="#DejaVuSans-32"/>
       <use xlink:href="#DejaVuSans-2e" transform="translate(63.623047 0)"/>
       <use xlink:href="#DejaVuSans-37" transform="translate(95.410156 0)"/>
       <use xlink:href="#DejaVuSans-35" transform="translate(159.033203 0)"/>
      </g>
     </g>
    </g>
    <g id="ytick_7">
     <g id="line2d_25">
      <path d="M 54.02 69.113653 
L 450 69.113653 
" clip-path="url(#p5f9489e6fa)" style="fill: none; stroke: #b0b0b0; stroke-width: 0.8; stroke-linecap: square"/>
     </g>
     <g id="line2d_26">
      <g>
       <use xlink:href="#m3545f00ca7" x="54.02" y="69.113653" style="stroke: #000000; stroke-width: 0.8"/>
      </g>
     </g>
     <g id="text_14">
      <!-- 3.00 -->
      <g transform="translate(24.754375 72.912872) scale(0.1 -0.1)">
       <defs>
        <path id="DejaVuSans-33" d="M 2597 2516 
Q 3050 2419 3304 2112 
Q 3559 1806 3559 1356 
Q 3559 666 3084 287 
Q 2609 -91 1734 -91 
Q 1441 -91 1130 -33 
Q 819 25 488 141 
L 488 750 
Q 750 597 1062 519 
Q 1375 441 1716 441 
Q 2309 441 2620 675 
Q 2931 909 2931 1356 
Q 2931 1769 2642 2001 
Q 2353 2234 1838 2234 
L 1294 2234 
L 1294 2753 
L 1863 2753 
Q 2328 2753 2575 2939 
Q 2822 3125 2822 3475 
Q 2822 3834 2567 4026 
Q 2313 4219 1838 4219 
Q 1578 4219 1281 4162 
Q 984 4106 628 3988 
L 628 4550 
Q 988 4650 1302 4700 
Q 1616 4750 1894 4750 
Q 2613 4750 3031 4423 
Q 3450 4097 3450 3541 
Q 3450 3153 3228 2886 
Q 3006 2619 2597 2516 
z
" transform="scale(0.015625)"/>
       </defs>
       <use xlink:href="#DejaVuSans-33"/>
       <use xlink:href="#DejaVuSans-2e" transform="translate(63.623047 0)"/>
       <use xlink:href="#DejaVuSans-30" transform="translate(95.410156 0)"/>
       <use xlink:href="#DejaVuSans-30" transform="translate(159.033203 0)"/>
      </g>
     </g>
    </g>
    <g id="ytick_8">
     <g id="line2d_27">
      <path d="M 54.02 35.204435 
L 450 35.204435 
" clip-path="url(#p5f9489e6fa)" style="fill: none; stroke: #b0b0b0; stroke-width: 0.8; stroke-linecap: square"/>
     </g>
     <g id="line2d_28">
      <g>
       <use xlink:href="#m3545f00ca7" x="54.02" y="35.204435" style="stroke: #000000; stroke-width: 0.8"/>
      </g>
     </g>
     <g id="text_15">
      <!-- 3.25 -->
      <g transform="translate(24.754375 39.003653) scale(0.1 -0.1)">
       <use xlink:href="#DejaVuSans-33"/>
       <use xlink:href="#DejaVuSans-2e" transform="translate(63.623047 0)"/>
       <use xlink:href="#DejaVuSans-32" transform="translate(95.410156 0)"/>
       <use xlink:href="#DejaVuSans-35" transform="translate(159.033203 0)"/>
      </g>
     </g>
    </g>
    <g id="text_16">
     <!-- Valid loss -->
     <g transform="translate(18.674688 188.556094) rotate(-90) scale(0.1 -0.1)">
      <defs>
       <path id="DejaVuSans-56" d="M 1831 0 
L 50 4666 
L 709 4666 
L 2188 738 
L 3669 4666 
L 4325 4666 
L 2547 0 
L 1831 0 
z
" transform="scale(0.015625)"/>
       <path id="DejaVuSans-61" d="M 2194 1759 
Q 1497 1759 1228 1600 
Q 959 1441 959 1056 
Q 959 750 1161 570 
Q 1363 391 1709 391 
Q 2188 391 2477 730 
Q 2766 1069 2766 1631 
L 2766 1759 
L 2194 1759 
z
M 3341 1997 
L 3341 0 
L 2766 0 
L 2766 531 
Q 2569 213 2275 61 
Q 1981 -91 1556 -91 
Q 1019 -91 701 211 
Q 384 513 384 1019 
Q 384 1609 779 1909 
Q 1175 2209 1959 2209 
L 2766 2209 
L 2766 2266 
Q 2766 2663 2505 2880 
Q 2244 3097 1772 3097 
Q 1472 3097 1187 3025 
Q 903 2953 641 2809 
L 641 3341 
Q 956 3463 1253 3523 
Q 1550 3584 1831 3584 
Q 2591 3584 2966 3190 
Q 3341 2797 3341 1997 
z
" transform="scale(0.015625)"/>
       <path id="DejaVuSans-6c" d="M 603 4863 
L 1178 4863 
L 1178 0 
L 603 0 
L 603 4863 
z
" transform="scale(0.015625)"/>
       <path id="DejaVuSans-69" d="M 603 3500 
L 1178 3500 
L 1178 0 
L 603 0 
L 603 3500 
z
M 603 4863 
L 1178 4863 
L 1178 4134 
L 603 4134 
L 603 4863 
z
" transform="scale(0.015625)"/>
       <path id="DejaVuSans-64" d="M 2906 2969 
L 2906 4863 
L 3481 4863 
L 3481 0 
L 2906 0 
L 2906 525 
Q 2725 213 2448 61 
Q 2172 -91 1784 -91 
Q 1150 -91 751 415 
Q 353 922 353 1747 
Q 353 2572 751 3078 
Q 1150 3584 1784 3584 
Q 2172 3584 2448 3432 
Q 2725 3281 2906 2969 
z
M 947 1747 
Q 947 1113 1208 752 
Q 1469 391 1925 391 
Q 2381 391 2643 752 
Q 2906 1113 2906 1747 
Q 2906 2381 2643 2742 
Q 2381 3103 1925 3103 
Q 1469 3103 1208 2742 
Q 947 2381 947 1747 
z
" transform="scale(0.015625)"/>
       <path id="DejaVuSans-20" transform="scale(0.015625)"/>
       <path id="DejaVuSans-6f" d="M 1959 3097 
Q 1497 3097 1228 2736 
Q 959 2375 959 1747 
Q 959 1119 1226 758 
Q 1494 397 1959 397 
Q 2419 397 2687 759 
Q 2956 1122 2956 1747 
Q 2956 2369 2687 2733 
Q 2419 3097 1959 3097 
z
M 1959 3584 
Q 2709 3584 3137 3096 
Q 3566 2609 3566 1747 
Q 3566 888 3137 398 
Q 2709 -91 1959 -91 
Q 1206 -91 779 398 
Q 353 888 353 1747 
Q 353 2609 779 3096 
Q 1206 3584 1959 3584 
z
" transform="scale(0.015625)"/>
       <path id="DejaVuSans-73" d="M 2834 3397 
L 2834 2853 
Q 2591 2978 2328 3040 
Q 2066 3103 1784 3103 
Q 1356 3103 1142 2972 
Q 928 2841 928 2578 
Q 928 2378 1081 2264 
Q 1234 2150 1697 2047 
L 1894 2003 
Q 2506 1872 2764 1633 
Q 3022 1394 3022 966 
Q 3022 478 2636 193 
Q 2250 -91 1575 -91 
Q 1294 -91 989 -36 
Q 684 19 347 128 
L 347 722 
Q 666 556 975 473 
Q 1284 391 1588 391 
Q 1994 391 2212 530 
Q 2431 669 2431 922 
Q 2431 1156 2273 1281 
Q 2116 1406 1581 1522 
L 1381 1569 
Q 847 1681 609 1914 
Q 372 2147 372 2553 
Q 372 3047 722 3315 
Q 1072 3584 1716 3584 
Q 2034 3584 2315 3537 
Q 2597 3491 2834 3397 
z
" transform="scale(0.015625)"/>
      </defs>
      <use xlink:href="#DejaVuSans-56"/>
      <use xlink:href="#DejaVuSans-61" transform="translate(60.658203 0)"/>
      <use xlink:href="#DejaVuSans-6c" transform="translate(121.9375 0)"/>
      <use xlink:href="#DejaVuSans-69" transform="translate(149.720703 0)"/>
      <use xlink:href="#DejaVuSans-64" transform="translate(177.503906 0)"/>
      <use xlink:href="#DejaVuSans-20" transform="translate(240.980469 0)"/>
      <use xlink:href="#DejaVuSans-6c" transform="translate(272.767578 0)"/>
      <use xlink:href="#DejaVuSans-6f" transform="translate(300.550781 0)"/>
      <use xlink:href="#DejaVuSans-73" transform="translate(361.732422 0)"/>
      <use xlink:href="#DejaVuSans-73" transform="translate(413.832031 0)"/>
     </g>
    </g>
   </g>
   <g id="line2d_29">
    <path d="M 72.019091 39.46 
L 75.655271 134.72089 
L 79.291451 169.236 
L 82.927631 187.069663 
L 86.563811 202.06321 
L 90.199991 209.288196 
L 93.836171 216.794525 
L 97.472351 221.977231 
L 101.108531 227.577538 
L 104.744711 230.42003 
L 108.380891 233.582592 
L 112.017071 235.795262 
L 115.653251 239.145839 
L 119.289431 242.163136 
L 122.925611 244.284775 
L 126.561791 244.897878 
L 130.197971 249.161139 
L 133.834151 249.420574 
L 137.470331 249.471345 
L 141.106511 252.715965 
L 144.742691 254.13329 
L 148.378871 254.032653 
L 152.015051 256.178012 
L 155.65123 257.527443 
L 159.28741 257.191011 
L 162.92359 259.077905 
L 166.55977 260.341946 
L 170.19595 259.918298 
L 173.83213 261.076334 
L 177.46831 264.000465 
L 181.10449 262.728856 
L 184.74067 265.717954 
L 188.37685 265.742014 
L 192.01303 265.9337 
L 195.64921 266.457064 
L 199.28539 268.168409 
L 202.92157 267.663882 
L 206.55775 269.987134 
L 210.19393 270.037517 
L 213.83011 269.03671 
L 217.46629 270.0749 
L 221.10247 271.630763 
L 224.73865 272.565245 
L 228.37483 273.418734 
L 232.01101 273.835075 
L 235.64719 273.897116 
L 239.28337 275.452315 
L 242.91955 274.371228 
L 246.55573 275.670357 
L 250.19191 277.142237 
L 253.82809 275.984944 
L 257.46427 276.314892 
L 261.10045 278.113632 
L 264.73663 277.343963 
L 268.37281 277.326679 
L 272.00899 279.427734 
L 275.64517 280.261465 
L 279.28135 279.561129 
L 282.91753 280.134149 
L 286.55371 280.704581 
L 290.18989 280.337104 
L 293.82607 281.028029 
L 297.46225 281.236029 
L 301.09843 281.810213 
L 304.73461 282.983254 
L 308.37079 283.864749 
L 312.00697 284.012325 
L 315.64315 283.926855 
L 319.27933 283.604345 
L 322.91551 284.971885 
L 326.55169 285.084665 
L 330.18787 286.095303 
L 333.82405 285.231206 
L 337.46023 283.506651 
L 341.09641 286.039665 
L 344.73259 285.957623 
L 348.36877 286.228198 
L 352.004949 287.295476 
L 355.641129 286.648823 
L 359.277309 288.005804 
L 362.913489 287.372312 
L 366.549669 287.150552 
L 370.185849 288.075154 
L 373.822029 287.848656 
L 377.458209 289.012918 
L 381.094389 288.303819 
L 384.730569 289.430729 
L 388.366749 289.206075 
L 392.002929 289.063527 
L 395.639109 289.732187 
L 399.275289 289.22517 
L 402.911469 288.746498 
L 406.547649 289.035474 
L 410.183829 290.665375 
L 413.820009 288.939332 
L 417.456189 290.754015 
L 421.092369 289.690859 
L 424.728549 291.06 
L 428.364729 289.695354 
L 432.000909 290.25796 
" clip-path="url(#p5f9489e6fa)" style="fill: none; stroke: #000000; stroke-width: 1.5; stroke-linecap: square"/>
   </g>
   <g id="line2d_30">
    <path d="M 72.019091 52.833622 
L 75.655271 138.894607 
L 79.291451 172.199681 
L 82.927631 189.325651 
L 86.563811 201.277711 
L 90.199991 208.969727 
L 93.836171 215.840754 
L 97.472351 219.651036 
L 101.108531 226.331541 
L 104.744711 227.280526 
L 108.380891 229.987392 
L 112.017071 233.883678 
L 115.653251 235.062718 
L 119.289431 237.002841 
L 122.925611 239.586045 
L 126.561791 239.893906 
L 130.197971 244.081625 
L 133.834151 245.218803 
L 137.470331 246.110226 
L 141.106511 249.194755 
L 144.742691 249.798561 
L 148.378871 250.586145 
L 152.015051 251.914184 
L 155.65123 252.623218 
L 159.28741 254.434781 
L 162.92359 254.833577 
L 166.55977 257.582693 
L 170.19595 256.62766 
L 173.83213 259.305227 
L 177.46831 257.980713 
L 181.10449 259.602303 
L 184.74067 262.178991 
L 188.37685 261.884825 
L 192.01303 262.165668 
L 195.64921 263.343188 
L 199.28539 264.000788 
L 202.92157 264.904693 
L 206.55775 264.052917 
L 210.19393 266.298476 
L 213.83011 266.648507 
L 217.46629 267.670576 
L 221.10247 268.84171 
L 224.73865 268.969996 
L 228.37483 269.774024 
L 232.01101 269.783952 
L 235.64719 270.337553 
L 239.28337 272.423101 
L 242.91955 271.838618 
L 246.55573 271.311357 
L 250.19191 273.512128 
L 253.82809 273.894189 
L 257.46427 272.816691 
L 261.10045 273.760987 
L 264.73663 275.888916 
L 268.37281 275.270913 
L 272.00899 275.749683 
L 275.64517 276.027146 
L 279.28135 276.312241 
L 282.91753 277.025447 
L 286.55371 278.229387 
L 290.18989 278.509438 
L 293.82607 278.384482 
L 297.46225 280.12186 
L 301.09843 280.988108 
L 304.73461 281.040948 
L 308.37079 280.218665 
L 312.00697 281.927294 
L 315.64315 281.557634 
L 319.27933 282.753377 
L 322.91551 282.18993 
L 326.55169 282.2364 
L 330.18787 282.789208 
L 333.82405 282.949396 
L 337.46023 283.966955 
L 341.09641 285.136568 
L 344.73259 284.158414 
L 348.36877 284.557663 
L 352.004949 284.117506 
L 355.641129 286.569949 
L 359.277309 286.571582 
L 362.913489 284.929651 
L 366.549669 286.210395 
L 370.185849 286.52888 
L 373.822029 286.71316 
L 377.458209 286.524708 
L 381.094389 286.994633 
L 384.730569 286.807475 
L 388.366749 287.963635 
L 392.002929 288.02828 
L 395.639109 289.633216 
L 399.275289 287.441048 
L 402.911469 287.458268 
L 406.547649 287.728341 
L 410.183829 288.933527 
L 413.820009 288.559712 
L 417.456189 289.025627 
L 421.092369 288.122239 
L 424.728549 288.041571 
L 428.364729 289.842396 
L 432.000909 289.316817 
" clip-path="url(#p5f9489e6fa)" style="fill: none; stroke: #ff0000; stroke-width: 1.5; stroke-linecap: square"/>
   </g>
   <g id="patch_3">
    <path d="M 54.02 303.64 
L 54.02 26.88 
" style="fill: none; stroke: #000000; stroke-width: 0.8; stroke-linejoin: miter; stroke-linecap: square"/>
   </g>
   <g id="patch_4">
    <path d="M 450 303.64 
L 450 26.88 
" style="fill: none; stroke: #000000; stroke-width: 0.8; stroke-linejoin: miter; stroke-linecap: square"/>
   </g>
   <g id="patch_5">
    <path d="M 54.02 303.64 
L 450 303.64 
" style="fill: none; stroke: #000000; stroke-width: 0.8; stroke-linejoin: miter; stroke-linecap: square"/>
   </g>
   <g id="patch_6">
    <path d="M 54.02 26.88 
L 450 26.88 
" style="fill: none; stroke: #000000; stroke-width: 0.8; stroke-linejoin: miter; stroke-linecap: square"/>
   </g>
   <g id="text_17">
    <!-- Pre-norm vs Post-norm learning curve at valid set -->
    <g transform="translate(103.351563 20.88) scale(0.12 -0.12)">
     <defs>
      <path id="DejaVuSans-50" d="M 1259 4147 
L 1259 2394 
L 2053 2394 
Q 2494 2394 2734 2622 
Q 2975 2850 2975 3272 
Q 2975 3691 2734 3919 
Q 2494 4147 2053 4147 
L 1259 4147 
z
M 628 4666 
L 2053 4666 
Q 2838 4666 3239 4311 
Q 3641 3956 3641 3272 
Q 3641 2581 3239 2228 
Q 2838 1875 2053 1875 
L 1259 1875 
L 1259 0 
L 628 0 
L 628 4666 
z
" transform="scale(0.015625)"/>
      <path id="DejaVuSans-72" d="M 2631 2963 
Q 2534 3019 2420 3045 
Q 2306 3072 2169 3072 
Q 1681 3072 1420 2755 
Q 1159 2438 1159 1844 
L 1159 0 
L 581 0 
L 581 3500 
L 1159 3500 
L 1159 2956 
Q 1341 3275 1631 3429 
Q 1922 3584 2338 3584 
Q 2397 3584 2469 3576 
Q 2541 3569 2628 3553 
L 2631 2963 
z
" transform="scale(0.015625)"/>
      <path id="DejaVuSans-2d" d="M 313 2009 
L 1997 2009 
L 1997 1497 
L 313 1497 
L 313 2009 
z
" transform="scale(0.015625)"/>
      <path id="DejaVuSans-6e" d="M 3513 2113 
L 3513 0 
L 2938 0 
L 2938 2094 
Q 2938 2591 2744 2837 
Q 2550 3084 2163 3084 
Q 1697 3084 1428 2787 
Q 1159 2491 1159 1978 
L 1159 0 
L 581 0 
L 581 3500 
L 1159 3500 
L 1159 2956 
Q 1366 3272 1645 3428 
Q 1925 3584 2291 3584 
Q 2894 3584 3203 3211 
Q 3513 2838 3513 2113 
z
" transform="scale(0.015625)"/>
      <path id="DejaVuSans-6d" d="M 3328 2828 
Q 3544 3216 3844 3400 
Q 4144 3584 4550 3584 
Q 5097 3584 5394 3201 
Q 5691 2819 5691 2113 
L 5691 0 
L 5113 0 
L 5113 2094 
Q 5113 2597 4934 2840 
Q 4756 3084 4391 3084 
Q 3944 3084 3684 2787 
Q 3425 2491 3425 1978 
L 3425 0 
L 2847 0 
L 2847 2094 
Q 2847 2600 2669 2842 
Q 2491 3084 2119 3084 
Q 1678 3084 1418 2786 
Q 1159 2488 1159 1978 
L 1159 0 
L 581 0 
L 581 3500 
L 1159 3500 
L 1159 2956 
Q 1356 3278 1631 3431 
Q 1906 3584 2284 3584 
Q 2666 3584 2933 3390 
Q 3200 3197 3328 2828 
z
" transform="scale(0.015625)"/>
      <path id="DejaVuSans-76" d="M 191 3500 
L 800 3500 
L 1894 563 
L 2988 3500 
L 3597 3500 
L 2284 0 
L 1503 0 
L 191 3500 
z
" transform="scale(0.015625)"/>
      <path id="DejaVuSans-67" d="M 2906 1791 
Q 2906 2416 2648 2759 
Q 2391 3103 1925 3103 
Q 1463 3103 1205 2759 
Q 947 2416 947 1791 
Q 947 1169 1205 825 
Q 1463 481 1925 481 
Q 2391 481 2648 825 
Q 2906 1169 2906 1791 
z
M 3481 434 
Q 3481 -459 3084 -895 
Q 2688 -1331 1869 -1331 
Q 1566 -1331 1297 -1286 
Q 1028 -1241 775 -1147 
L 775 -588 
Q 1028 -725 1275 -790 
Q 1522 -856 1778 -856 
Q 2344 -856 2625 -561 
Q 2906 -266 2906 331 
L 2906 616 
Q 2728 306 2450 153 
Q 2172 0 1784 0 
Q 1141 0 747 490 
Q 353 981 353 1791 
Q 353 2603 747 3093 
Q 1141 3584 1784 3584 
Q 2172 3584 2450 3431 
Q 2728 3278 2906 2969 
L 2906 3500 
L 3481 3500 
L 3481 434 
z
" transform="scale(0.015625)"/>
      <path id="DejaVuSans-63" d="M 3122 3366 
L 3122 2828 
Q 2878 2963 2633 3030 
Q 2388 3097 2138 3097 
Q 1578 3097 1268 2742 
Q 959 2388 959 1747 
Q 959 1106 1268 751 
Q 1578 397 2138 397 
Q 2388 397 2633 464 
Q 2878 531 3122 666 
L 3122 134 
Q 2881 22 2623 -34 
Q 2366 -91 2075 -91 
Q 1284 -91 818 406 
Q 353 903 353 1747 
Q 353 2603 823 3093 
Q 1294 3584 2113 3584 
Q 2378 3584 2631 3529 
Q 2884 3475 3122 3366 
z
" transform="scale(0.015625)"/>
      <path id="DejaVuSans-75" d="M 544 1381 
L 544 3500 
L 1119 3500 
L 1119 1403 
Q 1119 906 1312 657 
Q 1506 409 1894 409 
Q 2359 409 2629 706 
Q 2900 1003 2900 1516 
L 2900 3500 
L 3475 3500 
L 3475 0 
L 2900 0 
L 2900 538 
Q 2691 219 2414 64 
Q 2138 -91 1772 -91 
Q 1169 -91 856 284 
Q 544 659 544 1381 
z
M 1991 3584 
L 1991 3584 
z
" transform="scale(0.015625)"/>
     </defs>
     <use xlink:href="#DejaVuSans-50"/>
     <use xlink:href="#DejaVuSans-72" transform="translate(58.552734 0)"/>
     <use xlink:href="#DejaVuSans-65" transform="translate(97.416016 0)"/>
     <use xlink:href="#DejaVuSans-2d" transform="translate(158.939453 0)"/>
     <use xlink:href="#DejaVuSans-6e" transform="translate(195.023438 0)"/>
     <use xlink:href="#DejaVuSans-6f" transform="translate(258.402344 0)"/>
     <use xlink:href="#DejaVuSans-72" transform="translate(319.583984 0)"/>
     <use xlink:href="#DejaVuSans-6d" transform="translate(358.947266 0)"/>
     <use xlink:href="#DejaVuSans-20" transform="translate(456.359375 0)"/>
     <use xlink:href="#DejaVuSans-76" transform="translate(488.146484 0)"/>
     <use xlink:href="#DejaVuSans-73" transform="translate(547.326172 0)"/>
     <use xlink:href="#DejaVuSans-20" transform="translate(599.425781 0)"/>
     <use xlink:href="#DejaVuSans-50" transform="translate(631.212891 0)"/>
     <use xlink:href="#DejaVuSans-6f" transform="translate(687.890625 0)"/>
     <use xlink:href="#DejaVuSans-73" transform="translate(749.072266 0)"/>
     <use xlink:href="#DejaVuSans-74" transform="translate(801.171875 0)"/>
     <use xlink:href="#DejaVuSans-2d" transform="translate(840.380859 0)"/>
     <use xlink:href="#DejaVuSans-6e" transform="translate(876.464844 0)"/>
     <use xlink:href="#DejaVuSans-6f" transform="translate(939.84375 0)"/>
     <use xlink:href="#DejaVuSans-72" transform="translate(1001.025391 0)"/>
     <use xlink:href="#DejaVuSans-6d" transform="translate(1040.388672 0)"/>
     <use xlink:href="#DejaVuSans-20" transform="translate(1137.800781 0)"/>
     <use xlink:href="#DejaVuSans-6c" transform="translate(1169.587891 0)"/>
     <use xlink:href="#DejaVuSans-65" transform="translate(1197.371094 0)"/>
     <use xlink:href="#DejaVuSans-61" transform="translate(1258.894531 0)"/>
     <use xlink:href="#DejaVuSans-72" transform="translate(1320.173828 0)"/>
     <use xlink:href="#DejaVuSans-6e" transform="translate(1359.537109 0)"/>
     <use xlink:href="#DejaVuSans-69" transform="translate(1422.916016 0)"/>
     <use xlink:href="#DejaVuSans-6e" transform="translate(1450.699219 0)"/>
     <use xlink:href="#DejaVuSans-67" transform="translate(1514.078125 0)"/>
     <use xlink:href="#DejaVuSans-20" transform="translate(1577.554688 0)"/>
     <use xlink:href="#DejaVuSans-63" transform="translate(1609.341797 0)"/>
     <use xlink:href="#DejaVuSans-75" transform="translate(1664.322266 0)"/>
     <use xlink:href="#DejaVuSans-72" transform="translate(1727.701172 0)"/>
     <use xlink:href="#DejaVuSans-76" transform="translate(1768.814453 0)"/>
     <use xlink:href="#DejaVuSans-65" transform="translate(1827.994141 0)"/>
     <use xlink:href="#DejaVuSans-20" transform="translate(1889.517578 0)"/>
     <use xlink:href="#DejaVuSans-61" transform="translate(1921.304688 0)"/>
     <use xlink:href="#DejaVuSans-74" transform="translate(1982.583984 0)"/>
     <use xlink:href="#DejaVuSans-20" transform="translate(2021.792969 0)"/>
     <use xlink:href="#DejaVuSans-76" transform="translate(2053.580078 0)"/>
     <use xlink:href="#DejaVuSans-61" transform="translate(2112.759766 0)"/>
     <use xlink:href="#DejaVuSans-6c" transform="translate(2174.039062 0)"/>
     <use xlink:href="#DejaVuSans-69" transform="translate(2201.822266 0)"/>
     <use xlink:href="#DejaVuSans-64" transform="translate(2229.605469 0)"/>
     <use xlink:href="#DejaVuSans-20" transform="translate(2293.082031 0)"/>
     <use xlink:href="#DejaVuSans-73" transform="translate(2324.869141 0)"/>
     <use xlink:href="#DejaVuSans-65" transform="translate(2376.96875 0)"/>
     <use xlink:href="#DejaVuSans-74" transform="translate(2438.492188 0)"/>
    </g>
   </g>
   <g id="legend_1">
    <g id="patch_7">
     <path d="M 310.039062 64.23625 
L 443 64.23625 
Q 445 64.23625 445 62.23625 
L 445 33.88 
Q 445 31.88 443 31.88 
L 310.039062 31.88 
Q 308.039062 31.88 308.039062 33.88 
L 308.039062 62.23625 
Q 308.039062 64.23625 310.039062 64.23625 
z
" style="fill: #ffffff; opacity: 0.8; stroke: #cccccc; stroke-linejoin: miter"/>
    </g>
    <g id="line2d_31">
     <path d="M 312.039062 39.978437 
L 322.039062 39.978437 
L 332.039062 39.978437 
" style="fill: none; stroke: #000000; stroke-width: 1.5; stroke-linecap: square"/>
    </g>
    <g id="text_18">
     <!-- pre-norm valid loss -->
     <g transform="translate(340.039062 43.478437) scale(0.1 -0.1)">
      <use xlink:href="#DejaVuSans-70"/>
      <use xlink:href="#DejaVuSans-72" transform="translate(63.476562 0)"/>
      <use xlink:href="#DejaVuSans-65" transform="translate(102.339844 0)"/>
      <use xlink:href="#DejaVuSans-2d" transform="translate(163.863281 0)"/>
      <use xlink:href="#DejaVuSans-6e" transform="translate(199.947266 0)"/>
      <use xlink:href="#DejaVuSans-6f" transform="translate(263.326172 0)"/>
      <use xlink:href="#DejaVuSans-72" transform="translate(324.507812 0)"/>
      <use xlink:href="#DejaVuSans-6d" transform="translate(363.871094 0)"/>
      <use xlink:href="#DejaVuSans-20" transform="translate(461.283203 0)"/>
      <use xlink:href="#DejaVuSans-76" transform="translate(493.070312 0)"/>
      <use xlink:href="#DejaVuSans-61" transform="translate(552.25 0)"/>
      <use xlink:href="#DejaVuSans-6c" transform="translate(613.529297 0)"/>
      <use xlink:href="#DejaVuSans-69" transform="translate(641.3125 0)"/>
      <use xlink:href="#DejaVuSans-64" transform="translate(669.095703 0)"/>
      <use xlink:href="#DejaVuSans-20" transform="translate(732.572266 0)"/>
      <use xlink:href="#DejaVuSans-6c" transform="translate(764.359375 0)"/>
      <use xlink:href="#DejaVuSans-6f" transform="translate(792.142578 0)"/>
      <use xlink:href="#DejaVuSans-73" transform="translate(853.324219 0)"/>
      <use xlink:href="#DejaVuSans-73" transform="translate(905.423828 0)"/>
     </g>
    </g>
    <g id="line2d_32">
     <path d="M 312.039062 54.656563 
L 322.039062 54.656563 
L 332.039062 54.656563 
" style="fill: none; stroke: #ff0000; stroke-width: 1.5; stroke-linecap: square"/>
    </g>
    <g id="text_19">
     <!-- post-norm valid loss -->
     <g transform="translate(340.039062 58.156563) scale(0.1 -0.1)">
      <use xlink:href="#DejaVuSans-70"/>
      <use xlink:href="#DejaVuSans-6f" transform="translate(63.476562 0)"/>
      <use xlink:href="#DejaVuSans-73" transform="translate(124.658203 0)"/>
      <use xlink:href="#DejaVuSans-74" transform="translate(176.757812 0)"/>
      <use xlink:href="#DejaVuSans-2d" transform="translate(215.966797 0)"/>
      <use xlink:href="#DejaVuSans-6e" transform="translate(252.050781 0)"/>
      <use xlink:href="#DejaVuSans-6f" transform="translate(315.429688 0)"/>
      <use xlink:href="#DejaVuSans-72" transform="translate(376.611328 0)"/>
      <use xlink:href="#DejaVuSans-6d" transform="translate(415.974609 0)"/>
      <use xlink:href="#DejaVuSans-20" transform="translate(513.386719 0)"/>
      <use xlink:href="#DejaVuSans-76" transform="translate(545.173828 0)"/>
      <use xlink:href="#DejaVuSans-61" transform="translate(604.353516 0)"/>
      <use xlink:href="#DejaVuSans-6c" transform="translate(665.632812 0)"/>
      <use xlink:href="#DejaVuSans-69" transform="translate(693.416016 0)"/>
      <use xlink:href="#DejaVuSans-64" transform="translate(721.199219 0)"/>
      <use xlink:href="#DejaVuSans-20" transform="translate(784.675781 0)"/>
      <use xlink:href="#DejaVuSans-6c" transform="translate(816.462891 0)"/>
      <use xlink:href="#DejaVuSans-6f" transform="translate(844.246094 0)"/>
      <use xlink:href="#DejaVuSans-73" transform="translate(905.427734 0)"/>
      <use xlink:href="#DejaVuSans-73" transform="translate(957.527344 0)"/>
     </g>
    </g>
   </g>
  </g>
 </g>
 <defs>
  <clipPath id="p5f9489e6fa">
   <rect x="54.02" y="26.88" width="395.98" height="276.76"/>
  </clipPath>
 </defs>
</svg>
