<svg xmlns="http://www.w3.org/2000/svg" width="1200" height="900" viewBox="0 0 1200 900">
<rect width="1200" height="900" fill="#FFFFFF"/>
<style>text{font-family:Inter,Arial,sans-serif}.title{font-size:28px;font-weight:700;fill:#172026}.subtitle{font-size:15px;fill:#667085}.axis{font-size:12px;fill:#667085}.label{font-size:13px;font-weight:600;fill:#344054}.legend{font-size:13px;fill:#344054}.note{font-size:13px;fill:#667085}.barlabel{font-size:14px;font-weight:650;fill:#172026}</style>
<text x="70" y="42" class="title">RTX 3070 Training Telemetry</text>
<text x="70" y="68" class="subtitle">nvidia-smi sampled during the 10k-step TinyStories run</text>
<line x1="110" y1="260.00" x2="1130" y2="260.00" stroke="#E5E7EB"/>
<text x="100" y="264.00" text-anchor="end" class="axis">0</text>
<line x1="110" y1="215.00" x2="1130" y2="215.00" stroke="#E5E7EB"/>
<text x="100" y="219.00" text-anchor="end" class="axis">33</text>
<line x1="110" y1="170.00" x2="1130" y2="170.00" stroke="#E5E7EB"/>
<text x="100" y="174.00" text-anchor="end" class="axis">67</text>
<line x1="110" y1="125.00" x2="1130" y2="125.00" stroke="#E5E7EB"/>
<text x="100" y="129.00" text-anchor="end" class="axis">100</text>
<line x1="110.00" y1="125" x2="110.00" y2="260" stroke="#E5E7EB" opacity="0.55"/>
<line x1="280.00" y1="125" x2="280.00" y2="260" stroke="#E5E7EB" opacity="0.55"/>
<line x1="450.00" y1="125" x2="450.00" y2="260" stroke="#E5E7EB" opacity="0.55"/>
<line x1="620.00" y1="125" x2="620.00" y2="260" stroke="#E5E7EB" opacity="0.55"/>
<line x1="790.00" y1="125" x2="790.00" y2="260" stroke="#E5E7EB" opacity="0.55"/>
<line x1="960.00" y1="125" x2="960.00" y2="260" stroke="#E5E7EB" opacity="0.55"/>
<line x1="1130.00" y1="125" x2="1130.00" y2="260" stroke="#E5E7EB" opacity="0.55"/>
<path d="M110.00,210.05 L112.90,251.90 L115.95,134.45 L118.56,134.45 L121.69,135.80 L124.83,131.75 L127.97,134.45 L130.98,134.45 L133.95,138.50 L135.78,138.50 L138.70,133.10 L141.64,131.75 L144.73,131.75 L147.87,130.40 L151.00,130.40 L153.23,138.50 L156.28,130.40 L159.29,130.40 L162.36,129.05 L165.50,130.40 L168.63,133.10 L170.54,131.75 L173.51,130.40 L176.54,135.80 L179.68,131.75 L182.82,133.10 L185.96,131.75 L187.98,131.75 L191.06,135.80 L194.11,135.80 L197.23,131.75 L200.26,130.40 L203.33,134.45 L205.34,129.05 L208.39,137.15 L211.48,138.50 L214.56,143.90 L217.62,135.80 L220.71,130.40 L223.73,134.45 L226.80,131.75 L229.81,131.75 L231.39,133.10 L234.29,134.45 L237.21,134.45 L240.36,129.05 L243.50,130.40 L246.64,130.40 L248.79,135.80 L251.93,134.45 L255.07,130.40 L258.13,134.45 L261.16,127.70 L264.28,134.45 L267.32,131.75 L269.28,130.40 L272.30,130.40 L275.38,131.75 L278.52,129.05 L281.57,131.75 L284.59,130.40 L287.72,130.40 L290.73,129.05 L293.76,129.05 L296.84,129.05 L299.87,133.10 L302.93,133.10 L303.84,130.40 L306.76,133.10 L309.72,133.10 L312.72,131.75 L315.86,131.75 L318.97,134.45 L322.07,133.10 L324.26,133.10 L327.31,129.05 L330.44,134.45 L333.56,134.45 L336.67,131.75 L339.69,130.40 L341.62,129.05 L344.65,130.40 L347.75,139.85 L350.89,134.45 L353.96,134.45 L357.01,131.75 L360.05,134.45 L363.06,135.80 L366.05,137.15 L367.67,134.45 L370.68,130.40 L373.74,133.10 L376.87,131.75 L379.98,130.40 L383.06,133.10 L385.08,131.75 L388.12,131.75 L391.27,131.75 L394.41,129.05 L397.49,133.10 L400.58,134.45 L402.39,129.05 L405.43,131.75 L408.54,127.70 L411.67,130.40 L414.81,130.40 L417.92,129.05 L420.92,130.40 L424.02,133.10 L427.01,133.10 L430.02,131.75 L433.05,131.75 L436.10,130.40 L439.14,130.40 L440.09,131.75 L443.04,129.05 L446.12,131.75 L449.26,129.05 L452.39,130.40 L455.53,131.75 L457.60,135.80 L460.68,131.75 L463.74,131.75 L466.86,130.40 L469.93,129.05 L472.94,129.05 L474.98,129.05 L477.96,129.05 L481.10,129.05 L484.22,129.05 L487.32,135.80 L490.42,133.10 L492.35,129.05 L495.39,131.75 L498.47,129.05 L501.58,135.80 L504.70,129.05 L507.76,134.45 L509.59,130.40 L512.67,134.45 L515.70,133.10 L518.79,130.40 L521.86,129.05 L524.89,129.05 L527.08,131.75 L530.11,133.10 L533.19,131.75 L536.27,130.40 L539.30,129.05 L542.43,133.10 L544.45,131.75 L547.58,131.75 L550.62,129.05 L553.68,130.40 L556.82,129.05 L559.90,133.10 L561.79,131.75 L564.77,129.05 L567.77,129.05 L570.91,130.40 L574.05,131.75 L577.19,129.05 L579.19,133.10 L582.25,130.40 L585.38,129.05 L588.47,129.05 L591.51,129.05 L594.62,130.40 L596.54,134.45 L599.60,133.10 L602.69,129.05 L605.79,129.05 L608.92,130.40 L611.98,129.05 L613.91,129.05 L617.02,130.40 L620.03,133.10 L623.17,138.50 L626.28,129.05 L629.39,131.75 L631.28,138.50 L634.23,129.05 L637.34,130.40 L640.41,129.05 L643.45,135.80 L646.59,131.75 L649.63,129.05 L651.75,130.40 L654.83,133.10 L657.88,133.10 L661.01,131.75 L664.06,129.05 L667.11,130.40 L669.16,131.75 L672.21,134.45 L675.33,129.05 L678.39,129.05 L681.44,134.45 L684.58,130.40 L686.39,133.10 L689.50,133.10 L692.57,131.75 L695.62,134.45 L698.75,130.40 L701.80,129.05 L703.85,134.45 L706.93,130.40 L709.97,129.05 L713.10,188.45 L716.16,130.40 L719.21,130.40 L721.25,133.10 L724.29,134.45 L727.41,129.05 L730.48,129.05 L733.52,133.10 L736.65,130.40 L738.62,131.75 L741.72,130.40 L744.78,130.40 L747.82,129.05 L750.96,131.75 L754.02,131.75 L755.86,130.40 L758.89,130.40 L761.95,139.85 L765.09,134.45 L768.15,129.05 L771.20,129.05 L773.34,137.15 L776.36,135.80 L779.47,131.75 L782.54,131.75 L785.62,130.40 L788.76,130.40 L790.69,131.75 L793.80,130.40 L796.79,131.75 L799.85,131.75 L802.99,130.40 L806.13,130.40 L808.02,129.05 L811.03,129.05 L814.10,129.05 L817.22,130.40 L820.27,130.40 L823.37,133.10 L825.42,130.40 L828.48,130.40 L831.61,130.40 L834.65,130.40 L837.75,130.40 L840.85,129.05 L842.79,130.40 L845.92,133.10 L848.98,131.75 L852.06,127.70 L855.17,130.40 L858.22,129.05 L861.33,129.05 L863.16,138.50 L866.25,131.75 L869.35,131.75 L872.36,129.05 L875.51,130.40 L878.60,129.05 L880.65,130.40 L883.72,130.40 L886.79,134.45 L889.92,129.05 L893.01,129.05 L896.05,130.40 L898.07,133.10 L901.09,129.05 L904.18,130.40 L907.27,131.75 L910.36,129.05 L913.47,131.75 L915.43,133.10 L918.49,130.40 L921.59,129.05 L924.62,129.05 L927.75,130.40 L930.84,131.75 L932.62,130.40 L935.72,130.40 L938.81,131.75 L941.93,130.40 L945.01,131.75 L948.08,131.75 L950.17,130.40 L953.22,131.75 L956.34,131.75 L959.43,130.40 L962.51,130.40 L965.63,130.40 L967.51,130.40 L970.55,131.75 L973.66,130.40 L976.74,129.05 L979.86,133.10 L982.96,129.05 L984.76,131.75 L987.83,129.05 L990.91,129.05 L994.05,127.70 L997.19,130.40 L1000.33,130.40 L1002.26,129.05 L1005.29,129.05 L1008.43,135.80 L1011.55,130.40 L1014.68,129.05 L1017.75,130.40 L1019.63,131.75 L1022.65,129.05 L1025.77,129.05 L1028.89,135.80 L1032.00,131.75 L1035.11,130.40 L1038.17,130.40 L1041.22,130.40 L1044.25,130.40 L1045.61,130.40 L1048.68,130.40 L1051.73,129.05 L1054.87,130.40 L1057.92,130.40 L1060.98,127.70 L1063.07,130.40 L1066.12,130.40 L1069.24,129.05 L1072.32,131.75 L1075.38,133.10 L1078.52,133.10 L1080.44,131.75 L1083.54,130.40 L1086.62,131.75 L1089.68,129.05 L1092.80,131.75 L1095.87,130.40 L1097.73,131.75 L1100.82,133.10 L1103.88,133.10 L1106.97,130.40 L1110.04,130.40 L1113.11,131.75 L1115.17,130.40 L1118.22,133.10 L1121.35,131.75 L1124.44,130.40 L1127.49,129.05 L1130.00,251.90" fill="none" stroke="#2563EB" stroke-width="2.4" stroke-linecap="round" stroke-linejoin="round"/>
<line x1="110" y1="260" x2="1130" y2="260" stroke="#98A2B3"/>
<line x1="110" y1="125" x2="110" y2="260" stroke="#98A2B3"/>
<text transform="translate(54 192.5) rotate(-90)" text-anchor="middle" class="label">GPU util %</text>
<text x="110" y="113" class="legend" fill="#2563EB">GPU util %</text>
<line x1="110" y1="440.00" x2="1130" y2="440.00" stroke="#E5E7EB"/>
<text x="100" y="444.00" text-anchor="end" class="axis">6</text>
<line x1="110" y1="395.00" x2="1130" y2="395.00" stroke="#E5E7EB"/>
<text x="100" y="399.00" text-anchor="end" class="axis">62</text>
<line x1="110" y1="350.00" x2="1130" y2="350.00" stroke="#E5E7EB"/>
<text x="100" y="354.00" text-anchor="end" class="axis">117</text>
<line x1="110" y1="305.00" x2="1130" y2="305.00" stroke="#E5E7EB"/>
<text x="100" y="309.00" text-anchor="end" class="axis">173</text>
<line x1="110.00" y1="305" x2="110.00" y2="440" stroke="#E5E7EB" opacity="0.55"/>
<line x1="280.00" y1="305" x2="280.00" y2="440" stroke="#E5E7EB" opacity="0.55"/>
<line x1="450.00" y1="305" x2="450.00" y2="440" stroke="#E5E7EB" opacity="0.55"/>
<line x1="620.00" y1="305" x2="620.00" y2="440" stroke="#E5E7EB" opacity="0.55"/>
<line x1="790.00" y1="305" x2="790.00" y2="440" stroke="#E5E7EB" opacity="0.55"/>
<line x1="960.00" y1="305" x2="960.00" y2="440" stroke="#E5E7EB" opacity="0.55"/>
<line x1="1130.00" y1="305" x2="1130.00" y2="440" stroke="#E5E7EB" opacity="0.55"/>
<path d="M110.00,430.69 L112.90,417.85 L115.95,327.64 L118.56,335.82 L121.69,374.71 L124.83,331.80 L127.97,334.53 L130.98,332.05 L133.95,314.31 L135.78,342.50 L138.70,321.58 L141.64,328.85 L144.73,330.77 L147.87,334.22 L151.00,334.22 L153.23,344.50 L156.28,344.06 L159.29,343.04 L162.36,349.29 L165.50,337.52 L168.63,349.00 L170.54,361.41 L173.51,352.24 L176.54,353.00 L179.68,352.54 L182.82,354.24 L185.96,355.97 L187.98,353.81 L191.06,349.73 L194.11,359.15 L197.23,357.72 L200.26,354.54 L203.33,354.21 L205.34,354.54 L208.39,356.69 L211.48,357.01 L214.56,356.31 L217.62,359.72 L220.71,355.11 L223.73,354.50 L226.80,354.00 L229.81,353.52 L231.39,361.67 L234.29,357.39 L237.21,353.60 L240.36,353.56 L243.50,353.25 L246.64,355.76 L248.79,355.72 L251.93,355.15 L255.07,355.45 L258.13,355.80 L261.16,355.65 L264.28,370.04 L267.32,357.81 L269.28,357.38 L272.30,358.34 L275.38,358.54 L278.52,372.75 L281.57,358.25 L284.59,358.74 L287.72,358.75 L290.73,358.62 L293.76,358.96 L296.84,358.66 L299.87,359.01 L302.93,358.66 L303.84,358.55 L306.76,352.43 L309.72,358.58 L312.72,358.49 L315.86,354.63 L318.97,355.20 L322.07,361.14 L324.26,356.70 L327.31,356.27 L330.44,356.79 L333.56,356.90 L336.67,356.82 L339.69,356.10 L341.62,357.54 L344.65,357.40 L347.75,358.44 L350.89,357.93 L353.96,357.57 L357.01,357.94 L360.05,358.36 L363.06,352.29 L366.05,358.73 L367.67,370.02 L370.68,360.39 L373.74,365.58 L376.87,358.80 L379.98,363.92 L383.06,363.36 L385.08,359.89 L388.12,365.07 L391.27,361.47 L394.41,369.76 L397.49,358.01 L400.58,366.15 L402.39,361.20 L405.43,361.29 L408.54,359.42 L411.67,362.93 L414.81,371.32 L417.92,362.95 L420.92,362.95 L424.02,363.35 L427.01,363.07 L430.02,360.87 L433.05,365.86 L436.10,365.79 L439.14,365.75 L440.09,358.96 L443.04,354.50 L446.12,365.40 L449.26,365.84 L452.39,345.97 L455.53,363.55 L457.60,362.77 L460.68,353.89 L463.74,368.24 L466.86,365.33 L469.93,359.78 L472.94,367.51 L474.98,365.36 L477.96,359.67 L481.10,363.44 L484.22,365.07 L487.32,361.60 L490.42,360.53 L492.35,364.71 L495.39,359.89 L498.47,360.35 L501.58,359.12 L504.70,360.14 L507.76,359.84 L509.59,362.56 L512.67,360.59 L515.70,367.15 L518.79,363.71 L521.86,365.67 L524.89,364.96 L527.08,367.88 L530.11,359.21 L533.19,366.23 L536.27,366.94 L539.30,363.84 L542.43,365.98 L544.45,366.33 L547.58,371.55 L550.62,367.72 L553.68,361.91 L556.82,363.80 L559.90,363.88 L561.79,364.35 L564.77,364.05 L567.77,364.18 L570.91,367.87 L574.05,359.25 L577.19,363.37 L579.19,363.37 L582.25,360.99 L585.38,364.22 L588.47,363.56 L591.51,361.69 L594.62,364.92 L596.54,367.04 L599.60,366.74 L602.69,367.28 L605.79,362.50 L608.92,361.98 L611.98,373.77 L613.91,364.89 L617.02,363.36 L620.03,364.65 L623.17,360.02 L626.28,360.14 L629.39,363.28 L631.28,368.43 L634.23,367.08 L637.34,364.98 L640.41,359.73 L643.45,371.72 L646.59,365.75 L649.63,365.60 L651.75,366.15 L654.83,365.75 L657.88,373.99 L661.01,365.92 L664.06,370.21 L667.11,363.90 L669.16,365.92 L672.21,365.79 L675.33,360.74 L678.39,366.85 L681.44,362.73 L684.58,361.86 L686.39,362.45 L689.50,361.93 L692.57,362.53 L695.62,362.73 L698.75,361.43 L701.80,362.03 L703.85,362.04 L706.93,363.07 L709.97,356.79 L713.10,358.95 L716.16,366.90 L719.21,364.52 L721.25,360.43 L724.29,359.51 L727.41,362.02 L730.48,370.25 L733.52,364.67 L736.65,368.53 L738.62,366.17 L741.72,369.67 L744.78,365.73 L747.82,400.79 L750.96,366.43 L754.02,367.06 L755.86,366.43 L758.89,362.09 L761.95,362.22 L765.09,366.51 L768.15,365.25 L771.20,365.45 L773.34,370.04 L776.36,366.64 L779.47,366.67 L782.54,361.59 L785.62,361.92 L788.76,361.89 L790.69,361.74 L793.80,362.02 L796.79,361.24 L799.85,361.93 L802.99,365.24 L806.13,365.22 L808.02,364.24 L811.03,364.42 L814.10,363.64 L817.22,360.61 L820.27,363.11 L823.37,363.30 L825.42,363.34 L828.48,363.34 L831.61,363.00 L834.65,363.37 L837.75,362.93 L840.85,363.97 L842.79,364.14 L845.92,364.69 L848.98,367.70 L852.06,353.61 L855.17,362.50 L858.22,379.93 L861.33,364.90 L863.16,373.40 L866.25,367.43 L869.35,366.57 L872.36,363.71 L875.51,368.20 L878.60,367.65 L880.65,360.58 L883.72,366.49 L886.79,367.96 L889.92,368.31 L893.01,367.87 L896.05,368.06 L898.07,371.64 L901.09,366.72 L904.18,378.31 L907.27,368.51 L910.36,367.49 L913.47,363.81 L915.43,363.08 L918.49,371.56 L921.59,364.91 L924.62,367.34 L927.75,369.43 L930.84,370.23 L932.62,365.90 L935.72,367.09 L938.81,367.40 L941.93,366.01 L945.01,371.34 L948.08,367.03 L950.17,367.79 L953.22,365.95 L956.34,367.27 L959.43,371.31 L962.51,368.01 L965.63,368.07 L967.51,377.28 L970.55,366.92 L973.66,370.04 L976.74,367.31 L979.86,368.21 L982.96,367.75 L984.76,368.57 L987.83,369.02 L990.91,363.43 L994.05,368.81 L997.19,369.02 L1000.33,368.38 L1002.26,368.45 L1005.29,369.65 L1008.43,367.99 L1011.55,369.65 L1014.68,363.14 L1017.75,366.29 L1019.63,371.99 L1022.65,377.57 L1025.77,371.92 L1028.89,370.96 L1032.00,372.22 L1035.11,369.23 L1038.17,370.02 L1041.22,351.65 L1044.25,369.66 L1045.61,361.13 L1048.68,369.53 L1051.73,368.46 L1054.87,367.63 L1057.92,370.25 L1060.98,370.12 L1063.07,367.18 L1066.12,366.22 L1069.24,365.81 L1072.32,365.79 L1075.38,365.54 L1078.52,370.93 L1080.44,365.83 L1083.54,370.98 L1086.62,366.36 L1089.68,374.70 L1092.80,369.59 L1095.87,373.34 L1097.73,370.14 L1100.82,380.01 L1103.88,371.30 L1106.97,366.98 L1110.04,367.11 L1113.11,368.97 L1115.17,370.59 L1118.22,368.02 L1121.35,365.62 L1124.44,367.32 L1127.49,366.86 L1130.00,397.11" fill="none" stroke="#D97706" stroke-width="2.4" stroke-linecap="round" stroke-linejoin="round"/>
<line x1="110" y1="440" x2="1130" y2="440" stroke="#98A2B3"/>
<line x1="110" y1="305" x2="110" y2="440" stroke="#98A2B3"/>
<text transform="translate(54 372.5) rotate(-90)" text-anchor="middle" class="label">Power W</text>
<text x="110" y="293" class="legend" fill="#D97706">Power W</text>
<line x1="110" y1="620.00" x2="1130" y2="620.00" stroke="#E5E7EB"/>
<text x="100" y="624.00" text-anchor="end" class="axis">51</text>
<line x1="110" y1="575.00" x2="1130" y2="575.00" stroke="#E5E7EB"/>
<text x="100" y="579.00" text-anchor="end" class="axis">64</text>
<line x1="110" y1="530.00" x2="1130" y2="530.00" stroke="#E5E7EB"/>
<text x="100" y="534.00" text-anchor="end" class="axis">77</text>
<line x1="110" y1="485.00" x2="1130" y2="485.00" stroke="#E5E7EB"/>
<text x="100" y="489.00" text-anchor="end" class="axis">90</text>
<line x1="110.00" y1="485" x2="110.00" y2="620" stroke="#E5E7EB" opacity="0.55"/>
<line x1="280.00" y1="485" x2="280.00" y2="620" stroke="#E5E7EB" opacity="0.55"/>
<line x1="450.00" y1="485" x2="450.00" y2="620" stroke="#E5E7EB" opacity="0.55"/>
<line x1="620.00" y1="485" x2="620.00" y2="620" stroke="#E5E7EB" opacity="0.55"/>
<line x1="790.00" y1="485" x2="790.00" y2="620" stroke="#E5E7EB" opacity="0.55"/>
<line x1="960.00" y1="485" x2="960.00" y2="620" stroke="#E5E7EB" opacity="0.55"/>
<line x1="1130.00" y1="485" x2="1130.00" y2="620" stroke="#E5E7EB" opacity="0.55"/>
<path d="M110.00,610.69 L112.90,607.16 L115.95,564.84 L118.56,554.26 L121.69,540.16 L124.83,533.10 L127.97,526.05 L130.98,519.00 L133.95,511.94 L135.78,508.42 L138.70,504.89 L141.64,497.84 L144.73,497.84 L147.87,501.36 L151.00,497.84 L153.23,497.84 L156.28,497.84 L159.29,497.84 L162.36,497.84 L165.50,497.84 L168.63,497.84 L170.54,497.84 L173.51,497.84 L176.54,497.84 L179.68,497.84 L182.82,494.31 L185.96,497.84 L187.98,497.84 L191.06,497.84 L194.11,497.84 L197.23,497.84 L200.26,497.84 L203.33,497.84 L205.34,497.84 L208.39,494.31 L211.48,497.84 L214.56,497.84 L217.62,497.84 L220.71,497.84 L223.73,497.84 L226.80,497.84 L229.81,497.84 L231.39,501.36 L234.29,497.84 L237.21,497.84 L240.36,497.84 L243.50,497.84 L246.64,497.84 L248.79,497.84 L251.93,497.84 L255.07,497.84 L258.13,497.84 L261.16,497.84 L264.28,497.84 L267.32,497.84 L269.28,497.84 L272.30,497.84 L275.38,497.84 L278.52,497.84 L281.57,497.84 L284.59,497.84 L287.72,497.84 L290.73,497.84 L293.76,497.84 L296.84,497.84 L299.87,497.84 L302.93,497.84 L303.84,497.84 L306.76,497.84 L309.72,497.84 L312.72,497.84 L315.86,497.84 L318.97,497.84 L322.07,501.36 L324.26,497.84 L327.31,497.84 L330.44,497.84 L333.56,497.84 L336.67,497.84 L339.69,497.84 L341.62,497.84 L344.65,497.84 L347.75,497.84 L350.89,497.84 L353.96,497.84 L357.01,497.84 L360.05,497.84 L363.06,497.84 L366.05,497.84 L367.67,497.84 L370.68,497.84 L373.74,497.84 L376.87,497.84 L379.98,497.84 L383.06,497.84 L385.08,497.84 L388.12,497.84 L391.27,497.84 L394.41,497.84 L397.49,497.84 L400.58,497.84 L402.39,497.84 L405.43,497.84 L408.54,497.84 L411.67,497.84 L414.81,497.84 L417.92,497.84 L420.92,497.84 L424.02,497.84 L427.01,497.84 L430.02,497.84 L433.05,497.84 L436.10,497.84 L439.14,497.84 L440.09,497.84 L443.04,497.84 L446.12,497.84 L449.26,497.84 L452.39,497.84 L455.53,497.84 L457.60,497.84 L460.68,497.84 L463.74,497.84 L466.86,497.84 L469.93,497.84 L472.94,497.84 L474.98,497.84 L477.96,497.84 L481.10,497.84 L484.22,497.84 L487.32,497.84 L490.42,494.31 L492.35,497.84 L495.39,497.84 L498.47,497.84 L501.58,494.31 L504.70,497.84 L507.76,497.84 L509.59,497.84 L512.67,497.84 L515.70,497.84 L518.79,497.84 L521.86,497.84 L524.89,497.84 L527.08,497.84 L530.11,497.84 L533.19,497.84 L536.27,497.84 L539.30,497.84 L542.43,497.84 L544.45,497.84 L547.58,497.84 L550.62,497.84 L553.68,497.84 L556.82,497.84 L559.90,497.84 L561.79,497.84 L564.77,497.84 L567.77,497.84 L570.91,497.84 L574.05,494.31 L577.19,497.84 L579.19,497.84 L582.25,497.84 L585.38,497.84 L588.47,497.84 L591.51,497.84 L594.62,497.84 L596.54,497.84 L599.60,497.84 L602.69,497.84 L605.79,497.84 L608.92,497.84 L611.98,501.36 L613.91,497.84 L617.02,497.84 L620.03,497.84 L623.17,497.84 L626.28,497.84 L629.39,497.84 L631.28,497.84 L634.23,501.36 L637.34,497.84 L640.41,497.84 L643.45,497.84 L646.59,497.84 L649.63,497.84 L651.75,497.84 L654.83,497.84 L657.88,497.84 L661.01,497.84 L664.06,497.84 L667.11,497.84 L669.16,497.84 L672.21,497.84 L675.33,497.84 L678.39,497.84 L681.44,497.84 L684.58,497.84 L686.39,497.84 L689.50,497.84 L692.57,497.84 L695.62,497.84 L698.75,497.84 L701.80,497.84 L703.85,497.84 L706.93,497.84 L709.97,497.84 L713.10,501.36 L716.16,497.84 L719.21,497.84 L721.25,497.84 L724.29,497.84 L727.41,497.84 L730.48,497.84 L733.52,497.84 L736.65,497.84 L738.62,497.84 L741.72,497.84 L744.78,497.84 L747.82,501.36 L750.96,497.84 L754.02,497.84 L755.86,497.84 L758.89,497.84 L761.95,497.84 L765.09,497.84 L768.15,497.84 L771.20,497.84 L773.34,497.84 L776.36,497.84 L779.47,497.84 L782.54,497.84 L785.62,497.84 L788.76,497.84 L790.69,497.84 L793.80,497.84 L796.79,497.84 L799.85,497.84 L802.99,497.84 L806.13,497.84 L808.02,497.84 L811.03,497.84 L814.10,497.84 L817.22,494.31 L820.27,497.84 L823.37,497.84 L825.42,497.84 L828.48,497.84 L831.61,497.84 L834.65,497.84 L837.75,497.84 L840.85,497.84 L842.79,497.84 L845.92,497.84 L848.98,497.84 L852.06,497.84 L855.17,497.84 L858.22,497.84 L861.33,497.84 L863.16,497.84 L866.25,497.84 L869.35,497.84 L872.36,497.84 L875.51,497.84 L878.60,497.84 L880.65,497.84 L883.72,497.84 L886.79,497.84 L889.92,497.84 L893.01,497.84 L896.05,497.84 L898.07,497.84 L901.09,497.84 L904.18,497.84 L907.27,497.84 L910.36,497.84 L913.47,497.84 L915.43,497.84 L918.49,497.84 L921.59,497.84 L924.62,497.84 L927.75,497.84 L930.84,497.84 L932.62,497.84 L935.72,497.84 L938.81,497.84 L941.93,497.84 L945.01,497.84 L948.08,497.84 L950.17,497.84 L953.22,497.84 L956.34,497.84 L959.43,497.84 L962.51,497.84 L965.63,497.84 L967.51,497.84 L970.55,497.84 L973.66,497.84 L976.74,497.84 L979.86,497.84 L982.96,497.84 L984.76,497.84 L987.83,497.84 L990.91,497.84 L994.05,497.84 L997.19,497.84 L1000.33,497.84 L1002.26,497.84 L1005.29,497.84 L1008.43,497.84 L1011.55,497.84 L1014.68,497.84 L1017.75,497.84 L1019.63,497.84 L1022.65,497.84 L1025.77,497.84 L1028.89,497.84 L1032.00,497.84 L1035.11,497.84 L1038.17,497.84 L1041.22,497.84 L1044.25,497.84 L1045.61,497.84 L1048.68,497.84 L1051.73,497.84 L1054.87,497.84 L1057.92,497.84 L1060.98,497.84 L1063.07,497.84 L1066.12,497.84 L1069.24,497.84 L1072.32,497.84 L1075.38,497.84 L1078.52,497.84 L1080.44,497.84 L1083.54,497.84 L1086.62,497.84 L1089.68,497.84 L1092.80,497.84 L1095.87,497.84 L1097.73,497.84 L1100.82,497.84 L1103.88,497.84 L1106.97,497.84 L1110.04,497.84 L1113.11,497.84 L1115.17,497.84 L1118.22,497.84 L1121.35,497.84 L1124.44,497.84 L1127.49,497.84 L1130.00,504.89" fill="none" stroke="#DC2626" stroke-width="2.4" stroke-linecap="round" stroke-linejoin="round"/>
<line x1="110" y1="620" x2="1130" y2="620" stroke="#98A2B3"/>
<line x1="110" y1="485" x2="110" y2="620" stroke="#98A2B3"/>
<text transform="translate(54 552.5) rotate(-90)" text-anchor="middle" class="label">Temp C</text>
<text x="110" y="473" class="legend" fill="#DC2626">Temp C</text>
<line x1="110" y1="800.00" x2="1130" y2="800.00" stroke="#E5E7EB"/>
<text x="100" y="804.00" text-anchor="end" class="axis">0.0</text>
<line x1="110" y1="755.00" x2="1130" y2="755.00" stroke="#E5E7EB"/>
<text x="100" y="759.00" text-anchor="end" class="axis">1.5</text>
<line x1="110" y1="710.00" x2="1130" y2="710.00" stroke="#E5E7EB"/>
<text x="100" y="714.00" text-anchor="end" class="axis">3.1</text>
<line x1="110" y1="665.00" x2="1130" y2="665.00" stroke="#E5E7EB"/>
<text x="100" y="669.00" text-anchor="end" class="axis">4.6</text>
<line x1="110.00" y1="665" x2="110.00" y2="800" stroke="#E5E7EB" opacity="0.55"/>
<line x1="280.00" y1="665" x2="280.00" y2="800" stroke="#E5E7EB" opacity="0.55"/>
<line x1="450.00" y1="665" x2="450.00" y2="800" stroke="#E5E7EB" opacity="0.55"/>
<line x1="620.00" y1="665" x2="620.00" y2="800" stroke="#E5E7EB" opacity="0.55"/>
<line x1="790.00" y1="665" x2="790.00" y2="800" stroke="#E5E7EB" opacity="0.55"/>
<line x1="960.00" y1="665" x2="960.00" y2="800" stroke="#E5E7EB" opacity="0.55"/>
<line x1="1130.00" y1="665" x2="1130.00" y2="800" stroke="#E5E7EB" opacity="0.55"/>
<path d="M110.00,762.83 L112.90,756.20 L115.95,683.91 L118.56,683.91 L121.69,683.91 L124.83,675.00 L127.97,675.00 L130.98,675.00 L133.95,675.00 L135.78,675.00 L138.70,675.00 L141.64,675.00 L144.73,675.00 L147.87,675.00 L151.00,675.00 L153.23,675.00 L156.28,675.00 L159.29,675.00 L162.36,675.00 L165.50,675.00 L168.63,675.00 L170.54,675.00 L173.51,675.00 L176.54,675.00 L179.68,675.00 L182.82,707.23 L185.96,707.65 L187.98,706.72 L191.06,705.53 L194.11,705.53 L197.23,705.53 L200.26,705.53 L203.33,705.53 L205.34,705.53 L208.39,705.53 L211.48,705.53 L214.56,705.53 L217.62,705.53 L220.71,705.53 L223.73,705.53 L226.80,705.53 L229.81,705.53 L231.39,705.53 L234.29,705.53 L237.21,705.53 L240.36,705.53 L243.50,705.53 L246.64,705.53 L248.79,705.53 L251.93,705.53 L255.07,705.53 L258.13,705.53 L261.16,705.53 L264.28,705.53 L267.32,705.53 L269.28,705.53 L272.30,705.53 L275.38,705.53 L278.52,705.53 L281.57,705.53 L284.59,705.53 L287.72,705.53 L290.73,705.53 L293.76,705.53 L296.84,705.53 L299.87,705.53 L302.93,705.53 L303.84,705.53 L306.76,705.53 L309.72,705.53 L312.72,705.53 L315.86,705.53 L318.97,705.53 L322.07,705.53 L324.26,705.53 L327.31,705.53 L330.44,705.53 L333.56,705.53 L336.67,705.53 L339.69,705.53 L341.62,705.53 L344.65,705.53 L347.75,705.53 L350.89,705.53 L353.96,705.53 L357.01,705.53 L360.05,705.53 L363.06,705.53 L366.05,705.53 L367.67,705.53 L370.68,705.53 L373.74,705.53 L376.87,705.53 L379.98,705.53 L383.06,705.53 L385.08,705.53 L388.12,705.53 L391.27,705.53 L394.41,705.53 L397.49,705.53 L400.58,705.53 L402.39,705.53 L405.43,705.53 L408.54,705.53 L411.67,705.53 L414.81,705.53 L417.92,705.53 L420.92,705.53 L424.02,705.53 L427.01,705.53 L430.02,705.53 L433.05,705.53 L436.10,705.53 L439.14,705.53 L440.09,705.53 L443.04,705.53 L446.12,705.53 L449.26,705.53 L452.39,705.53 L455.53,705.53 L457.60,705.53 L460.68,705.53 L463.74,705.53 L466.86,705.53 L469.93,705.53 L472.94,705.53 L474.98,705.53 L477.96,705.53 L481.10,705.53 L484.22,705.53 L487.32,705.53 L490.42,705.53 L492.35,705.53 L495.39,705.53 L498.47,705.53 L501.58,705.53 L504.70,705.53 L507.76,705.53 L509.59,705.53 L512.67,705.53 L515.70,705.53 L518.79,705.53 L521.86,705.53 L524.89,705.53 L527.08,705.53 L530.11,705.53 L533.19,705.53 L536.27,705.53 L539.30,705.53 L542.43,705.53 L544.45,705.53 L547.58,705.53 L550.62,705.53 L553.68,705.53 L556.82,705.53 L559.90,705.53 L561.79,705.53 L564.77,705.53 L567.77,705.53 L570.91,705.53 L574.05,705.53 L577.19,705.53 L579.19,705.53 L582.25,705.53 L585.38,705.53 L588.47,705.53 L591.51,705.53 L594.62,705.53 L596.54,705.53 L599.60,705.53 L602.69,705.53 L605.79,705.53 L608.92,705.53 L611.98,705.53 L613.91,705.53 L617.02,705.53 L620.03,705.53 L623.17,705.53 L626.28,705.53 L629.39,705.53 L631.28,705.53 L634.23,705.53 L637.34,705.53 L640.41,705.53 L643.45,705.53 L646.59,705.53 L649.63,705.53 L651.75,705.53 L654.83,705.53 L657.88,705.53 L661.01,705.53 L664.06,705.53 L667.11,705.53 L669.16,705.53 L672.21,705.53 L675.33,705.53 L678.39,705.53 L681.44,705.53 L684.58,705.53 L686.39,705.53 L689.50,705.53 L692.57,705.53 L695.62,705.53 L698.75,705.53 L701.80,705.53 L703.85,705.53 L706.93,705.53 L709.97,705.53 L713.10,705.53 L716.16,705.53 L719.21,705.53 L721.25,705.53 L724.29,705.53 L727.41,705.53 L730.48,705.53 L733.52,705.53 L736.65,705.53 L738.62,705.53 L741.72,705.53 L744.78,705.53 L747.82,705.53 L750.96,705.53 L754.02,705.53 L755.86,705.53 L758.89,705.53 L761.95,705.53 L765.09,705.53 L768.15,705.53 L771.20,705.53 L773.34,705.53 L776.36,705.53 L779.47,705.53 L782.54,705.53 L785.62,705.53 L788.76,705.53 L790.69,705.53 L793.80,705.53 L796.79,705.53 L799.85,705.53 L802.99,705.53 L806.13,705.53 L808.02,705.53 L811.03,705.53 L814.10,705.53 L817.22,705.53 L820.27,705.53 L823.37,705.53 L825.42,705.53 L828.48,705.53 L831.61,705.53 L834.65,705.53 L837.75,705.53 L840.85,705.53 L842.79,705.53 L845.92,705.53 L848.98,705.53 L852.06,705.53 L855.17,705.53 L858.22,705.41 L861.33,702.09 L863.16,702.09 L866.25,702.09 L869.35,702.09 L872.36,702.09 L875.51,700.08 L878.60,700.39 L880.65,700.39 L883.72,700.39 L886.79,700.39 L889.92,700.39 L893.01,700.39 L896.05,700.39 L898.07,700.39 L901.09,700.39 L904.18,700.39 L907.27,700.39 L910.36,700.39 L913.47,700.39 L915.43,700.39 L918.49,700.39 L921.59,700.39 L924.62,700.39 L927.75,700.39 L930.84,700.39 L932.62,700.39 L935.72,700.39 L938.81,700.39 L941.93,700.39 L945.01,700.39 L948.08,700.39 L950.17,700.39 L953.22,700.39 L956.34,700.39 L959.43,700.39 L962.51,700.39 L965.63,700.39 L967.51,697.87 L970.55,691.63 L973.66,694.66 L976.74,691.85 L979.86,691.85 L982.96,693.53 L984.76,693.53 L987.83,694.66 L990.91,694.66 L994.05,694.55 L997.19,694.55 L1000.33,695.34 L1002.26,695.34 L1005.29,695.34 L1008.43,695.34 L1011.55,695.34 L1014.68,695.34 L1017.75,695.34 L1019.63,695.34 L1022.65,695.34 L1025.77,695.34 L1028.89,695.34 L1032.00,695.34 L1035.11,695.34 L1038.17,695.34 L1041.22,695.03 L1044.25,695.03 L1045.61,695.03 L1048.68,695.03 L1051.73,695.03 L1054.87,695.03 L1057.92,695.03 L1060.98,695.03 L1063.07,695.03 L1066.12,695.03 L1069.24,695.03 L1072.32,695.03 L1075.38,695.03 L1078.52,695.03 L1080.44,695.03 L1083.54,695.03 L1086.62,695.03 L1089.68,695.03 L1092.80,695.03 L1095.87,695.03 L1097.73,695.03 L1100.82,695.03 L1103.88,695.03 L1106.97,695.03 L1110.04,695.03 L1113.11,695.03 L1115.17,695.03 L1118.22,695.03 L1121.35,695.03 L1124.44,695.03 L1127.49,695.03 L1130.00,695.03" fill="none" stroke="#7C3AED" stroke-width="2.4" stroke-linecap="round" stroke-linejoin="round"/>
<line x1="110" y1="800" x2="1130" y2="800" stroke="#98A2B3"/>
<line x1="110" y1="665" x2="110" y2="800" stroke="#98A2B3"/>
<text transform="translate(54 732.5) rotate(-90)" text-anchor="middle" class="label">Memory GiB</text>
<text x="110" y="653" class="legend" fill="#7C3AED">Memory GiB</text>
<text x="110.00" y="832" text-anchor="middle" class="axis">0</text>
<text x="280.00" y="832" text-anchor="middle" class="axis">5</text>
<text x="450.00" y="832" text-anchor="middle" class="axis">10</text>
<text x="620.00" y="832" text-anchor="middle" class="axis">15</text>
<text x="790.00" y="832" text-anchor="middle" class="axis">20</text>
<text x="960.00" y="832" text-anchor="middle" class="axis">25</text>
<text x="1130.00" y="832" text-anchor="middle" class="axis">30</text>
<text x="620.0" y="872" text-anchor="middle" class="label">Wall-clock time from GPU logging start (minutes)</text>
</svg>