<svg xmlns="http://www.w3.org/2000/svg" width="760" height="560" viewBox="0 0 760 560">
<rect width="760" height="560" fill="#FFFFFF"/>
<style>text{font-family:Inter,Arial,sans-serif}.title{font-size:28px;font-weight:700;fill:#172026}.subtitle{font-size:15px;fill:#667085}.axis{font-size:12px;fill:#667085}.label{font-size:13px;font-weight:600;fill:#344054}.legend{font-size:13px;fill:#344054}.note{font-size:13px;fill:#667085}.barlabel{font-size:14px;font-weight:650;fill:#172026}</style>
<text x="70" y="42" class="title">Training Throughput Profile</text>
<text x="70" y="68" class="subtitle">Cumulative and per-interval input-token throughput</text>
<line x1="88" y1="455.00" x2="708" y2="455.00" stroke="#E5E7EB"/>
<text x="78" y="459.00" text-anchor="end" class="axis">19.1k</text>
<line x1="88" y1="372.50" x2="708" y2="372.50" stroke="#E5E7EB"/>
<text x="78" y="376.50" text-anchor="end" class="axis">20.9k</text>
<line x1="88" y1="290.00" x2="708" y2="290.00" stroke="#E5E7EB"/>
<text x="78" y="294.00" text-anchor="end" class="axis">22.7k</text>
<line x1="88" y1="207.50" x2="708" y2="207.50" stroke="#E5E7EB"/>
<text x="78" y="211.50" text-anchor="end" class="axis">24.5k</text>
<line x1="88" y1="125.00" x2="708" y2="125.00" stroke="#E5E7EB"/>
<text x="78" y="129.00" text-anchor="end" class="axis">26.3k</text>
<line x1="88.00" y1="125" x2="88.00" y2="455" stroke="#E5E7EB" opacity="0.55"/>
<text x="88.00" y="483" text-anchor="middle" class="axis">0k</text>
<line x1="212.00" y1="125" x2="212.00" y2="455" stroke="#E5E7EB" opacity="0.55"/>
<text x="212.00" y="483" text-anchor="middle" class="axis">2k</text>
<line x1="336.00" y1="125" x2="336.00" y2="455" stroke="#E5E7EB" opacity="0.55"/>
<text x="336.00" y="483" text-anchor="middle" class="axis">4k</text>
<line x1="460.00" y1="125" x2="460.00" y2="455" stroke="#E5E7EB" opacity="0.55"/>
<text x="460.00" y="483" text-anchor="middle" class="axis">6k</text>
<line x1="584.00" y1="125" x2="584.00" y2="455" stroke="#E5E7EB" opacity="0.55"/>
<text x="584.00" y="483" text-anchor="middle" class="axis">8k</text>
<line x1="708.00" y1="125" x2="708.00" y2="455" stroke="#E5E7EB" opacity="0.55"/>
<text x="708.00" y="483" text-anchor="middle" class="axis">10k</text>
<path d="M88.00,317.61 L94.26,278.03 L100.53,244.82 L106.79,242.06 L113.05,240.27 L119.31,244.80 L125.58,247.04 L131.84,246.20 L138.10,249.23 L144.36,252.84 L150.63,259.62 L156.89,262.25 L163.15,261.52 L169.41,265.23 L175.68,267.43 L181.94,268.59 L188.20,270.53 L194.46,272.03 L200.73,272.85 L206.99,271.83 L213.25,272.64 L219.52,273.46 L225.78,274.71 L232.04,274.65 L238.30,276.78 L244.57,277.37 L250.83,278.18 L257.09,279.63 L263.35,281.26 L269.62,282.03 L275.88,284.36 L282.14,285.33 L288.40,286.69 L294.67,287.14 L300.93,289.13 L307.19,290.74 L313.45,291.81 L319.72,293.44 L325.98,294.45 L332.24,295.35 L338.51,296.37 L344.77,297.50 L351.03,298.37 L357.29,299.99 L363.56,300.87 L369.82,301.18 L376.08,302.06 L382.34,302.68 L388.61,303.50 L394.87,304.17 L401.13,305.15 L407.39,306.17 L413.66,306.71 L419.92,307.43 L426.18,307.92 L432.44,308.49 L438.71,308.79 L444.97,308.84 L451.23,309.07 L457.49,309.33 L463.76,310.15 L470.02,310.60 L476.28,311.46 L482.55,312.19 L488.81,312.33 L495.07,312.97 L501.33,313.34 L507.60,313.54 L513.86,313.77 L520.12,313.94 L526.38,314.44 L532.65,314.60 L538.91,314.79 L545.17,314.89 L551.43,315.21 L557.70,315.10 L563.96,315.47 L570.22,316.00 L576.48,316.45 L582.75,316.86 L589.01,317.30 L595.27,317.61 L601.54,317.97 L607.80,318.39 L614.06,318.72 L620.32,319.40 L626.59,319.68 L632.85,320.34 L639.11,321.09 L645.37,321.79 L651.64,322.96 L657.90,323.62 L664.16,324.16 L670.42,324.77 L676.69,325.08 L682.95,325.93 L689.21,326.68 L695.47,327.06 L701.74,327.64 L708.00,328.08" fill="none" stroke="#7C3AED" stroke-width="3" stroke-linecap="round"/>
<path d="M88.00,317.61 L94.26,235.26 L100.53,171.77 L106.79,233.68 L113.05,233.05 L119.31,266.93 L125.58,260.28 L131.84,240.26 L138.10,272.91 L144.36,284.31 L150.63,322.98 L156.89,290.39 L163.15,252.64 L169.41,311.27 L175.68,297.34 L181.94,285.71 L188.20,300.53 L194.46,297.06 L200.73,287.26 L206.99,252.10 L213.25,288.54 L219.52,290.51 L225.78,301.51 L232.04,273.19 L238.30,325.40 L244.57,291.94 L250.83,298.86 L257.09,317.42 L263.35,324.76 L269.62,304.09 L275.88,349.83 L282.14,314.49 L288.40,328.41 L294.67,301.74 L300.93,352.46 L307.19,344.13 L313.45,329.05 L319.72,350.47 L325.98,331.42 L332.24,329.06 L338.51,335.80 L344.77,341.65 L351.03,333.71 L357.29,365.27 L363.56,338.31 L369.82,314.58 L376.08,341.14 L382.34,331.06 L388.61,341.21 L394.87,335.93 L401.13,352.25 L407.39,355.50 L413.66,334.03 L419.92,344.16 L426.18,333.90 L432.44,338.76 L438.71,325.12 L444.97,311.65 L451.23,322.37 L457.49,324.53 L463.76,357.18 L470.02,337.04 L476.28,362.52 L482.55,356.10 L488.81,320.98 L495.07,353.06 L501.33,337.33 L507.60,326.29 L513.86,329.69 L520.12,325.17 L526.38,348.43 L532.65,325.71 L538.91,328.45 L545.17,321.72 L551.43,338.46 L557.70,307.12 L563.96,342.57 L570.22,355.03 L576.48,350.51 L582.75,348.13 L589.01,351.94 L595.27,342.00 L601.54,346.21 L607.80,352.52 L614.06,345.65 L620.32,373.62 L626.59,343.50 L632.85,374.81 L639.11,382.58 L645.37,381.10 L651.64,418.08 L657.90,380.44 L664.16,370.99 L670.42,378.37 L676.69,353.52 L682.95,400.64 L689.21,394.04 L695.47,362.80 L701.74,381.42 L708.00,370.08" fill="none" stroke="#0F766E" stroke-width="2.3" stroke-linecap="round" opacity="0.85"/>
<line x1="88" y1="455" x2="708" y2="455" stroke="#98A2B3"/>
<line x1="88" y1="125" x2="88" y2="455" stroke="#98A2B3"/>
<text x="398.0" y="522" text-anchor="middle" class="label">Gradient step</text>
<text transform="translate(25 290.0) rotate(-90)" text-anchor="middle" class="label">Tokens / second</text>
<line x1="478" y1="105" x2="506" y2="105" stroke="#7C3AED" stroke-width="4" stroke-linecap="round"/><text x="516" y="110" class="legend">Cumulative avg</text>
<line x1="478" y1="128" x2="506" y2="128" stroke="#0F766E" stroke-width="4" stroke-linecap="round"/><text x="516" y="133" class="legend">Interval</text>
</svg>