<?xml version="1.0" encoding="utf-8" standalone="no"?>
<!DOCTYPE svg PUBLIC "-//W3C//DTD SVG 1.1//EN"
  "http://www.w3.org/Graphics/SVG/1.1/DTD/svg11.dtd">
<svg xmlns:xlink="http://www.w3.org/1999/xlink" width="687.24pt" height="531.397969pt" viewBox="0 0 687.24 531.397969" xmlns="http://www.w3.org/2000/svg" version="1.1">
 <metadata>
  <rdf:RDF xmlns:dc="http://purl.org/dc/elements/1.1/" xmlns:cc="http://creativecommons.org/ns#" xmlns:rdf="http://www.w3.org/1999/02/22-rdf-syntax-ns#">
   <cc:Work>
    <dc:type rdf:resource="http://purl.org/dc/dcmitype/StillImage"/>
    <dc:date>2026-05-30T22:53:44.757909</dc:date>
    <dc:format>image/svg+xml</dc:format>
    <dc:creator>
     <cc:Agent>
      <dc:title>Matplotlib v3.10.9, https://matplotlib.org/</dc:title>
     </cc:Agent>
    </dc:creator>
   </cc:Work>
  </rdf:RDF>
 </metadata>
 <defs>
  <style type="text/css">*{stroke-linejoin: round; stroke-linecap: butt}</style>
 </defs>
 <g id="figure_1">
  <g id="patch_1">
   <path d="M 0 531.397969 
L 687.24 531.397969 
L 687.24 0 
L 0 0 
z
" style="fill: #ffffff"/>
  </g>
  <g id="axes_1">
   <g id="patch_2">
    <path d="M 94.14 309.387828 
L 680.04 309.387828 
L 680.04 23.077969 
L 94.14 23.077969 
z
" style="fill: #ffffff"/>
   </g>
   <g id="matplotlib.axis_1">
    <g id="xtick_1">
     <g id="line2d_1">
      <path d="M 115.391653 309.387828 
L 115.391653 23.077969 
" clip-path="url(#p42c0bfb4ab)" style="fill: none; stroke: #e5e7eb; stroke-width: 0.8; stroke-linecap: square"/>
     </g>
     <g id="line2d_2">
      <defs>
       <path id="m18c81cd733" d="M 0 0 
L 0 3.5 
" style="stroke: #374151; stroke-width: 0.8"/>
      </defs>
      <g>
       <use xlink:href="#m18c81cd733" x="115.391653" y="309.387828" style="fill: #374151; stroke: #374151; stroke-width: 0.8"/>
      </g>
     </g>
    </g>
    <g id="xtick_2">
     <g id="line2d_3">
      <path d="M 197.48646 309.387828 
L 197.48646 23.077969 
" clip-path="url(#p42c0bfb4ab)" style="fill: none; stroke: #e5e7eb; stroke-width: 0.8; stroke-linecap: square"/>
     </g>
     <g id="line2d_4">
      <g>
       <use xlink:href="#m18c81cd733" x="197.48646" y="309.387828" style="fill: #374151; stroke: #374151; stroke-width: 0.8"/>
      </g>
     </g>
    </g>
    <g id="xtick_3">
     <g id="line2d_5">
      <path d="M 279.581267 309.387828 
L 279.581267 23.077969 
" clip-path="url(#p42c0bfb4ab)" style="fill: none; stroke: #e5e7eb; stroke-width: 0.8; stroke-linecap: square"/>
     </g>
     <g id="line2d_6">
      <g>
       <use xlink:href="#m18c81cd733" x="279.581267" y="309.387828" style="fill: #374151; stroke: #374151; stroke-width: 0.8"/>
      </g>
     </g>
    </g>
    <g id="xtick_4">
     <g id="line2d_7">
      <path d="M 361.676075 309.387828 
L 361.676075 23.077969 
" clip-path="url(#p42c0bfb4ab)" style="fill: none; stroke: #e5e7eb; stroke-width: 0.8; stroke-linecap: square"/>
     </g>
     <g id="line2d_8">
      <g>
       <use xlink:href="#m18c81cd733" x="361.676075" y="309.387828" style="fill: #374151; stroke: #374151; stroke-width: 0.8"/>
      </g>
     </g>
    </g>
    <g id="xtick_5">
     <g id="line2d_9">
      <path d="M 443.770882 309.387828 
L 443.770882 23.077969 
" clip-path="url(#p42c0bfb4ab)" style="fill: none; stroke: #e5e7eb; stroke-width: 0.8; stroke-linecap: square"/>
     </g>
     <g id="line2d_10">
      <g>
       <use xlink:href="#m18c81cd733" x="443.770882" y="309.387828" style="fill: #374151; stroke: #374151; stroke-width: 0.8"/>
      </g>
     </g>
    </g>
    <g id="xtick_6">
     <g id="line2d_11">
      <path d="M 525.865689 309.387828 
L 525.865689 23.077969 
" clip-path="url(#p42c0bfb4ab)" style="fill: none; stroke: #e5e7eb; stroke-width: 0.8; stroke-linecap: square"/>
     </g>
     <g id="line2d_12">
      <g>
       <use xlink:href="#m18c81cd733" x="525.865689" y="309.387828" style="fill: #374151; stroke: #374151; stroke-width: 0.8"/>
      </g>
     </g>
    </g>
    <g id="xtick_7">
     <g id="line2d_13">
      <path d="M 607.960497 309.387828 
L 607.960497 23.077969 
" clip-path="url(#p42c0bfb4ab)" style="fill: none; stroke: #e5e7eb; stroke-width: 0.8; stroke-linecap: square"/>
     </g>
     <g id="line2d_14">
      <g>
       <use xlink:href="#m18c81cd733" x="607.960497" y="309.387828" style="fill: #374151; stroke: #374151; stroke-width: 0.8"/>
      </g>
     </g>
    </g>
   </g>
   <g id="matplotlib.axis_2">
    <g id="ytick_1">
     <g id="line2d_15">
      <path d="M 94.14 280.195202 
L 680.04 280.195202 
" clip-path="url(#p42c0bfb4ab)" style="fill: none; stroke: #e5e7eb; stroke-width: 0.8; stroke-linecap: square"/>
     </g>
     <g id="line2d_16">
      <defs>
       <path id="m80e1fb7cb1" d="M 0 0 
L -3.5 0 
" style="stroke: #374151; stroke-width: 0.8"/>
      </defs>
      <g>
       <use xlink:href="#m80e1fb7cb1" x="94.14" y="280.195202" style="fill: #374151; stroke: #374151; stroke-width: 0.8"/>
      </g>
     </g>
     <g id="text_1">
      <!-- 2 -->
      <g style="fill: #374151" transform="translate(80.14125 284.374342) scale(0.11 -0.11)">
       <defs>
        <path id="DejaVuSans-32" d="M 1228 531 
L 3431 531 
L 3431 0 
L 469 0 
L 469 531 
Q 828 903 1448 1529 
Q 2069 2156 2228 2338 
Q 2531 2678 2651 2914 
Q 2772 3150 2772 3378 
Q 2772 3750 2511 3984 
Q 2250 4219 1831 4219 
Q 1534 4219 1204 4116 
Q 875 4013 500 3803 
L 500 4441 
Q 881 4594 1212 4672 
Q 1544 4750 1819 4750 
Q 2544 4750 2975 4387 
Q 3406 4025 3406 3419 
Q 3406 3131 3298 2873 
Q 3191 2616 2906 2266 
Q 2828 2175 2409 1742 
Q 1991 1309 1228 531 
z
" transform="scale(0.015625)"/>
       </defs>
       <use xlink:href="#DejaVuSans-32"/>
      </g>
     </g>
    </g>
    <g id="ytick_2">
     <g id="line2d_17">
      <path d="M 94.14 229.747433 
L 680.04 229.747433 
" clip-path="url(#p42c0bfb4ab)" style="fill: none; stroke: #e5e7eb; stroke-width: 0.8; stroke-linecap: square"/>
     </g>
     <g id="line2d_18">
      <g>
       <use xlink:href="#m80e1fb7cb1" x="94.14" y="229.747433" style="fill: #374151; stroke: #374151; stroke-width: 0.8"/>
      </g>
     </g>
     <g id="text_2">
      <!-- 4 -->
      <g style="fill: #374151" transform="translate(80.14125 233.926574) scale(0.11 -0.11)">
       <defs>
        <path id="DejaVuSans-34" d="M 2419 4116 
L 825 1625 
L 2419 1625 
L 2419 4116 
z
M 2253 4666 
L 3047 4666 
L 3047 1625 
L 3713 1625 
L 3713 1100 
L 3047 1100 
L 3047 0 
L 2419 0 
L 2419 1100 
L 313 1100 
L 313 1709 
L 2253 4666 
z
" transform="scale(0.015625)"/>
       </defs>
       <use xlink:href="#DejaVuSans-34"/>
      </g>
     </g>
    </g>
    <g id="ytick_3">
     <g id="line2d_19">
      <path d="M 94.14 179.299664 
L 680.04 179.299664 
" clip-path="url(#p42c0bfb4ab)" style="fill: none; stroke: #e5e7eb; stroke-width: 0.8; stroke-linecap: square"/>
     </g>
     <g id="line2d_20">
      <g>
       <use xlink:href="#m80e1fb7cb1" x="94.14" y="179.299664" style="fill: #374151; stroke: #374151; stroke-width: 0.8"/>
      </g>
     </g>
     <g id="text_3">
      <!-- 6 -->
      <g style="fill: #374151" transform="translate(80.14125 183.478805) scale(0.11 -0.11)">
       <defs>
        <path id="DejaVuSans-36" d="M 2113 2584 
Q 1688 2584 1439 2293 
Q 1191 2003 1191 1497 
Q 1191 994 1439 701 
Q 1688 409 2113 409 
Q 2538 409 2786 701 
Q 3034 994 3034 1497 
Q 3034 2003 2786 2293 
Q 2538 2584 2113 2584 
z
M 3366 4563 
L 3366 3988 
Q 3128 4100 2886 4159 
Q 2644 4219 2406 4219 
Q 1781 4219 1451 3797 
Q 1122 3375 1075 2522 
Q 1259 2794 1537 2939 
Q 1816 3084 2150 3084 
Q 2853 3084 3261 2657 
Q 3669 2231 3669 1497 
Q 3669 778 3244 343 
Q 2819 -91 2113 -91 
Q 1303 -91 875 529 
Q 447 1150 447 2328 
Q 447 3434 972 4092 
Q 1497 4750 2381 4750 
Q 2619 4750 2861 4703 
Q 3103 4656 3366 4563 
z
" transform="scale(0.015625)"/>
       </defs>
       <use xlink:href="#DejaVuSans-36"/>
      </g>
     </g>
    </g>
    <g id="ytick_4">
     <g id="line2d_21">
      <path d="M 94.14 128.851896 
L 680.04 128.851896 
" clip-path="url(#p42c0bfb4ab)" style="fill: none; stroke: #e5e7eb; stroke-width: 0.8; stroke-linecap: square"/>
     </g>
     <g id="line2d_22">
      <g>
       <use xlink:href="#m80e1fb7cb1" x="94.14" y="128.851896" style="fill: #374151; stroke: #374151; stroke-width: 0.8"/>
      </g>
     </g>
     <g id="text_4">
      <!-- 8 -->
      <g style="fill: #374151" transform="translate(80.14125 133.031036) scale(0.11 -0.11)">
       <defs>
        <path id="DejaVuSans-38" d="M 2034 2216 
Q 1584 2216 1326 1975 
Q 1069 1734 1069 1313 
Q 1069 891 1326 650 
Q 1584 409 2034 409 
Q 2484 409 2743 651 
Q 3003 894 3003 1313 
Q 3003 1734 2745 1975 
Q 2488 2216 2034 2216 
z
M 1403 2484 
Q 997 2584 770 2862 
Q 544 3141 544 3541 
Q 544 4100 942 4425 
Q 1341 4750 2034 4750 
Q 2731 4750 3128 4425 
Q 3525 4100 3525 3541 
Q 3525 3141 3298 2862 
Q 3072 2584 2669 2484 
Q 3125 2378 3379 2068 
Q 3634 1759 3634 1313 
Q 3634 634 3220 271 
Q 2806 -91 2034 -91 
Q 1263 -91 848 271 
Q 434 634 434 1313 
Q 434 1759 690 2068 
Q 947 2378 1403 2484 
z
M 1172 3481 
Q 1172 3119 1398 2916 
Q 1625 2713 2034 2713 
Q 2441 2713 2670 2916 
Q 2900 3119 2900 3481 
Q 2900 3844 2670 4047 
Q 2441 4250 2034 4250 
Q 1625 4250 1398 4047 
Q 1172 3844 1172 3481 
z
" transform="scale(0.015625)"/>
       </defs>
       <use xlink:href="#DejaVuSans-38"/>
      </g>
     </g>
    </g>
    <g id="ytick_5">
     <g id="line2d_23">
      <path d="M 94.14 78.404127 
L 680.04 78.404127 
" clip-path="url(#p42c0bfb4ab)" style="fill: none; stroke: #e5e7eb; stroke-width: 0.8; stroke-linecap: square"/>
     </g>
     <g id="line2d_24">
      <g>
       <use xlink:href="#m80e1fb7cb1" x="94.14" y="78.404127" style="fill: #374151; stroke: #374151; stroke-width: 0.8"/>
      </g>
     </g>
     <g id="text_5">
      <!-- 10 -->
      <g style="fill: #374151" transform="translate(73.1425 82.583268) scale(0.11 -0.11)">
       <defs>
        <path id="DejaVuSans-31" d="M 794 531 
L 1825 531 
L 1825 4091 
L 703 3866 
L 703 4441 
L 1819 4666 
L 2450 4666 
L 2450 531 
L 3481 531 
L 3481 0 
L 794 0 
L 794 531 
z
" transform="scale(0.015625)"/>
        <path id="DejaVuSans-30" d="M 2034 4250 
Q 1547 4250 1301 3770 
Q 1056 3291 1056 2328 
Q 1056 1369 1301 889 
Q 1547 409 2034 409 
Q 2525 409 2770 889 
Q 3016 1369 3016 2328 
Q 3016 3291 2770 3770 
Q 2525 4250 2034 4250 
z
M 2034 4750 
Q 2819 4750 3233 4129 
Q 3647 3509 3647 2328 
Q 3647 1150 3233 529 
Q 2819 -91 2034 -91 
Q 1250 -91 836 529 
Q 422 1150 422 2328 
Q 422 3509 836 4129 
Q 1250 4750 2034 4750 
z
" transform="scale(0.015625)"/>
       </defs>
       <use xlink:href="#DejaVuSans-31"/>
       <use xlink:href="#DejaVuSans-30" transform="translate(63.623047 0)"/>
      </g>
     </g>
    </g>
    <g id="ytick_6">
     <g id="line2d_25">
      <path d="M 94.14 27.956359 
L 680.04 27.956359 
" clip-path="url(#p42c0bfb4ab)" style="fill: none; stroke: #e5e7eb; stroke-width: 0.8; stroke-linecap: square"/>
     </g>
     <g id="line2d_26">
      <g>
       <use xlink:href="#m80e1fb7cb1" x="94.14" y="27.956359" style="fill: #374151; stroke: #374151; stroke-width: 0.8"/>
      </g>
     </g>
     <g id="text_6">
      <!-- 12 -->
      <g style="fill: #374151" transform="translate(73.1425 32.135499) scale(0.11 -0.11)">
       <use xlink:href="#DejaVuSans-31"/>
       <use xlink:href="#DejaVuSans-32" transform="translate(63.623047 0)"/>
      </g>
     </g>
    </g>
    <g id="text_7">
     <!-- Cross-entropy loss -->
     <g style="fill: #111827" transform="translate(66.854844 216.937742) rotate(-90) scale(0.11 -0.11)">
      <defs>
       <path id="DejaVuSans-43" d="M 4122 4306 
L 4122 3641 
Q 3803 3938 3442 4084 
Q 3081 4231 2675 4231 
Q 1875 4231 1450 3742 
Q 1025 3253 1025 2328 
Q 1025 1406 1450 917 
Q 1875 428 2675 428 
Q 3081 428 3442 575 
Q 3803 722 4122 1019 
L 4122 359 
Q 3791 134 3420 21 
Q 3050 -91 2638 -91 
Q 1578 -91 968 557 
Q 359 1206 359 2328 
Q 359 3453 968 4101 
Q 1578 4750 2638 4750 
Q 3056 4750 3426 4639 
Q 3797 4528 4122 4306 
z
" transform="scale(0.015625)"/>
       <path id="DejaVuSans-72" d="M 2631 2963 
Q 2534 3019 2420 3045 
Q 2306 3072 2169 3072 
Q 1681 3072 1420 2755 
Q 1159 2438 1159 1844 
L 1159 0 
L 581 0 
L 581 3500 
L 1159 3500 
L 1159 2956 
Q 1341 3275 1631 3429 
Q 1922 3584 2338 3584 
Q 2397 3584 2469 3576 
Q 2541 3569 2628 3553 
L 2631 2963 
z
" transform="scale(0.015625)"/>
       <path id="DejaVuSans-6f" d="M 1959 3097 
Q 1497 3097 1228 2736 
Q 959 2375 959 1747 
Q 959 1119 1226 758 
Q 1494 397 1959 397 
Q 2419 397 2687 759 
Q 2956 1122 2956 1747 
Q 2956 2369 2687 2733 
Q 2419 3097 1959 3097 
z
M 1959 3584 
Q 2709 3584 3137 3096 
Q 3566 2609 3566 1747 
Q 3566 888 3137 398 
Q 2709 -91 1959 -91 
Q 1206 -91 779 398 
Q 353 888 353 1747 
Q 353 2609 779 3096 
Q 1206 3584 1959 3584 
z
" transform="scale(0.015625)"/>
       <path id="DejaVuSans-73" d="M 2834 3397 
L 2834 2853 
Q 2591 2978 2328 3040 
Q 2066 3103 1784 3103 
Q 1356 3103 1142 2972 
Q 928 2841 928 2578 
Q 928 2378 1081 2264 
Q 1234 2150 1697 2047 
L 1894 2003 
Q 2506 1872 2764 1633 
Q 3022 1394 3022 966 
Q 3022 478 2636 193 
Q 2250 -91 1575 -91 
Q 1294 -91 989 -36 
Q 684 19 347 128 
L 347 722 
Q 666 556 975 473 
Q 1284 391 1588 391 
Q 1994 391 2212 530 
Q 2431 669 2431 922 
Q 2431 1156 2273 1281 
Q 2116 1406 1581 1522 
L 1381 1569 
Q 847 1681 609 1914 
Q 372 2147 372 2553 
Q 372 3047 722 3315 
Q 1072 3584 1716 3584 
Q 2034 3584 2315 3537 
Q 2597 3491 2834 3397 
z
" transform="scale(0.015625)"/>
       <path id="DejaVuSans-2d" d="M 313 2009 
L 1997 2009 
L 1997 1497 
L 313 1497 
L 313 2009 
z
" transform="scale(0.015625)"/>
       <path id="DejaVuSans-65" d="M 3597 1894 
L 3597 1613 
L 953 1613 
Q 991 1019 1311 708 
Q 1631 397 2203 397 
Q 2534 397 2845 478 
Q 3156 559 3463 722 
L 3463 178 
Q 3153 47 2828 -22 
Q 2503 -91 2169 -91 
Q 1331 -91 842 396 
Q 353 884 353 1716 
Q 353 2575 817 3079 
Q 1281 3584 2069 3584 
Q 2775 3584 3186 3129 
Q 3597 2675 3597 1894 
z
M 3022 2063 
Q 3016 2534 2758 2815 
Q 2500 3097 2075 3097 
Q 1594 3097 1305 2825 
Q 1016 2553 972 2059 
L 3022 2063 
z
" transform="scale(0.015625)"/>
       <path id="DejaVuSans-6e" d="M 3513 2113 
L 3513 0 
L 2938 0 
L 2938 2094 
Q 2938 2591 2744 2837 
Q 2550 3084 2163 3084 
Q 1697 3084 1428 2787 
Q 1159 2491 1159 1978 
L 1159 0 
L 581 0 
L 581 3500 
L 1159 3500 
L 1159 2956 
Q 1366 3272 1645 3428 
Q 1925 3584 2291 3584 
Q 2894 3584 3203 3211 
Q 3513 2838 3513 2113 
z
" transform="scale(0.015625)"/>
       <path id="DejaVuSans-74" d="M 1172 4494 
L 1172 3500 
L 2356 3500 
L 2356 3053 
L 1172 3053 
L 1172 1153 
Q 1172 725 1289 603 
Q 1406 481 1766 481 
L 2356 481 
L 2356 0 
L 1766 0 
Q 1100 0 847 248 
Q 594 497 594 1153 
L 594 3053 
L 172 3053 
L 172 3500 
L 594 3500 
L 594 4494 
L 1172 4494 
z
" transform="scale(0.015625)"/>
       <path id="DejaVuSans-70" d="M 1159 525 
L 1159 -1331 
L 581 -1331 
L 581 3500 
L 1159 3500 
L 1159 2969 
Q 1341 3281 1617 3432 
Q 1894 3584 2278 3584 
Q 2916 3584 3314 3078 
Q 3713 2572 3713 1747 
Q 3713 922 3314 415 
Q 2916 -91 2278 -91 
Q 1894 -91 1617 61 
Q 1341 213 1159 525 
z
M 3116 1747 
Q 3116 2381 2855 2742 
Q 2594 3103 2138 3103 
Q 1681 3103 1420 2742 
Q 1159 2381 1159 1747 
Q 1159 1113 1420 752 
Q 1681 391 2138 391 
Q 2594 391 2855 752 
Q 3116 1113 3116 1747 
z
" transform="scale(0.015625)"/>
       <path id="DejaVuSans-79" d="M 2059 -325 
Q 1816 -950 1584 -1140 
Q 1353 -1331 966 -1331 
L 506 -1331 
L 506 -850 
L 844 -850 
Q 1081 -850 1212 -737 
Q 1344 -625 1503 -206 
L 1606 56 
L 191 3500 
L 800 3500 
L 1894 763 
L 2988 3500 
L 3597 3500 
L 2059 -325 
z
" transform="scale(0.015625)"/>
       <path id="DejaVuSans-20" transform="scale(0.015625)"/>
       <path id="DejaVuSans-6c" d="M 603 4863 
L 1178 4863 
L 1178 0 
L 603 0 
L 603 4863 
z
" transform="scale(0.015625)"/>
      </defs>
      <use xlink:href="#DejaVuSans-43"/>
      <use xlink:href="#DejaVuSans-72" transform="translate(69.824219 0)"/>
      <use xlink:href="#DejaVuSans-6f" transform="translate(108.6875 0)"/>
      <use xlink:href="#DejaVuSans-73" transform="translate(169.869141 0)"/>
      <use xlink:href="#DejaVuSans-73" transform="translate(221.96875 0)"/>
      <use xlink:href="#DejaVuSans-2d" transform="translate(274.068359 0)"/>
      <use xlink:href="#DejaVuSans-65" transform="translate(310.152344 0)"/>
      <use xlink:href="#DejaVuSans-6e" transform="translate(371.675781 0)"/>
      <use xlink:href="#DejaVuSans-74" transform="translate(435.054688 0)"/>
      <use xlink:href="#DejaVuSans-72" transform="translate(474.263672 0)"/>
      <use xlink:href="#DejaVuSans-6f" transform="translate(513.126953 0)"/>
      <use xlink:href="#DejaVuSans-70" transform="translate(574.308594 0)"/>
      <use xlink:href="#DejaVuSans-79" transform="translate(637.785156 0)"/>
      <use xlink:href="#DejaVuSans-20" transform="translate(696.964844 0)"/>
      <use xlink:href="#DejaVuSans-6c" transform="translate(728.751953 0)"/>
      <use xlink:href="#DejaVuSans-6f" transform="translate(756.535156 0)"/>
      <use xlink:href="#DejaVuSans-73" transform="translate(817.716797 0)"/>
      <use xlink:href="#DejaVuSans-73" transform="translate(869.816406 0)"/>
     </g>
    </g>
   </g>
   <g id="line2d_27">
    <path d="M 120.771818 249.738029 
L 126.151983 266.752405 
L 131.532149 273.413127 
L 136.912314 277.146105 
L 142.292479 279.935915 
L 147.672645 281.234872 
L 153.05281 282.634452 
L 158.432975 283.414607 
L 163.81314 284.456538 
L 169.193306 284.817706 
L 174.573471 285.724873 
L 179.953636 285.912514 
L 185.333802 286.509075 
L 190.713967 287.279815 
L 196.094132 287.60019 
L 201.474298 287.766383 
L 206.854463 288.000201 
L 212.234628 288.625818 
L 217.614793 288.653894 
L 222.994959 289.0268 
L 228.375124 289.166532 
L 233.755289 289.773774 
L 239.135455 289.677173 
L 244.51562 290.173135 
L 249.895785 290.225266 
L 255.27595 290.557786 
L 260.656116 290.550001 
L 266.036281 290.715138 
L 271.416446 290.911902 
L 276.796612 290.910261 
L 282.176777 291.340407 
L 287.556942 291.351824 
L 292.937107 291.704888 
L 298.317273 291.690148 
L 303.697438 292.025176 
L 309.077603 291.879352 
L 314.457769 292.015436 
L 319.837934 292.057419 
L 325.218099 292.45427 
L 330.598264 292.697788 
L 335.97843 292.485436 
L 341.358595 292.708986 
L 346.73876 292.786056 
L 352.118926 292.932274 
L 357.499091 293.156804 
L 362.879256 293.236725 
L 368.259421 293.360132 
L 373.639587 293.299924 
L 379.019752 293.380016 
L 384.399917 293.736905 
L 389.780083 293.605042 
L 395.160248 293.823495 
L 400.540413 293.953391 
L 405.920579 293.955824 
L 411.300744 293.867959 
L 416.680909 294.273138 
L 422.061074 294.033279 
L 427.44124 294.308328 
L 432.821405 294.444954 
L 438.20157 294.480399 
L 443.581736 294.488533 
L 448.961901 294.654741 
L 454.342066 294.803283 
L 459.722231 294.679752 
L 465.102397 294.724035 
L 470.482562 295.05145 
L 475.862727 295.052442 
L 481.242893 294.9752 
L 486.623058 294.870716 
L 492.003223 295.196783 
L 497.383388 295.217669 
L 502.763554 295.381781 
L 508.143719 295.176396 
L 513.523884 295.14802 
L 518.90405 295.398506 
L 524.284215 295.77693 
L 529.66438 295.496865 
L 535.044545 295.545854 
L 540.424711 295.544747 
L 545.804876 295.541458 
L 551.185041 295.748196 
L 556.565207 295.807979 
L 561.945372 295.869417 
L 567.325537 295.819261 
L 572.705702 295.723184 
L 578.085868 295.989805 
L 583.466033 295.869756 
L 588.846198 296.155742 
L 594.226364 296.233419 
L 599.606529 296.184091 
L 604.986694 295.965172 
L 610.36686 295.783641 
L 615.747025 295.975621 
L 621.12719 296.373743 
L 626.507355 296.117918 
L 631.887521 296.17261 
L 637.267686 296.126875 
L 642.647851 296.128773 
L 648.028017 296.312297 
L 653.408182 296.162414 
" clip-path="url(#p42c0bfb4ab)" style="fill: none; stroke-dasharray: 5.92,2.56; stroke-dashoffset: 0; stroke: #2563eb; stroke-opacity: 0.6; stroke-width: 1.6"/>
   </g>
   <g id="line2d_28">
    <path d="M 120.771818 249.456738 
L 126.151983 267.172051 
L 131.532149 273.590697 
L 136.912314 276.907157 
L 142.292479 279.695451 
L 147.672645 281.039055 
L 153.05281 282.434979 
L 158.432975 283.398788 
L 163.81314 284.440256 
L 169.193306 284.968864 
L 174.573471 285.556993 
L 179.953636 285.968476 
L 185.333802 286.59157 
L 190.713967 287.152685 
L 196.094132 287.547239 
L 201.474298 287.661255 
L 206.854463 288.454078 
L 212.234628 288.502324 
L 217.614793 288.511766 
L 222.994959 289.115156 
L 228.375124 289.37873 
L 233.755289 289.360015 
L 239.135455 289.75898 
L 244.51562 290.009928 
L 249.895785 289.947363 
L 255.27595 290.298262 
L 260.656116 290.533331 
L 266.036281 290.454547 
L 271.416446 290.669902 
L 276.796612 291.213692 
L 282.176777 290.977216 
L 287.556942 291.533087 
L 292.937107 291.537561 
L 298.317273 291.573209 
L 303.697438 291.670537 
L 309.077603 291.988789 
L 314.457769 291.894964 
L 319.837934 292.327011 
L 325.218099 292.33638 
L 330.598264 292.150264 
L 335.97843 292.343332 
L 341.358595 292.63267 
L 346.73876 292.806452 
L 352.118926 292.965173 
L 357.499091 293.042598 
L 362.879256 293.054135 
L 368.259421 293.34335 
L 373.639587 293.142304 
L 379.019752 293.383898 
L 384.399917 293.657618 
L 389.780083 293.442401 
L 395.160248 293.50376 
L 400.540413 293.838265 
L 405.920579 293.695133 
L 411.300744 293.691918 
L 416.680909 294.082644 
L 422.061074 294.23769 
L 427.44124 294.107451 
L 432.821405 294.214013 
L 438.20157 294.320094 
L 443.581736 294.251756 
L 448.961901 294.380245 
L 454.342066 294.418926 
L 459.722231 294.525705 
L 465.102397 294.743851 
L 470.482562 294.907779 
L 475.862727 294.935223 
L 481.242893 294.919329 
L 486.623058 294.859353 
L 492.003223 295.113669 
L 497.383388 295.134642 
L 502.763554 295.322587 
L 508.143719 295.161894 
L 513.523884 294.841185 
L 518.90405 295.31224 
L 524.284215 295.296983 
L 529.66438 295.347301 
L 535.044545 295.545779 
L 540.424711 295.425523 
L 545.804876 295.677876 
L 551.185041 295.560067 
L 556.565207 295.518828 
L 561.945372 295.690772 
L 567.325537 295.648651 
L 572.705702 295.865165 
L 578.085868 295.733296 
L 583.466033 295.942864 
L 588.846198 295.901085 
L 594.226364 295.874576 
L 599.606529 295.998925 
L 604.986694 295.904637 
L 610.36686 295.81562 
L 615.747025 295.869359 
L 621.12719 296.172466 
L 626.507355 295.85148 
L 631.887521 296.18895 
L 637.267686 295.991239 
L 642.647851 296.245853 
L 648.028017 295.992075 
L 653.408182 296.096701 
" clip-path="url(#p42c0bfb4ab)" style="fill: none; stroke: #2563eb; stroke-width: 2.2; stroke-linecap: square"/>
   </g>
   <g id="line2d_29">
    <path d="M 120.771818 250.26649 
L 126.151983 266.3314 
L 131.532149 271.956839 
L 136.912314 274.780891 
L 142.292479 277.178965 
L 147.672645 278.496658 
L 153.05281 278.3775 
L 158.432975 280.789017 
L 163.81314 281.071178 
L 169.193306 281.877607 
L 174.573471 282.345039 
L 179.953636 282.900399 
L 185.333802 283.412704 
L 190.713967 284.076244 
L 196.094132 284.347763 
L 201.474298 284.980028 
L 206.854463 274.795637 
L 212.234628 36.092053 
L 217.614793 285.359141 
L 222.994959 285.966647 
L 228.375124 286.204405 
L 233.755289 285.417229 
L 239.135455 287.114543 
L 244.51562 286.734669 
L 249.895785 286.801561 
L 255.27595 287.235676 
L 260.656116 287.502874 
L 266.036281 287.821521 
L 271.416446 288.154207 
L 276.796612 288.183765 
L 282.176777 288.373928 
L 287.556942 288.981835 
L 292.937107 288.725047 
L 298.317273 289.032071 
L 303.697438 288.485816 
L 309.077603 288.765138 
L 314.457769 289.174891 
L 319.837934 289.57553 
L 325.218099 289.832186 
L 330.598264 290.008804 
L 335.97843 290.153506 
L 341.358595 290.213037 
L 346.73876 290.297931 
L 352.118926 290.731613 
L 357.499091 290.608143 
L 362.879256 290.912408 
L 368.259421 290.773473 
L 373.639587 290.463179 
L 379.019752 291.358012 
L 384.399917 291.242174 
L 389.780083 291.673904 
L 395.160248 291.924591 
L 400.540413 291.834877 
L 405.920579 291.98743 
L 411.300744 292.146075 
L 416.680909 292.323607 
L 422.061074 292.483022 
L 427.44124 292.28787 
L 432.821405 292.549562 
L 438.20157 292.358553 
L 443.581736 292.721014 
L 448.961901 293.012363 
L 454.342066 292.826608 
L 459.722231 293.005907 
L 465.102397 293.336639 
L 470.482562 293.018239 
L 475.862727 293.540604 
L 481.242893 293.521182 
L 486.623058 293.728016 
L 492.003223 293.894675 
L 497.383388 293.811134 
L 502.763554 294.015487 
L 508.143719 293.926467 
L 513.523884 294.188223 
L 518.90405 294.218987 
L 524.284215 294.235191 
L 529.66438 294.552562 
L 535.044545 294.420652 
L 540.424711 294.727902 
L 545.804876 294.670674 
L 551.185041 294.475865 
L 556.565207 294.527761 
L 561.945372 294.997133 
L 567.325537 294.968898 
L 572.705702 295.043436 
L 578.085868 294.948757 
L 583.466033 295.306434 
L 588.846198 295.174833 
L 594.226364 295.216731 
L 599.606529 295.38931 
L 604.986694 295.182783 
L 610.36686 295.370842 
L 615.747025 295.419725 
L 621.12719 295.322016 
L 626.507355 295.373605 
L 631.887521 295.471511 
L 637.267686 295.495452 
L 642.647851 295.502948 
L 648.028017 295.533555 
L 653.408182 295.595937 
" clip-path="url(#p42c0bfb4ab)" style="fill: none; stroke-dasharray: 5.92,2.56; stroke-dashoffset: 0; stroke: #dc2626; stroke-opacity: 0.6; stroke-width: 1.6"/>
   </g>
   <g id="line2d_30">
    <path d="M 120.771818 250.449641 
L 126.151983 266.150516 
L 131.532149 271.833717 
L 136.912314 275.154555 
L 142.292479 277.359104 
L 147.672645 267.27342 
L 153.05281 278.792088 
L 158.432975 278.646493 
L 163.81314 265.612625 
L 169.193306 281.998185 
L 174.573471 282.534556 
L 179.953636 282.815562 
L 185.333802 283.495526 
L 190.713967 283.949274 
L 196.094132 284.527006 
L 201.474298 285.217217 
L 206.854463 284.656595 
L 212.234628 282.198283 
L 217.614793 285.376232 
L 222.994959 285.640171 
L 228.375124 286.429202 
L 233.755289 285.621378 
L 239.135455 286.603002 
L 244.51562 286.979826 
L 249.895785 286.894117 
L 255.27595 287.65015 
L 260.656116 287.809905 
L 266.036281 287.941181 
L 271.416446 287.908577 
L 276.796612 288.122042 
L 282.176777 288.39977 
L 287.556942 288.415445 
L 292.937107 288.797038 
L 298.317273 288.575049 
L 303.697438 288.737832 
L 309.077603 289.336666 
L 314.457769 289.124913 
L 319.837934 289.429785 
L 325.218099 289.689739 
L 330.598264 290.053165 
L 335.97843 290.022037 
L 341.358595 289.983621 
L 346.73876 290.011311 
L 352.118926 290.379449 
L 357.499091 290.678532 
L 362.879256 290.950472 
L 368.259421 290.669839 
L 373.639587 239.686252 
L 379.019752 291.219192 
L 384.399917 290.957463 
L 389.780083 291.3358 
L 395.160248 291.516417 
L 400.540413 291.774841 
L 405.920579 291.76889 
L 411.300744 291.762335 
L 416.680909 292.054821 
L 422.061074 292.573602 
L 427.44124 292.319638 
L 432.821405 292.239127 
L 438.20157 292.516362 
L 443.581736 292.563484 
L 448.961901 292.745773 
L 454.342066 292.756817 
L 459.722231 293.057461 
L 465.102397 293.330309 
L 470.482562 293.199652 
L 475.862727 293.242182 
L 481.242893 293.298099 
L 486.623058 293.601022 
L 492.003223 293.605139 
L 497.383388 293.877512 
L 502.763554 293.951115 
L 508.143719 293.985027 
L 513.523884 293.910795 
L 518.90405 294.201068 
L 524.284215 294.061454 
L 529.66438 294.234644 
L 535.044545 294.513614 
L 540.424711 294.509621 
L 545.804876 294.245959 
L 551.185041 294.635538 
L 556.565207 294.473249 
L 561.945372 294.675413 
L 567.325537 294.524598 
L 572.705702 294.578596 
L 578.085868 294.880407 
L 583.466033 294.822972 
L 588.846198 294.86515 
L 594.226364 295.060089 
L 599.606529 295.310679 
L 604.986694 295.097585 
L 610.36686 295.031108 
L 615.747025 295.283608 
L 621.12719 295.363953 
L 626.507355 295.264069 
L 631.887521 295.42156 
L 637.267686 295.121183 
L 642.647851 295.464459 
L 648.028017 295.271322 
L 653.408182 295.25976 
" clip-path="url(#p42c0bfb4ab)" style="fill: none; stroke: #dc2626; stroke-width: 2.2; stroke-linecap: square"/>
   </g>
   <g id="patch_3">
    <path d="M 94.14 309.387828 
L 94.14 23.077969 
" style="fill: none; stroke: #000000; stroke-width: 0.8; stroke-linejoin: miter; stroke-linecap: square"/>
   </g>
   <g id="patch_4">
    <path d="M 94.14 309.387828 
L 680.04 309.387828 
" style="fill: none; stroke: #000000; stroke-width: 0.8; stroke-linejoin: miter; stroke-linecap: square"/>
   </g>
   <g id="text_8">
    <!-- TinyStories B200 RMSNorm Ablation: Loss Comparison -->
    <g transform="translate(209.681641 17.077969) scale(0.13 -0.13)">
     <defs>
      <path id="DejaVuSans-54" d="M -19 4666 
L 3928 4666 
L 3928 4134 
L 2272 4134 
L 2272 0 
L 1638 0 
L 1638 4134 
L -19 4134 
L -19 4666 
z
" transform="scale(0.015625)"/>
      <path id="DejaVuSans-69" d="M 603 3500 
L 1178 3500 
L 1178 0 
L 603 0 
L 603 3500 
z
M 603 4863 
L 1178 4863 
L 1178 4134 
L 603 4134 
L 603 4863 
z
" transform="scale(0.015625)"/>
      <path id="DejaVuSans-53" d="M 3425 4513 
L 3425 3897 
Q 3066 4069 2747 4153 
Q 2428 4238 2131 4238 
Q 1616 4238 1336 4038 
Q 1056 3838 1056 3469 
Q 1056 3159 1242 3001 
Q 1428 2844 1947 2747 
L 2328 2669 
Q 3034 2534 3370 2195 
Q 3706 1856 3706 1288 
Q 3706 609 3251 259 
Q 2797 -91 1919 -91 
Q 1588 -91 1214 -16 
Q 841 59 441 206 
L 441 856 
Q 825 641 1194 531 
Q 1563 422 1919 422 
Q 2459 422 2753 634 
Q 3047 847 3047 1241 
Q 3047 1584 2836 1778 
Q 2625 1972 2144 2069 
L 1759 2144 
Q 1053 2284 737 2584 
Q 422 2884 422 3419 
Q 422 4038 858 4394 
Q 1294 4750 2059 4750 
Q 2388 4750 2728 4690 
Q 3069 4631 3425 4513 
z
" transform="scale(0.015625)"/>
      <path id="DejaVuSans-42" d="M 1259 2228 
L 1259 519 
L 2272 519 
Q 2781 519 3026 730 
Q 3272 941 3272 1375 
Q 3272 1813 3026 2020 
Q 2781 2228 2272 2228 
L 1259 2228 
z
M 1259 4147 
L 1259 2741 
L 2194 2741 
Q 2656 2741 2882 2914 
Q 3109 3088 3109 3444 
Q 3109 3797 2882 3972 
Q 2656 4147 2194 4147 
L 1259 4147 
z
M 628 4666 
L 2241 4666 
Q 2963 4666 3353 4366 
Q 3744 4066 3744 3513 
Q 3744 3084 3544 2831 
Q 3344 2578 2956 2516 
Q 3422 2416 3680 2098 
Q 3938 1781 3938 1306 
Q 3938 681 3513 340 
Q 3088 0 2303 0 
L 628 0 
L 628 4666 
z
" transform="scale(0.015625)"/>
      <path id="DejaVuSans-52" d="M 2841 2188 
Q 3044 2119 3236 1894 
Q 3428 1669 3622 1275 
L 4263 0 
L 3584 0 
L 2988 1197 
Q 2756 1666 2539 1819 
Q 2322 1972 1947 1972 
L 1259 1972 
L 1259 0 
L 628 0 
L 628 4666 
L 2053 4666 
Q 2853 4666 3247 4331 
Q 3641 3997 3641 3322 
Q 3641 2881 3436 2590 
Q 3231 2300 2841 2188 
z
M 1259 4147 
L 1259 2491 
L 2053 2491 
Q 2509 2491 2742 2702 
Q 2975 2913 2975 3322 
Q 2975 3731 2742 3939 
Q 2509 4147 2053 4147 
L 1259 4147 
z
" transform="scale(0.015625)"/>
      <path id="DejaVuSans-4d" d="M 628 4666 
L 1569 4666 
L 2759 1491 
L 3956 4666 
L 4897 4666 
L 4897 0 
L 4281 0 
L 4281 4097 
L 3078 897 
L 2444 897 
L 1241 4097 
L 1241 0 
L 628 0 
L 628 4666 
z
" transform="scale(0.015625)"/>
      <path id="DejaVuSans-4e" d="M 628 4666 
L 1478 4666 
L 3547 763 
L 3547 4666 
L 4159 4666 
L 4159 0 
L 3309 0 
L 1241 3903 
L 1241 0 
L 628 0 
L 628 4666 
z
" transform="scale(0.015625)"/>
      <path id="DejaVuSans-6d" d="M 3328 2828 
Q 3544 3216 3844 3400 
Q 4144 3584 4550 3584 
Q 5097 3584 5394 3201 
Q 5691 2819 5691 2113 
L 5691 0 
L 5113 0 
L 5113 2094 
Q 5113 2597 4934 2840 
Q 4756 3084 4391 3084 
Q 3944 3084 3684 2787 
Q 3425 2491 3425 1978 
L 3425 0 
L 2847 0 
L 2847 2094 
Q 2847 2600 2669 2842 
Q 2491 3084 2119 3084 
Q 1678 3084 1418 2786 
Q 1159 2488 1159 1978 
L 1159 0 
L 581 0 
L 581 3500 
L 1159 3500 
L 1159 2956 
Q 1356 3278 1631 3431 
Q 1906 3584 2284 3584 
Q 2666 3584 2933 3390 
Q 3200 3197 3328 2828 
z
" transform="scale(0.015625)"/>
      <path id="DejaVuSans-41" d="M 2188 4044 
L 1331 1722 
L 3047 1722 
L 2188 4044 
z
M 1831 4666 
L 2547 4666 
L 4325 0 
L 3669 0 
L 3244 1197 
L 1141 1197 
L 716 0 
L 50 0 
L 1831 4666 
z
" transform="scale(0.015625)"/>
      <path id="DejaVuSans-62" d="M 3116 1747 
Q 3116 2381 2855 2742 
Q 2594 3103 2138 3103 
Q 1681 3103 1420 2742 
Q 1159 2381 1159 1747 
Q 1159 1113 1420 752 
Q 1681 391 2138 391 
Q 2594 391 2855 752 
Q 3116 1113 3116 1747 
z
M 1159 2969 
Q 1341 3281 1617 3432 
Q 1894 3584 2278 3584 
Q 2916 3584 3314 3078 
Q 3713 2572 3713 1747 
Q 3713 922 3314 415 
Q 2916 -91 2278 -91 
Q 1894 -91 1617 61 
Q 1341 213 1159 525 
L 1159 0 
L 581 0 
L 581 4863 
L 1159 4863 
L 1159 2969 
z
" transform="scale(0.015625)"/>
      <path id="DejaVuSans-61" d="M 2194 1759 
Q 1497 1759 1228 1600 
Q 959 1441 959 1056 
Q 959 750 1161 570 
Q 1363 391 1709 391 
Q 2188 391 2477 730 
Q 2766 1069 2766 1631 
L 2766 1759 
L 2194 1759 
z
M 3341 1997 
L 3341 0 
L 2766 0 
L 2766 531 
Q 2569 213 2275 61 
Q 1981 -91 1556 -91 
Q 1019 -91 701 211 
Q 384 513 384 1019 
Q 384 1609 779 1909 
Q 1175 2209 1959 2209 
L 2766 2209 
L 2766 2266 
Q 2766 2663 2505 2880 
Q 2244 3097 1772 3097 
Q 1472 3097 1187 3025 
Q 903 2953 641 2809 
L 641 3341 
Q 956 3463 1253 3523 
Q 1550 3584 1831 3584 
Q 2591 3584 2966 3190 
Q 3341 2797 3341 1997 
z
" transform="scale(0.015625)"/>
      <path id="DejaVuSans-3a" d="M 750 794 
L 1409 794 
L 1409 0 
L 750 0 
L 750 794 
z
M 750 3309 
L 1409 3309 
L 1409 2516 
L 750 2516 
L 750 3309 
z
" transform="scale(0.015625)"/>
      <path id="DejaVuSans-4c" d="M 628 4666 
L 1259 4666 
L 1259 531 
L 3531 531 
L 3531 0 
L 628 0 
L 628 4666 
z
" transform="scale(0.015625)"/>
     </defs>
     <use xlink:href="#DejaVuSans-54"/>
     <use xlink:href="#DejaVuSans-69" transform="translate(57.958984 0)"/>
     <use xlink:href="#DejaVuSans-6e" transform="translate(85.742188 0)"/>
     <use xlink:href="#DejaVuSans-79" transform="translate(149.121094 0)"/>
     <use xlink:href="#DejaVuSans-53" transform="translate(208.300781 0)"/>
     <use xlink:href="#DejaVuSans-74" transform="translate(271.777344 0)"/>
     <use xlink:href="#DejaVuSans-6f" transform="translate(310.986328 0)"/>
     <use xlink:href="#DejaVuSans-72" transform="translate(372.167969 0)"/>
     <use xlink:href="#DejaVuSans-69" transform="translate(413.28125 0)"/>
     <use xlink:href="#DejaVuSans-65" transform="translate(441.064453 0)"/>
     <use xlink:href="#DejaVuSans-73" transform="translate(502.587891 0)"/>
     <use xlink:href="#DejaVuSans-20" transform="translate(554.6875 0)"/>
     <use xlink:href="#DejaVuSans-42" transform="translate(586.474609 0)"/>
     <use xlink:href="#DejaVuSans-32" transform="translate(655.078125 0)"/>
     <use xlink:href="#DejaVuSans-30" transform="translate(718.701172 0)"/>
     <use xlink:href="#DejaVuSans-30" transform="translate(782.324219 0)"/>
     <use xlink:href="#DejaVuSans-20" transform="translate(845.947266 0)"/>
     <use xlink:href="#DejaVuSans-52" transform="translate(877.734375 0)"/>
     <use xlink:href="#DejaVuSans-4d" transform="translate(947.216797 0)"/>
     <use xlink:href="#DejaVuSans-53" transform="translate(1033.496094 0)"/>
     <use xlink:href="#DejaVuSans-4e" transform="translate(1096.972656 0)"/>
     <use xlink:href="#DejaVuSans-6f" transform="translate(1171.777344 0)"/>
     <use xlink:href="#DejaVuSans-72" transform="translate(1232.958984 0)"/>
     <use xlink:href="#DejaVuSans-6d" transform="translate(1272.322266 0)"/>
     <use xlink:href="#DejaVuSans-20" transform="translate(1369.734375 0)"/>
     <use xlink:href="#DejaVuSans-41" transform="translate(1401.521484 0)"/>
     <use xlink:href="#DejaVuSans-62" transform="translate(1469.929688 0)"/>
     <use xlink:href="#DejaVuSans-6c" transform="translate(1533.40625 0)"/>
     <use xlink:href="#DejaVuSans-61" transform="translate(1561.189453 0)"/>
     <use xlink:href="#DejaVuSans-74" transform="translate(1622.46875 0)"/>
     <use xlink:href="#DejaVuSans-69" transform="translate(1661.677734 0)"/>
     <use xlink:href="#DejaVuSans-6f" transform="translate(1689.460938 0)"/>
     <use xlink:href="#DejaVuSans-6e" transform="translate(1750.642578 0)"/>
     <use xlink:href="#DejaVuSans-3a" transform="translate(1814.021484 0)"/>
     <use xlink:href="#DejaVuSans-20" transform="translate(1847.712891 0)"/>
     <use xlink:href="#DejaVuSans-4c" transform="translate(1879.5 0)"/>
     <use xlink:href="#DejaVuSans-6f" transform="translate(1933.462891 0)"/>
     <use xlink:href="#DejaVuSans-73" transform="translate(1994.644531 0)"/>
     <use xlink:href="#DejaVuSans-73" transform="translate(2046.744141 0)"/>
     <use xlink:href="#DejaVuSans-20" transform="translate(2098.84375 0)"/>
     <use xlink:href="#DejaVuSans-43" transform="translate(2130.630859 0)"/>
     <use xlink:href="#DejaVuSans-6f" transform="translate(2200.455078 0)"/>
     <use xlink:href="#DejaVuSans-6d" transform="translate(2261.636719 0)"/>
     <use xlink:href="#DejaVuSans-70" transform="translate(2359.048828 0)"/>
     <use xlink:href="#DejaVuSans-61" transform="translate(2422.525391 0)"/>
     <use xlink:href="#DejaVuSans-72" transform="translate(2483.804688 0)"/>
     <use xlink:href="#DejaVuSans-69" transform="translate(2524.917969 0)"/>
     <use xlink:href="#DejaVuSans-73" transform="translate(2552.701172 0)"/>
     <use xlink:href="#DejaVuSans-6f" transform="translate(2604.800781 0)"/>
     <use xlink:href="#DejaVuSans-6e" transform="translate(2665.982422 0)"/>
    </g>
   </g>
   <g id="legend_1">
    <g id="line2d_31">
     <path d="M 399.722812 36.176406 
L 409.722812 36.176406 
L 419.722812 36.176406 
" style="fill: none; stroke-dasharray: 5.92,2.56; stroke-dashoffset: 0; stroke: #2563eb; stroke-opacity: 0.6; stroke-width: 1.6"/>
    </g>
    <g id="text_9">
     <!-- With RMSNorm train -->
     <g transform="translate(427.722812 39.676406) scale(0.1 -0.1)">
      <defs>
       <path id="DejaVuSans-57" d="M 213 4666 
L 850 4666 
L 1831 722 
L 2809 4666 
L 3519 4666 
L 4500 722 
L 5478 4666 
L 6119 4666 
L 4947 0 
L 4153 0 
L 3169 4050 
L 2175 0 
L 1381 0 
L 213 4666 
z
" transform="scale(0.015625)"/>
       <path id="DejaVuSans-68" d="M 3513 2113 
L 3513 0 
L 2938 0 
L 2938 2094 
Q 2938 2591 2744 2837 
Q 2550 3084 2163 3084 
Q 1697 3084 1428 2787 
Q 1159 2491 1159 1978 
L 1159 0 
L 581 0 
L 581 4863 
L 1159 4863 
L 1159 2956 
Q 1366 3272 1645 3428 
Q 1925 3584 2291 3584 
Q 2894 3584 3203 3211 
Q 3513 2838 3513 2113 
z
" transform="scale(0.015625)"/>
      </defs>
      <use xlink:href="#DejaVuSans-57"/>
      <use xlink:href="#DejaVuSans-69" transform="translate(96.626953 0)"/>
      <use xlink:href="#DejaVuSans-74" transform="translate(124.410156 0)"/>
      <use xlink:href="#DejaVuSans-68" transform="translate(163.619141 0)"/>
      <use xlink:href="#DejaVuSans-20" transform="translate(226.998047 0)"/>
      <use xlink:href="#DejaVuSans-52" transform="translate(258.785156 0)"/>
      <use xlink:href="#DejaVuSans-4d" transform="translate(328.267578 0)"/>
      <use xlink:href="#DejaVuSans-53" transform="translate(414.546875 0)"/>
      <use xlink:href="#DejaVuSans-4e" transform="translate(478.023438 0)"/>
      <use xlink:href="#DejaVuSans-6f" transform="translate(552.828125 0)"/>
      <use xlink:href="#DejaVuSans-72" transform="translate(614.009766 0)"/>
      <use xlink:href="#DejaVuSans-6d" transform="translate(653.373047 0)"/>
      <use xlink:href="#DejaVuSans-20" transform="translate(750.785156 0)"/>
      <use xlink:href="#DejaVuSans-74" transform="translate(782.572266 0)"/>
      <use xlink:href="#DejaVuSans-72" transform="translate(821.78125 0)"/>
      <use xlink:href="#DejaVuSans-61" transform="translate(862.894531 0)"/>
      <use xlink:href="#DejaVuSans-69" transform="translate(924.173828 0)"/>
      <use xlink:href="#DejaVuSans-6e" transform="translate(951.957031 0)"/>
     </g>
    </g>
    <g id="line2d_32">
     <path d="M 399.722812 50.854531 
L 409.722812 50.854531 
L 419.722812 50.854531 
" style="fill: none; stroke: #2563eb; stroke-width: 2.2; stroke-linecap: square"/>
    </g>
    <g id="text_10">
     <!-- With RMSNorm valid -->
     <g transform="translate(427.722812 54.354531) scale(0.1 -0.1)">
      <defs>
       <path id="DejaVuSans-76" d="M 191 3500 
L 800 3500 
L 1894 563 
L 2988 3500 
L 3597 3500 
L 2284 0 
L 1503 0 
L 191 3500 
z
" transform="scale(0.015625)"/>
       <path id="DejaVuSans-64" d="M 2906 2969 
L 2906 4863 
L 3481 4863 
L 3481 0 
L 2906 0 
L 2906 525 
Q 2725 213 2448 61 
Q 2172 -91 1784 -91 
Q 1150 -91 751 415 
Q 353 922 353 1747 
Q 353 2572 751 3078 
Q 1150 3584 1784 3584 
Q 2172 3584 2448 3432 
Q 2725 3281 2906 2969 
z
M 947 1747 
Q 947 1113 1208 752 
Q 1469 391 1925 391 
Q 2381 391 2643 752 
Q 2906 1113 2906 1747 
Q 2906 2381 2643 2742 
Q 2381 3103 1925 3103 
Q 1469 3103 1208 2742 
Q 947 2381 947 1747 
z
" transform="scale(0.015625)"/>
      </defs>
      <use xlink:href="#DejaVuSans-57"/>
      <use xlink:href="#DejaVuSans-69" transform="translate(96.626953 0)"/>
      <use xlink:href="#DejaVuSans-74" transform="translate(124.410156 0)"/>
      <use xlink:href="#DejaVuSans-68" transform="translate(163.619141 0)"/>
      <use xlink:href="#DejaVuSans-20" transform="translate(226.998047 0)"/>
      <use xlink:href="#DejaVuSans-52" transform="translate(258.785156 0)"/>
      <use xlink:href="#DejaVuSans-4d" transform="translate(328.267578 0)"/>
      <use xlink:href="#DejaVuSans-53" transform="translate(414.546875 0)"/>
      <use xlink:href="#DejaVuSans-4e" transform="translate(478.023438 0)"/>
      <use xlink:href="#DejaVuSans-6f" transform="translate(552.828125 0)"/>
      <use xlink:href="#DejaVuSans-72" transform="translate(614.009766 0)"/>
      <use xlink:href="#DejaVuSans-6d" transform="translate(653.373047 0)"/>
      <use xlink:href="#DejaVuSans-20" transform="translate(750.785156 0)"/>
      <use xlink:href="#DejaVuSans-76" transform="translate(782.572266 0)"/>
      <use xlink:href="#DejaVuSans-61" transform="translate(841.751953 0)"/>
      <use xlink:href="#DejaVuSans-6c" transform="translate(903.03125 0)"/>
      <use xlink:href="#DejaVuSans-69" transform="translate(930.814453 0)"/>
      <use xlink:href="#DejaVuSans-64" transform="translate(958.597656 0)"/>
     </g>
    </g>
    <g id="line2d_33">
     <path d="M 549.930625 36.176406 
L 559.930625 36.176406 
L 569.930625 36.176406 
" style="fill: none; stroke-dasharray: 5.92,2.56; stroke-dashoffset: 0; stroke: #dc2626; stroke-opacity: 0.6; stroke-width: 1.6"/>
    </g>
    <g id="text_11">
     <!-- No RMSNorm train -->
     <g transform="translate(577.930625 39.676406) scale(0.1 -0.1)">
      <use xlink:href="#DejaVuSans-4e"/>
      <use xlink:href="#DejaVuSans-6f" transform="translate(74.804688 0)"/>
      <use xlink:href="#DejaVuSans-20" transform="translate(135.986328 0)"/>
      <use xlink:href="#DejaVuSans-52" transform="translate(167.773438 0)"/>
      <use xlink:href="#DejaVuSans-4d" transform="translate(237.255859 0)"/>
      <use xlink:href="#DejaVuSans-53" transform="translate(323.535156 0)"/>
      <use xlink:href="#DejaVuSans-4e" transform="translate(387.011719 0)"/>
      <use xlink:href="#DejaVuSans-6f" transform="translate(461.816406 0)"/>
      <use xlink:href="#DejaVuSans-72" transform="translate(522.998047 0)"/>
      <use xlink:href="#DejaVuSans-6d" transform="translate(562.361328 0)"/>
      <use xlink:href="#DejaVuSans-20" transform="translate(659.773438 0)"/>
      <use xlink:href="#DejaVuSans-74" transform="translate(691.560547 0)"/>
      <use xlink:href="#DejaVuSans-72" transform="translate(730.769531 0)"/>
      <use xlink:href="#DejaVuSans-61" transform="translate(771.882812 0)"/>
      <use xlink:href="#DejaVuSans-69" transform="translate(833.162109 0)"/>
      <use xlink:href="#DejaVuSans-6e" transform="translate(860.945312 0)"/>
     </g>
    </g>
    <g id="line2d_34">
     <path d="M 549.930625 50.854531 
L 559.930625 50.854531 
L 569.930625 50.854531 
" style="fill: none; stroke: #dc2626; stroke-width: 2.2; stroke-linecap: square"/>
    </g>
    <g id="text_12">
     <!-- No RMSNorm valid -->
     <g transform="translate(577.930625 54.354531) scale(0.1 -0.1)">
      <use xlink:href="#DejaVuSans-4e"/>
      <use xlink:href="#DejaVuSans-6f" transform="translate(74.804688 0)"/>
      <use xlink:href="#DejaVuSans-20" transform="translate(135.986328 0)"/>
      <use xlink:href="#DejaVuSans-52" transform="translate(167.773438 0)"/>
      <use xlink:href="#DejaVuSans-4d" transform="translate(237.255859 0)"/>
      <use xlink:href="#DejaVuSans-53" transform="translate(323.535156 0)"/>
      <use xlink:href="#DejaVuSans-4e" transform="translate(387.011719 0)"/>
      <use xlink:href="#DejaVuSans-6f" transform="translate(461.816406 0)"/>
      <use xlink:href="#DejaVuSans-72" transform="translate(522.998047 0)"/>
      <use xlink:href="#DejaVuSans-6d" transform="translate(562.361328 0)"/>
      <use xlink:href="#DejaVuSans-20" transform="translate(659.773438 0)"/>
      <use xlink:href="#DejaVuSans-76" transform="translate(691.560547 0)"/>
      <use xlink:href="#DejaVuSans-61" transform="translate(750.740234 0)"/>
      <use xlink:href="#DejaVuSans-6c" transform="translate(812.019531 0)"/>
      <use xlink:href="#DejaVuSans-69" transform="translate(839.802734 0)"/>
      <use xlink:href="#DejaVuSans-64" transform="translate(867.585938 0)"/>
     </g>
    </g>
   </g>
  </g>
  <g id="axes_2">
   <g id="patch_5">
    <path d="M 94.14 466.597969 
L 680.04 466.597969 
L 680.04 336.457124 
L 94.14 336.457124 
z
" style="fill: #ffffff"/>
   </g>
   <g id="FillBetweenPolyCollection_1">
    <defs>
     <path id="mdea52ae87d" d="M 120.771818 -72.872931 
L 120.771818 -70.715493 
L 126.151983 -75.092583 
L 131.532149 -76.6906 
L 136.912314 -76.681087 
L 142.292479 -77.949484 
L 147.672645 -102.783704 
L 153.05281 -80.788417 
L 158.432975 -83.198994 
L 163.81314 -113.782702 
L 169.193306 -79.327795 
L 174.573471 -79.440258 
L 179.953636 -79.723765 
L 185.333802 -79.600195 
L 190.713967 -79.833491 
L 196.094132 -79.435469 
L 201.474298 -78.183479 
L 206.854463 -81.124324 
L 212.234628 -86.570718 
L 217.614793 -79.686001 
L 222.994959 -80.42358 
L 228.375124 -79.281838 
L 233.755289 -80.996461 
L 239.135455 -79.730423 
L 244.51562 -79.456913 
L 249.895785 -79.507202 
L 255.27595 -78.626902 
L 260.656116 -78.790549 
L 266.036281 -78.334118 
L 271.416446 -78.872899 
L 276.796612 -79.590649 
L 282.176777 -78.473356 
L 287.556942 -79.647126 
L 292.937107 -78.8277 
L 298.317273 -79.387506 
L 303.697438 -79.245282 
L 309.077603 -78.635618 
L 314.457769 -78.89186 
L 319.837934 -79.168192 
L 325.218099 -78.623707 
L 330.598264 -77.42963 
L 335.97843 -77.916777 
L 341.358595 -78.62894 
L 346.73876 -78.946376 
L 352.118926 -78.491343 
L 357.499091 -78.009711 
L 362.879256 -77.443893 
L 368.259421 -78.682091 
L 373.639587 -189.025352 
L 379.019752 -77.576532 
L 384.399917 -78.739986 
L 389.780083 -77.450277 
L 395.160248 -77.191147 
L 400.540413 -77.35646 
L 405.920579 -77.058384 
L 411.300744 -77.065643 
L 416.680909 -77.279102 
L 422.061074 -76.488757 
L 427.44124 -76.757596 
L 432.821405 -77.164078 
L 438.20157 -76.792185 
L 443.581736 -76.541307 
L 448.961901 -76.424408 
L 454.342066 -76.484458 
L 459.722231 -76.063217 
L 465.102397 -75.944357 
L 470.482562 -76.584449 
L 475.862727 -76.551669 
L 481.242893 -76.395634 
L 486.623058 -75.607105 
L 492.003223 -76.150754 
L 497.383388 -75.604498 
L 502.763554 -75.852945 
L 508.143719 -75.430096 
L 513.523884 -74.894536 
L 518.90405 -75.28735 
L 524.284215 -75.557561 
L 529.66438 -75.290578 
L 535.044545 -75.115679 
L 540.424711 -74.863057 
L 545.804876 -75.984284 
L 551.185041 -74.881802 
L 556.565207 -75.144826 
L 561.945372 -75.079163 
L 567.325537 -75.31534 
L 572.705702 -75.668462 
L 578.085868 -74.726139 
L 583.466033 -75.306297 
L 588.846198 -75.123872 
L 594.226364 -74.642698 
L 599.606529 -74.368391 
L 604.986694 -74.62654 
L 610.36686 -74.577564 
L 615.747025 -74.145686 
L 621.12719 -74.629716 
L 626.507355 -74.149292 
L 631.887521 -74.540362 
L 637.267686 -74.763439 
L 642.647851 -74.570789 
L 648.028017 -74.439026 
L 653.408182 -74.691484 
L 653.408182 -72.872931 
L 653.408182 -72.872931 
L 648.028017 -72.872931 
L 642.647851 -72.872931 
L 637.267686 -72.872931 
L 631.887521 -72.872931 
L 626.507355 -72.872931 
L 621.12719 -72.872931 
L 615.747025 -72.872931 
L 610.36686 -72.872931 
L 604.986694 -72.872931 
L 599.606529 -72.872931 
L 594.226364 -72.872931 
L 588.846198 -72.872931 
L 583.466033 -72.872931 
L 578.085868 -72.872931 
L 572.705702 -72.872931 
L 567.325537 -72.872931 
L 561.945372 -72.872931 
L 556.565207 -72.872931 
L 551.185041 -72.872931 
L 545.804876 -72.872931 
L 540.424711 -72.872931 
L 535.044545 -72.872931 
L 529.66438 -72.872931 
L 524.284215 -72.872931 
L 518.90405 -72.872931 
L 513.523884 -72.872931 
L 508.143719 -72.872931 
L 502.763554 -72.872931 
L 497.383388 -72.872931 
L 492.003223 -72.872931 
L 486.623058 -72.872931 
L 481.242893 -72.872931 
L 475.862727 -72.872931 
L 470.482562 -72.872931 
L 465.102397 -72.872931 
L 459.722231 -72.872931 
L 454.342066 -72.872931 
L 448.961901 -72.872931 
L 443.581736 -72.872931 
L 438.20157 -72.872931 
L 432.821405 -72.872931 
L 427.44124 -72.872931 
L 422.061074 -72.872931 
L 416.680909 -72.872931 
L 411.300744 -72.872931 
L 405.920579 -72.872931 
L 400.540413 -72.872931 
L 395.160248 -72.872931 
L 389.780083 -72.872931 
L 384.399917 -72.872931 
L 379.019752 -72.872931 
L 373.639587 -72.872931 
L 368.259421 -72.872931 
L 362.879256 -72.872931 
L 357.499091 -72.872931 
L 352.118926 -72.872931 
L 346.73876 -72.872931 
L 341.358595 -72.872931 
L 335.97843 -72.872931 
L 330.598264 -72.872931 
L 325.218099 -72.872931 
L 319.837934 -72.872931 
L 314.457769 -72.872931 
L 309.077603 -72.872931 
L 303.697438 -72.872931 
L 298.317273 -72.872931 
L 292.937107 -72.872931 
L 287.556942 -72.872931 
L 282.176777 -72.872931 
L 276.796612 -72.872931 
L 271.416446 -72.872931 
L 266.036281 -72.872931 
L 260.656116 -72.872931 
L 255.27595 -72.872931 
L 249.895785 -72.872931 
L 244.51562 -72.872931 
L 239.135455 -72.872931 
L 233.755289 -72.872931 
L 228.375124 -72.872931 
L 222.994959 -72.872931 
L 217.614793 -72.872931 
L 212.234628 -72.872931 
L 206.854463 -72.872931 
L 201.474298 -72.872931 
L 196.094132 -72.872931 
L 190.713967 -72.872931 
L 185.333802 -72.872931 
L 179.953636 -72.872931 
L 174.573471 -72.872931 
L 169.193306 -72.872931 
L 163.81314 -72.872931 
L 158.432975 -72.872931 
L 153.05281 -72.872931 
L 147.672645 -72.872931 
L 142.292479 -72.872931 
L 136.912314 -72.872931 
L 131.532149 -72.872931 
L 126.151983 -72.872931 
L 120.771818 -72.872931 
z
" style="stroke: #fed7aa; stroke-opacity: 0.55"/>
    </defs>
    <g clip-path="url(#p0967f4ed9b)">
     <use xlink:href="#mdea52ae87d" x="0" y="531.397969" style="fill: #fed7aa; fill-opacity: 0.55; stroke: #fed7aa; stroke-opacity: 0.55"/>
    </g>
   </g>
   <g id="matplotlib.axis_3">
    <g id="xtick_8">
     <g id="line2d_35">
      <path d="M 115.391653 466.597969 
L 115.391653 336.457124 
" clip-path="url(#p0967f4ed9b)" style="fill: none; stroke: #e5e7eb; stroke-width: 0.8; stroke-linecap: square"/>
     </g>
     <g id="line2d_36">
      <g>
       <use xlink:href="#m18c81cd733" x="115.391653" y="466.597969" style="fill: #374151; stroke: #374151; stroke-width: 0.8"/>
      </g>
     </g>
     <g id="text_13">
      <!-- 0 -->
      <g style="fill: #374151" transform="translate(111.892278 481.95625) scale(0.11 -0.11)">
       <use xlink:href="#DejaVuSans-30"/>
      </g>
     </g>
    </g>
    <g id="xtick_9">
     <g id="line2d_37">
      <path d="M 197.48646 466.597969 
L 197.48646 336.457124 
" clip-path="url(#p0967f4ed9b)" style="fill: none; stroke: #e5e7eb; stroke-width: 0.8; stroke-linecap: square"/>
     </g>
     <g id="line2d_38">
      <g>
       <use xlink:href="#m18c81cd733" x="197.48646" y="466.597969" style="fill: #374151; stroke: #374151; stroke-width: 0.8"/>
      </g>
     </g>
     <g id="text_14">
      <!-- 50 -->
      <g style="fill: #374151" transform="translate(190.48771 481.95625) scale(0.11 -0.11)">
       <defs>
        <path id="DejaVuSans-35" d="M 691 4666 
L 3169 4666 
L 3169 4134 
L 1269 4134 
L 1269 2991 
Q 1406 3038 1543 3061 
Q 1681 3084 1819 3084 
Q 2600 3084 3056 2656 
Q 3513 2228 3513 1497 
Q 3513 744 3044 326 
Q 2575 -91 1722 -91 
Q 1428 -91 1123 -41 
Q 819 9 494 109 
L 494 744 
Q 775 591 1075 516 
Q 1375 441 1709 441 
Q 2250 441 2565 725 
Q 2881 1009 2881 1497 
Q 2881 1984 2565 2268 
Q 2250 2553 1709 2553 
Q 1456 2553 1204 2497 
Q 953 2441 691 2322 
L 691 4666 
z
" transform="scale(0.015625)"/>
       </defs>
       <use xlink:href="#DejaVuSans-35"/>
       <use xlink:href="#DejaVuSans-30" transform="translate(63.623047 0)"/>
      </g>
     </g>
    </g>
    <g id="xtick_10">
     <g id="line2d_39">
      <path d="M 279.581267 466.597969 
L 279.581267 336.457124 
" clip-path="url(#p0967f4ed9b)" style="fill: none; stroke: #e5e7eb; stroke-width: 0.8; stroke-linecap: square"/>
     </g>
     <g id="line2d_40">
      <g>
       <use xlink:href="#m18c81cd733" x="279.581267" y="466.597969" style="fill: #374151; stroke: #374151; stroke-width: 0.8"/>
      </g>
     </g>
     <g id="text_15">
      <!-- 100 -->
      <g style="fill: #374151" transform="translate(269.083142 481.95625) scale(0.11 -0.11)">
       <use xlink:href="#DejaVuSans-31"/>
       <use xlink:href="#DejaVuSans-30" transform="translate(63.623047 0)"/>
       <use xlink:href="#DejaVuSans-30" transform="translate(127.246094 0)"/>
      </g>
     </g>
    </g>
    <g id="xtick_11">
     <g id="line2d_41">
      <path d="M 361.676075 466.597969 
L 361.676075 336.457124 
" clip-path="url(#p0967f4ed9b)" style="fill: none; stroke: #e5e7eb; stroke-width: 0.8; stroke-linecap: square"/>
     </g>
     <g id="line2d_42">
      <g>
       <use xlink:href="#m18c81cd733" x="361.676075" y="466.597969" style="fill: #374151; stroke: #374151; stroke-width: 0.8"/>
      </g>
     </g>
     <g id="text_16">
      <!-- 150 -->
      <g style="fill: #374151" transform="translate(351.17795 481.95625) scale(0.11 -0.11)">
       <use xlink:href="#DejaVuSans-31"/>
       <use xlink:href="#DejaVuSans-35" transform="translate(63.623047 0)"/>
       <use xlink:href="#DejaVuSans-30" transform="translate(127.246094 0)"/>
      </g>
     </g>
    </g>
    <g id="xtick_12">
     <g id="line2d_43">
      <path d="M 443.770882 466.597969 
L 443.770882 336.457124 
" clip-path="url(#p0967f4ed9b)" style="fill: none; stroke: #e5e7eb; stroke-width: 0.8; stroke-linecap: square"/>
     </g>
     <g id="line2d_44">
      <g>
       <use xlink:href="#m18c81cd733" x="443.770882" y="466.597969" style="fill: #374151; stroke: #374151; stroke-width: 0.8"/>
      </g>
     </g>
     <g id="text_17">
      <!-- 200 -->
      <g style="fill: #374151" transform="translate(433.272757 481.95625) scale(0.11 -0.11)">
       <use xlink:href="#DejaVuSans-32"/>
       <use xlink:href="#DejaVuSans-30" transform="translate(63.623047 0)"/>
       <use xlink:href="#DejaVuSans-30" transform="translate(127.246094 0)"/>
      </g>
     </g>
    </g>
    <g id="xtick_13">
     <g id="line2d_45">
      <path d="M 525.865689 466.597969 
L 525.865689 336.457124 
" clip-path="url(#p0967f4ed9b)" style="fill: none; stroke: #e5e7eb; stroke-width: 0.8; stroke-linecap: square"/>
     </g>
     <g id="line2d_46">
      <g>
       <use xlink:href="#m18c81cd733" x="525.865689" y="466.597969" style="fill: #374151; stroke: #374151; stroke-width: 0.8"/>
      </g>
     </g>
     <g id="text_18">
      <!-- 250 -->
      <g style="fill: #374151" transform="translate(515.367564 481.95625) scale(0.11 -0.11)">
       <use xlink:href="#DejaVuSans-32"/>
       <use xlink:href="#DejaVuSans-35" transform="translate(63.623047 0)"/>
       <use xlink:href="#DejaVuSans-30" transform="translate(127.246094 0)"/>
      </g>
     </g>
    </g>
    <g id="xtick_14">
     <g id="line2d_47">
      <path d="M 607.960497 466.597969 
L 607.960497 336.457124 
" clip-path="url(#p0967f4ed9b)" style="fill: none; stroke: #e5e7eb; stroke-width: 0.8; stroke-linecap: square"/>
     </g>
     <g id="line2d_48">
      <g>
       <use xlink:href="#m18c81cd733" x="607.960497" y="466.597969" style="fill: #374151; stroke: #374151; stroke-width: 0.8"/>
      </g>
     </g>
     <g id="text_19">
      <!-- 300 -->
      <g style="fill: #374151" transform="translate(597.462372 481.95625) scale(0.11 -0.11)">
       <defs>
        <path id="DejaVuSans-33" d="M 2597 2516 
Q 3050 2419 3304 2112 
Q 3559 1806 3559 1356 
Q 3559 666 3084 287 
Q 2609 -91 1734 -91 
Q 1441 -91 1130 -33 
Q 819 25 488 141 
L 488 750 
Q 750 597 1062 519 
Q 1375 441 1716 441 
Q 2309 441 2620 675 
Q 2931 909 2931 1356 
Q 2931 1769 2642 2001 
Q 2353 2234 1838 2234 
L 1294 2234 
L 1294 2753 
L 1863 2753 
Q 2328 2753 2575 2939 
Q 2822 3125 2822 3475 
Q 2822 3834 2567 4026 
Q 2313 4219 1838 4219 
Q 1578 4219 1281 4162 
Q 984 4106 628 3988 
L 628 4550 
Q 988 4650 1302 4700 
Q 1616 4750 1894 4750 
Q 2613 4750 3031 4423 
Q 3450 4097 3450 3541 
Q 3450 3153 3228 2886 
Q 3006 2619 2597 2516 
z
" transform="scale(0.015625)"/>
       </defs>
       <use xlink:href="#DejaVuSans-33"/>
       <use xlink:href="#DejaVuSans-30" transform="translate(63.623047 0)"/>
       <use xlink:href="#DejaVuSans-30" transform="translate(127.246094 0)"/>
      </g>
     </g>
    </g>
    <g id="text_20">
     <!-- Tokens seen (millions) -->
     <g style="fill: #111827" transform="translate(326.487734 496.602188) scale(0.11 -0.11)">
      <defs>
       <path id="DejaVuSans-6b" d="M 581 4863 
L 1159 4863 
L 1159 1991 
L 2875 3500 
L 3609 3500 
L 1753 1863 
L 3688 0 
L 2938 0 
L 1159 1709 
L 1159 0 
L 581 0 
L 581 4863 
z
" transform="scale(0.015625)"/>
       <path id="DejaVuSans-28" d="M 1984 4856 
Q 1566 4138 1362 3434 
Q 1159 2731 1159 2009 
Q 1159 1288 1364 580 
Q 1569 -128 1984 -844 
L 1484 -844 
Q 1016 -109 783 600 
Q 550 1309 550 2009 
Q 550 2706 781 3412 
Q 1013 4119 1484 4856 
L 1984 4856 
z
" transform="scale(0.015625)"/>
       <path id="DejaVuSans-29" d="M 513 4856 
L 1013 4856 
Q 1481 4119 1714 3412 
Q 1947 2706 1947 2009 
Q 1947 1309 1714 600 
Q 1481 -109 1013 -844 
L 513 -844 
Q 928 -128 1133 580 
Q 1338 1288 1338 2009 
Q 1338 2731 1133 3434 
Q 928 4138 513 4856 
z
" transform="scale(0.015625)"/>
      </defs>
      <use xlink:href="#DejaVuSans-54"/>
      <use xlink:href="#DejaVuSans-6f" transform="translate(44.083984 0)"/>
      <use xlink:href="#DejaVuSans-6b" transform="translate(105.265625 0)"/>
      <use xlink:href="#DejaVuSans-65" transform="translate(159.550781 0)"/>
      <use xlink:href="#DejaVuSans-6e" transform="translate(221.074219 0)"/>
      <use xlink:href="#DejaVuSans-73" transform="translate(284.453125 0)"/>
      <use xlink:href="#DejaVuSans-20" transform="translate(336.552734 0)"/>
      <use xlink:href="#DejaVuSans-73" transform="translate(368.339844 0)"/>
      <use xlink:href="#DejaVuSans-65" transform="translate(420.439453 0)"/>
      <use xlink:href="#DejaVuSans-65" transform="translate(481.962891 0)"/>
      <use xlink:href="#DejaVuSans-6e" transform="translate(543.486328 0)"/>
      <use xlink:href="#DejaVuSans-20" transform="translate(606.865234 0)"/>
      <use xlink:href="#DejaVuSans-28" transform="translate(638.652344 0)"/>
      <use xlink:href="#DejaVuSans-6d" transform="translate(677.666016 0)"/>
      <use xlink:href="#DejaVuSans-69" transform="translate(775.078125 0)"/>
      <use xlink:href="#DejaVuSans-6c" transform="translate(802.861328 0)"/>
      <use xlink:href="#DejaVuSans-6c" transform="translate(830.644531 0)"/>
      <use xlink:href="#DejaVuSans-69" transform="translate(858.427734 0)"/>
      <use xlink:href="#DejaVuSans-6f" transform="translate(886.210938 0)"/>
      <use xlink:href="#DejaVuSans-6e" transform="translate(947.392578 0)"/>
      <use xlink:href="#DejaVuSans-73" transform="translate(1010.771484 0)"/>
      <use xlink:href="#DejaVuSans-29" transform="translate(1062.871094 0)"/>
     </g>
    </g>
   </g>
   <g id="matplotlib.axis_4">
    <g id="ytick_7">
     <g id="line2d_49">
      <path d="M 94.14 458.525037 
L 680.04 458.525037 
" clip-path="url(#p0967f4ed9b)" style="fill: none; stroke: #e5e7eb; stroke-width: 0.8; stroke-linecap: square"/>
     </g>
     <g id="line2d_50">
      <g>
       <use xlink:href="#m80e1fb7cb1" x="94.14" y="458.525037" style="fill: #374151; stroke: #374151; stroke-width: 0.8"/>
      </g>
     </g>
     <g id="text_21">
      <!-- 0.0 -->
      <g style="fill: #374151" transform="translate(69.646563 462.704178) scale(0.11 -0.11)">
       <defs>
        <path id="DejaVuSans-2e" d="M 684 794 
L 1344 794 
L 1344 0 
L 684 0 
L 684 794 
z
" transform="scale(0.015625)"/>
       </defs>
       <use xlink:href="#DejaVuSans-30"/>
       <use xlink:href="#DejaVuSans-2e" transform="translate(63.623047 0)"/>
       <use xlink:href="#DejaVuSans-30" transform="translate(95.410156 0)"/>
      </g>
     </g>
    </g>
    <g id="ytick_8">
     <g id="line2d_51">
      <path d="M 94.14 431.121076 
L 680.04 431.121076 
" clip-path="url(#p0967f4ed9b)" style="fill: none; stroke: #e5e7eb; stroke-width: 0.8; stroke-linecap: square"/>
     </g>
     <g id="line2d_52">
      <g>
       <use xlink:href="#m80e1fb7cb1" x="94.14" y="431.121076" style="fill: #374151; stroke: #374151; stroke-width: 0.8"/>
      </g>
     </g>
     <g id="text_22">
      <!-- 0.5 -->
      <g style="fill: #374151" transform="translate(69.646563 435.300216) scale(0.11 -0.11)">
       <use xlink:href="#DejaVuSans-30"/>
       <use xlink:href="#DejaVuSans-2e" transform="translate(63.623047 0)"/>
       <use xlink:href="#DejaVuSans-35" transform="translate(95.410156 0)"/>
      </g>
     </g>
    </g>
    <g id="ytick_9">
     <g id="line2d_53">
      <path d="M 94.14 403.717114 
L 680.04 403.717114 
" clip-path="url(#p0967f4ed9b)" style="fill: none; stroke: #e5e7eb; stroke-width: 0.8; stroke-linecap: square"/>
     </g>
     <g id="line2d_54">
      <g>
       <use xlink:href="#m80e1fb7cb1" x="94.14" y="403.717114" style="fill: #374151; stroke: #374151; stroke-width: 0.8"/>
      </g>
     </g>
     <g id="text_23">
      <!-- 1.0 -->
      <g style="fill: #374151" transform="translate(69.646563 407.896254) scale(0.11 -0.11)">
       <use xlink:href="#DejaVuSans-31"/>
       <use xlink:href="#DejaVuSans-2e" transform="translate(63.623047 0)"/>
       <use xlink:href="#DejaVuSans-30" transform="translate(95.410156 0)"/>
      </g>
     </g>
    </g>
    <g id="ytick_10">
     <g id="line2d_55">
      <path d="M 94.14 376.313152 
L 680.04 376.313152 
" clip-path="url(#p0967f4ed9b)" style="fill: none; stroke: #e5e7eb; stroke-width: 0.8; stroke-linecap: square"/>
     </g>
     <g id="line2d_56">
      <g>
       <use xlink:href="#m80e1fb7cb1" x="94.14" y="376.313152" style="fill: #374151; stroke: #374151; stroke-width: 0.8"/>
      </g>
     </g>
     <g id="text_24">
      <!-- 1.5 -->
      <g style="fill: #374151" transform="translate(69.646563 380.492292) scale(0.11 -0.11)">
       <use xlink:href="#DejaVuSans-31"/>
       <use xlink:href="#DejaVuSans-2e" transform="translate(63.623047 0)"/>
       <use xlink:href="#DejaVuSans-35" transform="translate(95.410156 0)"/>
      </g>
     </g>
    </g>
    <g id="ytick_11">
     <g id="line2d_57">
      <path d="M 94.14 348.90919 
L 680.04 348.90919 
" clip-path="url(#p0967f4ed9b)" style="fill: none; stroke: #e5e7eb; stroke-width: 0.8; stroke-linecap: square"/>
     </g>
     <g id="line2d_58">
      <g>
       <use xlink:href="#m80e1fb7cb1" x="94.14" y="348.90919" style="fill: #374151; stroke: #374151; stroke-width: 0.8"/>
      </g>
     </g>
     <g id="text_25">
      <!-- 2.0 -->
      <g style="fill: #374151" transform="translate(69.646563 353.088331) scale(0.11 -0.11)">
       <use xlink:href="#DejaVuSans-32"/>
       <use xlink:href="#DejaVuSans-2e" transform="translate(63.623047 0)"/>
       <use xlink:href="#DejaVuSans-30" transform="translate(95.410156 0)"/>
      </g>
     </g>
    </g>
    <g id="text_26">
     <!-- No RMSNorm - baseline -->
     <g style="fill: #111827" transform="translate(63.358906 466.333874) rotate(-90) scale(0.11 -0.11)">
      <use xlink:href="#DejaVuSans-4e"/>
      <use xlink:href="#DejaVuSans-6f" transform="translate(74.804688 0)"/>
      <use xlink:href="#DejaVuSans-20" transform="translate(135.986328 0)"/>
      <use xlink:href="#DejaVuSans-52" transform="translate(167.773438 0)"/>
      <use xlink:href="#DejaVuSans-4d" transform="translate(237.255859 0)"/>
      <use xlink:href="#DejaVuSans-53" transform="translate(323.535156 0)"/>
      <use xlink:href="#DejaVuSans-4e" transform="translate(387.011719 0)"/>
      <use xlink:href="#DejaVuSans-6f" transform="translate(461.816406 0)"/>
      <use xlink:href="#DejaVuSans-72" transform="translate(522.998047 0)"/>
      <use xlink:href="#DejaVuSans-6d" transform="translate(562.361328 0)"/>
      <use xlink:href="#DejaVuSans-20" transform="translate(659.773438 0)"/>
      <use xlink:href="#DejaVuSans-2d" transform="translate(691.560547 0)"/>
      <use xlink:href="#DejaVuSans-20" transform="translate(727.644531 0)"/>
      <use xlink:href="#DejaVuSans-62" transform="translate(759.431641 0)"/>
      <use xlink:href="#DejaVuSans-61" transform="translate(822.908203 0)"/>
      <use xlink:href="#DejaVuSans-73" transform="translate(884.1875 0)"/>
      <use xlink:href="#DejaVuSans-65" transform="translate(936.287109 0)"/>
      <use xlink:href="#DejaVuSans-6c" transform="translate(997.810547 0)"/>
      <use xlink:href="#DejaVuSans-69" transform="translate(1025.59375 0)"/>
      <use xlink:href="#DejaVuSans-6e" transform="translate(1053.376953 0)"/>
      <use xlink:href="#DejaVuSans-65" transform="translate(1116.755859 0)"/>
     </g>
    </g>
   </g>
   <g id="line2d_59">
    <path d="M 94.14 458.525037 
L 680.04 458.525037 
" clip-path="url(#p0967f4ed9b)" style="fill: none; stroke: #111827; stroke-opacity: 0.65; stroke-linecap: square"/>
   </g>
   <g id="line2d_60">
    <path d="M 120.771818 460.682476 
L 126.151983 456.305386 
L 131.532149 454.707369 
L 136.912314 454.716881 
L 142.292479 453.448485 
L 147.672645 428.614265 
L 153.05281 450.609551 
L 158.432975 448.198975 
L 163.81314 417.615266 
L 169.193306 452.070173 
L 174.573471 451.95771 
L 179.953636 451.674204 
L 185.333802 451.797774 
L 190.713967 451.564478 
L 196.094132 451.962499 
L 201.474298 453.21449 
L 206.854463 450.273645 
L 212.234628 444.827251 
L 217.614793 451.711968 
L 222.994959 450.974388 
L 228.375124 452.116131 
L 233.755289 450.401508 
L 239.135455 451.667546 
L 244.51562 451.941056 
L 249.895785 451.890767 
L 255.27595 452.771067 
L 260.656116 452.607419 
L 266.036281 453.063851 
L 271.416446 452.52507 
L 276.796612 451.80732 
L 282.176777 452.924613 
L 287.556942 451.750843 
L 292.937107 452.570269 
L 298.317273 452.010463 
L 303.697438 452.152686 
L 309.077603 452.762351 
L 314.457769 452.506109 
L 319.837934 452.229776 
L 325.218099 452.774262 
L 330.598264 453.968338 
L 335.97843 453.481192 
L 341.358595 452.769028 
L 346.73876 452.451593 
L 352.118926 452.906626 
L 357.499091 453.388258 
L 362.879256 453.954076 
L 368.259421 452.715877 
L 373.639587 342.372617 
L 379.019752 453.821437 
L 384.399917 452.657983 
L 389.780083 453.947692 
L 395.160248 454.206822 
L 400.540413 454.041508 
L 405.920579 454.339585 
L 411.300744 454.332326 
L 416.680909 454.118866 
L 422.061074 454.909211 
L 427.44124 454.640373 
L 432.821405 454.233891 
L 438.20157 454.605784 
L 443.581736 454.856662 
L 448.961901 454.973561 
L 454.342066 454.913511 
L 459.722231 455.334752 
L 465.102397 455.453612 
L 470.482562 454.81352 
L 475.862727 454.846299 
L 481.242893 455.002335 
L 486.623058 455.790864 
L 492.003223 455.247215 
L 497.383388 455.793471 
L 502.763554 455.545024 
L 508.143719 455.967872 
L 513.523884 456.503433 
L 518.90405 456.110619 
L 524.284215 455.840408 
L 529.66438 456.107391 
L 535.044545 456.28229 
L 540.424711 456.534912 
L 545.804876 455.413685 
L 551.185041 456.516167 
L 556.565207 456.253143 
L 561.945372 456.318806 
L 567.325537 456.082629 
L 572.705702 455.729507 
L 578.085868 456.67183 
L 583.466033 456.091671 
L 588.846198 456.274096 
L 594.226364 456.755271 
L 599.606529 457.029578 
L 604.986694 456.771429 
L 610.36686 456.820404 
L 615.747025 457.252283 
L 621.12719 456.768253 
L 626.507355 457.248676 
L 631.887521 456.857607 
L 637.267686 456.63453 
L 642.647851 456.82718 
L 648.028017 456.958943 
L 653.408182 456.706484 
" clip-path="url(#p0967f4ed9b)" style="fill: none; stroke: #7c2d12; stroke-width: 2; stroke-linecap: square"/>
   </g>
   <g id="patch_6">
    <path d="M 94.14 466.597969 
L 94.14 336.457124 
" style="fill: none; stroke: #000000; stroke-width: 0.8; stroke-linejoin: miter; stroke-linecap: square"/>
   </g>
   <g id="patch_7">
    <path d="M 94.14 466.597969 
L 680.04 466.597969 
" style="fill: none; stroke: #000000; stroke-width: 0.8; stroke-linejoin: miter; stroke-linecap: square"/>
   </g>
  </g>
  <g id="text_27">
   <!-- Final valid loss @ step 10000: baseline 1.3696, no RMSNorm 1.4028, delta +0.0332 -->
   <g style="fill: #374151" transform="translate(7.2 512.248219) scale(0.09 -0.09)">
    <defs>
     <path id="DejaVuSans-46" d="M 628 4666 
L 3309 4666 
L 3309 4134 
L 1259 4134 
L 1259 2759 
L 3109 2759 
L 3109 2228 
L 1259 2228 
L 1259 0 
L 628 0 
L 628 4666 
z
" transform="scale(0.015625)"/>
     <path id="DejaVuSans-40" d="M 2381 1678 
Q 2381 1231 2603 976 
Q 2825 722 3213 722 
Q 3597 722 3817 978 
Q 4038 1234 4038 1678 
Q 4038 2116 3813 2373 
Q 3588 2631 3206 2631 
Q 2828 2631 2604 2375 
Q 2381 2119 2381 1678 
z
M 4084 744 
Q 3897 503 3655 389 
Q 3413 275 3091 275 
Q 2553 275 2217 664 
Q 1881 1053 1881 1678 
Q 1881 2303 2218 2693 
Q 2556 3084 3091 3084 
Q 3413 3084 3656 2967 
Q 3900 2850 4084 2613 
L 4084 3022 
L 4531 3022 
L 4531 722 
Q 4988 791 5245 1139 
Q 5503 1488 5503 2041 
Q 5503 2375 5404 2669 
Q 5306 2963 5106 3213 
Q 4781 3622 4314 3839 
Q 3847 4056 3297 4056 
Q 2913 4056 2559 3954 
Q 2206 3853 1906 3653 
Q 1416 3334 1139 2817 
Q 863 2300 863 1697 
Q 863 1200 1042 765 
Q 1222 331 1563 0 
Q 1891 -325 2322 -495 
Q 2753 -666 3244 -666 
Q 3647 -666 4036 -530 
Q 4425 -394 4750 -141 
L 5031 -488 
Q 4641 -791 4180 -952 
Q 3719 -1113 3244 -1113 
Q 2666 -1113 2153 -908 
Q 1641 -703 1241 -313 
Q 841 78 631 592 
Q 422 1106 422 1697 
Q 422 2266 634 2781 
Q 847 3297 1241 3688 
Q 1644 4084 2172 4295 
Q 2700 4506 3291 4506 
Q 3953 4506 4520 4234 
Q 5088 3963 5472 3463 
Q 5706 3156 5829 2797 
Q 5953 2438 5953 2053 
Q 5953 1231 5456 756 
Q 4959 281 4084 263 
L 4084 744 
z
" transform="scale(0.015625)"/>
     <path id="DejaVuSans-39" d="M 703 97 
L 703 672 
Q 941 559 1184 500 
Q 1428 441 1663 441 
Q 2288 441 2617 861 
Q 2947 1281 2994 2138 
Q 2813 1869 2534 1725 
Q 2256 1581 1919 1581 
Q 1219 1581 811 2004 
Q 403 2428 403 3163 
Q 403 3881 828 4315 
Q 1253 4750 1959 4750 
Q 2769 4750 3195 4129 
Q 3622 3509 3622 2328 
Q 3622 1225 3098 567 
Q 2575 -91 1691 -91 
Q 1453 -91 1209 -44 
Q 966 3 703 97 
z
M 1959 2075 
Q 2384 2075 2632 2365 
Q 2881 2656 2881 3163 
Q 2881 3666 2632 3958 
Q 2384 4250 1959 4250 
Q 1534 4250 1286 3958 
Q 1038 3666 1038 3163 
Q 1038 2656 1286 2365 
Q 1534 2075 1959 2075 
z
" transform="scale(0.015625)"/>
     <path id="DejaVuSans-2c" d="M 750 794 
L 1409 794 
L 1409 256 
L 897 -744 
L 494 -744 
L 750 256 
L 750 794 
z
" transform="scale(0.015625)"/>
     <path id="DejaVuSans-2b" d="M 2944 4013 
L 2944 2272 
L 4684 2272 
L 4684 1741 
L 2944 1741 
L 2944 0 
L 2419 0 
L 2419 1741 
L 678 1741 
L 678 2272 
L 2419 2272 
L 2419 4013 
L 2944 4013 
z
" transform="scale(0.015625)"/>
    </defs>
    <use xlink:href="#DejaVuSans-46"/>
    <use xlink:href="#DejaVuSans-69" transform="translate(50.269531 0)"/>
    <use xlink:href="#DejaVuSans-6e" transform="translate(78.052734 0)"/>
    <use xlink:href="#DejaVuSans-61" transform="translate(141.431641 0)"/>
    <use xlink:href="#DejaVuSans-6c" transform="translate(202.710938 0)"/>
    <use xlink:href="#DejaVuSans-20" transform="translate(230.494141 0)"/>
    <use xlink:href="#DejaVuSans-76" transform="translate(262.28125 0)"/>
    <use xlink:href="#DejaVuSans-61" transform="translate(321.460938 0)"/>
    <use xlink:href="#DejaVuSans-6c" transform="translate(382.740234 0)"/>
    <use xlink:href="#DejaVuSans-69" transform="translate(410.523438 0)"/>
    <use xlink:href="#DejaVuSans-64" transform="translate(438.306641 0)"/>
    <use xlink:href="#DejaVuSans-20" transform="translate(501.783203 0)"/>
    <use xlink:href="#DejaVuSans-6c" transform="translate(533.570312 0)"/>
    <use xlink:href="#DejaVuSans-6f" transform="translate(561.353516 0)"/>
    <use xlink:href="#DejaVuSans-73" transform="translate(622.535156 0)"/>
    <use xlink:href="#DejaVuSans-73" transform="translate(674.634766 0)"/>
    <use xlink:href="#DejaVuSans-20" transform="translate(726.734375 0)"/>
    <use xlink:href="#DejaVuSans-40" transform="translate(758.521484 0)"/>
    <use xlink:href="#DejaVuSans-20" transform="translate(858.521484 0)"/>
    <use xlink:href="#DejaVuSans-73" transform="translate(890.308594 0)"/>
    <use xlink:href="#DejaVuSans-74" transform="translate(942.408203 0)"/>
    <use xlink:href="#DejaVuSans-65" transform="translate(981.617188 0)"/>
    <use xlink:href="#DejaVuSans-70" transform="translate(1043.140625 0)"/>
    <use xlink:href="#DejaVuSans-20" transform="translate(1106.617188 0)"/>
    <use xlink:href="#DejaVuSans-31" transform="translate(1138.404297 0)"/>
    <use xlink:href="#DejaVuSans-30" transform="translate(1202.027344 0)"/>
    <use xlink:href="#DejaVuSans-30" transform="translate(1265.650391 0)"/>
    <use xlink:href="#DejaVuSans-30" transform="translate(1329.273438 0)"/>
    <use xlink:href="#DejaVuSans-30" transform="translate(1392.896484 0)"/>
    <use xlink:href="#DejaVuSans-3a" transform="translate(1456.519531 0)"/>
    <use xlink:href="#DejaVuSans-20" transform="translate(1490.210938 0)"/>
    <use xlink:href="#DejaVuSans-62" transform="translate(1521.998047 0)"/>
    <use xlink:href="#DejaVuSans-61" transform="translate(1585.474609 0)"/>
    <use xlink:href="#DejaVuSans-73" transform="translate(1646.753906 0)"/>
    <use xlink:href="#DejaVuSans-65" transform="translate(1698.853516 0)"/>
    <use xlink:href="#DejaVuSans-6c" transform="translate(1760.376953 0)"/>
    <use xlink:href="#DejaVuSans-69" transform="translate(1788.160156 0)"/>
    <use xlink:href="#DejaVuSans-6e" transform="translate(1815.943359 0)"/>
    <use xlink:href="#DejaVuSans-65" transform="translate(1879.322266 0)"/>
    <use xlink:href="#DejaVuSans-20" transform="translate(1940.845703 0)"/>
    <use xlink:href="#DejaVuSans-31" transform="translate(1972.632812 0)"/>
    <use xlink:href="#DejaVuSans-2e" transform="translate(2036.255859 0)"/>
    <use xlink:href="#DejaVuSans-33" transform="translate(2068.042969 0)"/>
    <use xlink:href="#DejaVuSans-36" transform="translate(2131.666016 0)"/>
    <use xlink:href="#DejaVuSans-39" transform="translate(2195.289062 0)"/>
    <use xlink:href="#DejaVuSans-36" transform="translate(2258.912109 0)"/>
    <use xlink:href="#DejaVuSans-2c" transform="translate(2322.535156 0)"/>
    <use xlink:href="#DejaVuSans-20" transform="translate(2354.322266 0)"/>
    <use xlink:href="#DejaVuSans-6e" transform="translate(2386.109375 0)"/>
    <use xlink:href="#DejaVuSans-6f" transform="translate(2449.488281 0)"/>
    <use xlink:href="#DejaVuSans-20" transform="translate(2510.669922 0)"/>
    <use xlink:href="#DejaVuSans-52" transform="translate(2542.457031 0)"/>
    <use xlink:href="#DejaVuSans-4d" transform="translate(2611.939453 0)"/>
    <use xlink:href="#DejaVuSans-53" transform="translate(2698.21875 0)"/>
    <use xlink:href="#DejaVuSans-4e" transform="translate(2761.695312 0)"/>
    <use xlink:href="#DejaVuSans-6f" transform="translate(2836.5 0)"/>
    <use xlink:href="#DejaVuSans-72" transform="translate(2897.681641 0)"/>
    <use xlink:href="#DejaVuSans-6d" transform="translate(2937.044922 0)"/>
    <use xlink:href="#DejaVuSans-20" transform="translate(3034.457031 0)"/>
    <use xlink:href="#DejaVuSans-31" transform="translate(3066.244141 0)"/>
    <use xlink:href="#DejaVuSans-2e" transform="translate(3129.867188 0)"/>
    <use xlink:href="#DejaVuSans-34" transform="translate(3161.654297 0)"/>
    <use xlink:href="#DejaVuSans-30" transform="translate(3225.277344 0)"/>
    <use xlink:href="#DejaVuSans-32" transform="translate(3288.900391 0)"/>
    <use xlink:href="#DejaVuSans-38" transform="translate(3352.523438 0)"/>
    <use xlink:href="#DejaVuSans-2c" transform="translate(3416.146484 0)"/>
    <use xlink:href="#DejaVuSans-20" transform="translate(3447.933594 0)"/>
    <use xlink:href="#DejaVuSans-64" transform="translate(3479.720703 0)"/>
    <use xlink:href="#DejaVuSans-65" transform="translate(3543.197266 0)"/>
    <use xlink:href="#DejaVuSans-6c" transform="translate(3604.720703 0)"/>
    <use xlink:href="#DejaVuSans-74" transform="translate(3632.503906 0)"/>
    <use xlink:href="#DejaVuSans-61" transform="translate(3671.712891 0)"/>
    <use xlink:href="#DejaVuSans-20" transform="translate(3732.992188 0)"/>
    <use xlink:href="#DejaVuSans-2b" transform="translate(3764.779297 0)"/>
    <use xlink:href="#DejaVuSans-30" transform="translate(3848.568359 0)"/>
    <use xlink:href="#DejaVuSans-2e" transform="translate(3912.191406 0)"/>
    <use xlink:href="#DejaVuSans-30" transform="translate(3943.978516 0)"/>
    <use xlink:href="#DejaVuSans-33" transform="translate(4007.601562 0)"/>
    <use xlink:href="#DejaVuSans-33" transform="translate(4071.224609 0)"/>
    <use xlink:href="#DejaVuSans-32" transform="translate(4134.847656 0)"/>
   </g>
   <!-- Best valid loss: baseline 1.3637, no RMSNorm 1.3947 -->
   <g style="fill: #374151" transform="translate(7.2 522.32625) scale(0.09 -0.09)">
    <defs>
     <path id="DejaVuSans-37" d="M 525 4666 
L 3525 4666 
L 3525 4397 
L 1831 0 
L 1172 0 
L 2766 4134 
L 525 4134 
L 525 4666 
z
" transform="scale(0.015625)"/>
    </defs>
    <use xlink:href="#DejaVuSans-42"/>
    <use xlink:href="#DejaVuSans-65" transform="translate(68.603516 0)"/>
    <use xlink:href="#DejaVuSans-73" transform="translate(130.126953 0)"/>
    <use xlink:href="#DejaVuSans-74" transform="translate(182.226562 0)"/>
    <use xlink:href="#DejaVuSans-20" transform="translate(221.435547 0)"/>
    <use xlink:href="#DejaVuSans-76" transform="translate(253.222656 0)"/>
    <use xlink:href="#DejaVuSans-61" transform="translate(312.402344 0)"/>
    <use xlink:href="#DejaVuSans-6c" transform="translate(373.681641 0)"/>
    <use xlink:href="#DejaVuSans-69" transform="translate(401.464844 0)"/>
    <use xlink:href="#DejaVuSans-64" transform="translate(429.248047 0)"/>
    <use xlink:href="#DejaVuSans-20" transform="translate(492.724609 0)"/>
    <use xlink:href="#DejaVuSans-6c" transform="translate(524.511719 0)"/>
    <use xlink:href="#DejaVuSans-6f" transform="translate(552.294922 0)"/>
    <use xlink:href="#DejaVuSans-73" transform="translate(613.476562 0)"/>
    <use xlink:href="#DejaVuSans-73" transform="translate(665.576172 0)"/>
    <use xlink:href="#DejaVuSans-3a" transform="translate(717.675781 0)"/>
    <use xlink:href="#DejaVuSans-20" transform="translate(751.367188 0)"/>
    <use xlink:href="#DejaVuSans-62" transform="translate(783.154297 0)"/>
    <use xlink:href="#DejaVuSans-61" transform="translate(846.630859 0)"/>
    <use xlink:href="#DejaVuSans-73" transform="translate(907.910156 0)"/>
    <use xlink:href="#DejaVuSans-65" transform="translate(960.009766 0)"/>
    <use xlink:href="#DejaVuSans-6c" transform="translate(1021.533203 0)"/>
    <use xlink:href="#DejaVuSans-69" transform="translate(1049.316406 0)"/>
    <use xlink:href="#DejaVuSans-6e" transform="translate(1077.099609 0)"/>
    <use xlink:href="#DejaVuSans-65" transform="translate(1140.478516 0)"/>
    <use xlink:href="#DejaVuSans-20" transform="translate(1202.001953 0)"/>
    <use xlink:href="#DejaVuSans-31" transform="translate(1233.789062 0)"/>
    <use xlink:href="#DejaVuSans-2e" transform="translate(1297.412109 0)"/>
    <use xlink:href="#DejaVuSans-33" transform="translate(1329.199219 0)"/>
    <use xlink:href="#DejaVuSans-36" transform="translate(1392.822266 0)"/>
    <use xlink:href="#DejaVuSans-33" transform="translate(1456.445312 0)"/>
    <use xlink:href="#DejaVuSans-37" transform="translate(1520.068359 0)"/>
    <use xlink:href="#DejaVuSans-2c" transform="translate(1583.691406 0)"/>
    <use xlink:href="#DejaVuSans-20" transform="translate(1615.478516 0)"/>
    <use xlink:href="#DejaVuSans-6e" transform="translate(1647.265625 0)"/>
    <use xlink:href="#DejaVuSans-6f" transform="translate(1710.644531 0)"/>
    <use xlink:href="#DejaVuSans-20" transform="translate(1771.826172 0)"/>
    <use xlink:href="#DejaVuSans-52" transform="translate(1803.613281 0)"/>
    <use xlink:href="#DejaVuSans-4d" transform="translate(1873.095703 0)"/>
    <use xlink:href="#DejaVuSans-53" transform="translate(1959.375 0)"/>
    <use xlink:href="#DejaVuSans-4e" transform="translate(2022.851562 0)"/>
    <use xlink:href="#DejaVuSans-6f" transform="translate(2097.65625 0)"/>
    <use xlink:href="#DejaVuSans-72" transform="translate(2158.837891 0)"/>
    <use xlink:href="#DejaVuSans-6d" transform="translate(2198.201172 0)"/>
    <use xlink:href="#DejaVuSans-20" transform="translate(2295.613281 0)"/>
    <use xlink:href="#DejaVuSans-31" transform="translate(2327.400391 0)"/>
    <use xlink:href="#DejaVuSans-2e" transform="translate(2391.023438 0)"/>
    <use xlink:href="#DejaVuSans-33" transform="translate(2422.810547 0)"/>
    <use xlink:href="#DejaVuSans-39" transform="translate(2486.433594 0)"/>
    <use xlink:href="#DejaVuSans-34" transform="translate(2550.056641 0)"/>
    <use xlink:href="#DejaVuSans-37" transform="translate(2613.679688 0)"/>
   </g>
  </g>
 </g>
 <defs>
  <clipPath id="p42c0bfb4ab">
   <rect x="94.14" y="23.077969" width="585.9" height="286.309859"/>
  </clipPath>
  <clipPath id="p0967f4ed9b">
   <rect x="94.14" y="336.457124" width="585.9" height="130.140845"/>
  </clipPath>
 </defs>
</svg>
